<svg xmlns="http://www.w3.org/2000/svg" width="148" height="151" fill="none" viewBox="0 0 148 151"><path fill="#000" d="M20.2 132.9c-.4 0-.8-.1-1.1-.1-2.3.3-4.6.6-6.9.8-.3 0-.6 0-.8-.1 2.4-.3 4.7-.6 7.1-.9 3.5-.4 6.9-.8 10.4-1.2 2.5-.3 5.1-.5 7.6-.8 1-.1 2.1-.4 3.1-.8-.4 0-.7-.1-1.1-.1-.7.1-1.4.2-2 .3-4.3.4-8.5.9-12.8 1.3-2.5.2-5 .3-7.5.5-1.6.1-3.3.4-4.9.5 0-.1-.1-.2-.1-.3.4-.2.9-.6 1.3-.7 2.4-.2 4.9-.3 7.3-.5 3.7-.3 7.4-.5 11.1-.9 2.2-.2 4.3-.7 6.5-1.1v-.4c-4.2.3-8.3.5-12.5.8s-8.4.7-12.6.9c7.5-1 15.1-1.8 22.7-2.9-.6-.1-1.2-.4-1.7-.3-4.2.2-8.4.4-12.6.7-.9.1-1.9.3-2.8.4.9-.2 1.8-.5 2.7-.6 3.4-.4 6.7-.8 10.1-1.2.7-.1 1.4-.2 2-.2-1.6-1.2-3.4-2.3-5-3.7-6.8-5.9-12.8-12.4-17-20.5-1.8-3.5-2.9-7.3-4.5-11-2.8-6-4.3-12.3-5.3-18.7-.4-2.3-.9-4.6-.9-7 .1-7.4 3.4-13 9.6-16.9 5.5-3.4 11.6-5.4 17.8-7l1.2-.3c.2-.1.4-.2.5-.4.7-1.5 1-1.7 2.5-1.4.5-.6.8-1.3 1.3-1.5s1.2.1 1.9.2c.1-.4.3-.9.4-1.5.2-.8.7-1 1.3-.4.5.5.8 1.1 1.1 1.7.2.3.2.7.4 1.1.3-.8.5-1.7.8-2.5.5-1.4.9-1.8 2.4-1.8.5 0 .7-.3 1.1-.5q.9-.75 2.1-.9c.7-.1 1.4.1 2.1 0 .6-.1 1.3-.4 1.7-.8.9-1.1 1.5-1.3 2.7-.5.1.1.2.1.3.2 1.8-1.2 1.8-1.2 3.1-.5 0-.8-1.2-1.5-.1-2.3.7.9 1.4 1.8 2.1 2.8.1.2.1.6-.1.7-.2.2-.6.3-.8.2-.6-.2-1.1-.4-1.6-.7s-.9-.2-1.2.2c-.1.1-.2.2-.2.3-.9 1-1 1-2 .1s-1-.9-1.9.1c-1 1.1-2.3 1.4-3.7 1.2-.4 0-.7-.1-1.1-.1-.6 0-.8.2-.7.9.2.9-.1 1.1-1 .8-.2-.1-.5-.2-.7-.2-1.1-.2-1.3-.1-1.3 1 0 .8-.1 1.6-.2 2.3-.2.8-.7 1.5-1.6 1.5s-1.1-.8-1.3-1.5c-.1-.4-.2-.9-.4-1.5-.6 1.1.1 2.4-1.1 3.1-.3-.3-.5-.6-.8-.9s-.5-.6-.8-.7c-.2-.1-.6.1-.8.1.1.2.1.5.2.7.3.3.7.6.9.9.2.2.1.6.2.9-.3 0-.7.2-.9.1-.7-.3-1.3-.8-2-1.2-.3-.2-.7-.3-1.2-.4.1 1.2.6 1.9 1.5 2.4.8.4.9.8.2 1.4-.9.7-2 1.2-2.9 1.8-.3.2-.5.5-.7.8s-.3.8-.5.9c-1 .4-1.1 1.1-.7 1.9.1.1-.1.3-.2.8-.6-.7-1.1-1.2-1.4-1.8-.4-.9-.9-.8-1.7-.5.2.7.4 1.3.6 2 .2.6.4 1.2.6 1.9-1.9.5-3.9-.9-5.5 1 .4.2.8.4 1.1.5.4.1.8.1 1.2.2s.8.3 1.2.5c-.3.3-.6.7-.9 1s-.7.5-.8.8c-.3.9-.9 1.3-1.9 1.4q-1.35.15-1.5 1.8c-1.9-.4-3.6-1.7-5.8-.6 1.3.6 2.5 1.2 3.8 1.9-2.2 1.4-4.7 2.3-5.9 4.9 1.3-.7 2.5-1.4 3.7-2l.2.2c-.4.6-.8 1.3-1.3 1.8-.6.6-.9 1.2-.9 2.1 0 1-.5 1.9-1.3 2.4-.9.6-.7 1.2-.1 1.7.9.7 1.9 1.4 2.8 2 .4.2.8.3 1.2.6.2.1.3.4.4.6-.2.1-.5.3-.7.2-.9-.4-1.9-.8-2.7-1.3-3.8-2.2-6.1-5.3-6.6-9.7v-.5c0-.6 0-1.2.7-1.3.8-.1.8.7.8 1.1.2 1.6.7 3 1.5 4.3-1.2-5.6 1.8-9.6 4.8-13.6.1 0 .2.1.3.1-1.2 2.2-2.4 4.4-3.7 6.8 1.8-1.4 2.1-1.9 2.8-3.5.7-1.9 2.2-3.2 3.4-4.8.1.1.2.1.3.2-1 1.5-1.9 3-3 4.6.7 0 1.1-.1 1.4-.7.5-1 1.1-1.8 1.7-2.7.2-.3.5-.4.7-.7.1 0 .1.1.2.1-.5 1-.9 2-1.4 3 .1 0 .1.1.2.1.2-.3.4-.5.5-.8 1.9-3 4.4-5.5 6.9-8 1-1 2.6-.8 3.6.5.4-.4.9-.8 1.1-1.3.3-1.1 1.2-1.6 2.1-2l1.5-.9c-.9-1.4-1-1.5-2.5-.9-4.2 1.5-8.5 2.8-12.6 4.6-2.6 1.1-5 2.7-7.2 4.5C2.7 55.7.6 61.4 2.9 68c.8 2.2 2.2 4.3 3.9 6 2.1 2.1 4.5 3.8 7.2 5.2 5.2 2.6 10.7 4 16.3 5.2 1.5.3 1.8.5 2.3 1.2-2.1-.1-4.1-.3-6.2-.4.1 1.8.2 3.5.4 5.3h-.2l-.6-3.9c-.2-1.7-.2-1.7-1.8-2-.5-.1-1-.2-1.4-.4.3 2.7.6 5.4 1 8.1-.1 0-.3 0-.4.1-.1-.3-.1-.5-.2-.8-.3-2.2-.6-4.5-.8-6.7-.1-.6-.3-1-1-1.2-.8-.2-1.5-.5-2.4-.8.3 1.4.7 2.8 1 4.1h-.1c-.4-1.3-.7-2.5-1.1-3.7-.1-.3-.4-.7-.7-.8-.9-.5-1.8-.9-2.9-1.3 1.3 9.1 2.5 18.2 8 25.9l-.8.4c1.1 2.1 2.2 4.3 3.3 6.4.2.4.7.6 1 .9.5.5 1 1.1 1.4 1.6l-.2.2c-.2-.1-.5-.3-.7-.4-.1 0-.1.1-.2.1l2.7 3.6-.1.1c-.3-.2-.7-.4-.9-.7-.9-1.3-1.8-2.6-2.7-3.8-.4-.6-.9-1.3-1.5-1.6-3.1-1.7-5.2-4.4-7-7.3-2.4-4-3.9-8.4-5.2-12.9-1-3.1-1.7-6.3-2.6-9.5-.1-.2-.1-.4 0-.7.7 2.5 1.4 4.9 2.2 7.4 1.4 4.4 2.5 8.8 4.6 12.9 1.4 2.6 2.8 5.3 5.2 7.1-1.7-3.5-3.6-6.9-5.1-10.5-1.4-3.7-2.4-7.6-3.5-11.4.1 0 .1 0 .2-.1.5 1.7 1.1 3.4 1.5 5.1 1.6 6.1 4.6 11.6 7.7 17 .4.7 1 1.2 1.7 1.7 0-.2-.1-.3-.1-.5-1.4-2.8-2.9-5.6-4.3-8.4-2-3.9-3.2-8.2-4.2-12.5-.7-3.4-1.3-6.8-1.9-10.2-.1-.7-.4-1-1-1.3-2.7-1.5-5.4-3.1-7.5-5.5-.9-1-1.5-2.1-2.2-3.1 1.5 6.8 2.5 14 6.2 20.3-1.3-5.1-2.5-10.2-3.8-15.3.1 0 .1 0 .2-.1.5 2 1 4 1.6 6 1 3.4 1.8 6.8 3 10.2.6 1.7 1.6 3.2 2.4 4.9l.7 1.4c-.4-.1-.6-.1-1-.2 1.8 3.2 3.6 6.2 5.3 9.3-3.4-4.4-5.7-9.5-8.7-14.1.1.2.1.4.2.6 1.5 4.5 4 8.5 6.9 12.2 5.3 6.7 11.1 13 18 18 5.3 3.8 11 6.8 17.2 9.1h.1c-1.9-1.9-3.9-3.9-5.9-5.8.1-.1.2-.2.2-.3.1.1.3.1.4.2 2.4 2.1 4.7 4.3 7.2 6.2.8.6 2 .7 3 .9-1.4-1.7-2.8-3.3-4.2-5l.2-.2c.1.1.3.1.4.2 1.7 1.7 3.3 3.4 5 5 .3.3.9.5 1.4.6s1 .1 1.6.2c-1.3-1.7-2.5-3.3-3.8-4.9l.5-.5c.1.3.2.6.4.8 1 1.2 2.2 2.2 3.2 3.5.9 1.1 2 1.3 3.3 1.1-.9-1.7-1.8-3.3-2.7-4.9l.4-.4c.1.2.1.5.2.7.9 1.3 1.8 2.6 2.6 3.9.4.6.8.8 1.5.8.6-.1 1.2 0 1.9 0-.6-1.7-1.2-3.3-1.8-4.9.1 0 .2-.1.3-.1.1.2.3.4.4.6.5 1.1 1.1 2.2 1.6 3.4.3.8.8 1.1 1.6.9.4-.1.7 0 1.2 0-.4-1.7-.8-3.3-1.3-4.8.1 0 .2-.1.3-.1.2.3.3.6.5.9.4 1 .8 2 1.1 3.1.2.7.5 1 1.3.9.5-.1 1.1-.1 1.3-.1 1.1-2.6 2.2-5.1 3.2-7.5h.3c0 .3.1.6.1.8-.9 2.2-1.8 4.5-2.7 6.7.9-.1 1.8-.1 2.8-.2.3 0 .5-.3.7-.5 1.1-1.4 2.2-2.9 3.3-4.4.1-.2.3-.3.5-.4.1.1.2.2.3.2-1 1.6-2.1 3.2-3.1 4.9.7.2 1.2 0 1.7-.5 1.6-1.7 3.2-3.4 4.8-5 .1-.1.2-.1.4-.1-.9 1.2-1.7 2.5-2.6 3.8h2.1c1.4-1.2 2.9-2.6 4.4-4 .1 0 .1.1.2.1-.9 1.1-1.8 2.2-2.7 3.2 2-.6 3.3-2.1 4.9-3.4-1 1.1-1.9 2.2-2.9 3.3h1c-1.2.6-2.1 1.2-3.1 1.7 2.9.3 4.8-1.4 6.5-3.4l.3.3c-.5.6-1.1 1.3-1.6 1.9 5.6-2.2 11.4-3.9 16-8 6.6-5.8 12.9-11.7 18.9-18.2 3.4-3.7 6.1-7.8 8-12.4.1-.2.2-.5.3-.7v-.1c-1.8 2.6-3.6 5.3-5.4 7.9-.2.3-.5.7-.7 1-.2.2-.4.2-.6.3 0-.2 0-.5.1-.7s.2-.4.4-.6c4-5.5 6.1-11.8 8.3-18.1.7-2.2 1.5-4.5 2.2-6.7.1-.2.1-.3.4-.4-1.7 5.3-3.3 10.6-5 15.9 4.1-6.3 5.5-13.6 7.3-21.1-2.1 3.3-5.1 5.2-8.2 6.9-.2.1-.4.2-.4.3-.2 1.4-1 2.6-1.2 4.2.4-.4.7-.6 1-.9l.1.1c-.3.4-.4 1-.8 1.3-.9.7-1.2 1.7-1.5 2.6-1.5 4.2-2.9 8.5-5.1 12.4-1.1 1.9-2.4 3.7-3.6 5.6-.1 0-.2-.1-.3-.1.1-.3.1-.7.3-.9.7-1.2 1.6-2.3 2.2-3.5 1.2-2.2 2.2-4.4 3.3-6.6-.1-.1-.2-.1-.2-.2-.3.1-.5.3-.8.4 0-.1-.1-.2-.1-.2 1.6-1.1 2.2-2.9 2.8-4.5.5-1.2.9-2.4 1.4-3.6-2.6.9-4.1 2.7-4.4 5.4.4-.2.8-.5 1.3-.7l.1.1c-.1.1-.2.2-.4.3-1.1.7-1.6 1.7-2.1 2.9-2.3 6.6-5.1 13-8.9 18.9-1.2 1.8-2.5 3.4-3.9 5.1-.1.2-.5.2-.7.3-.1-.1-.2-.2-.2-.3l1.8-2.4c3.1-3.7 5.6-7.8 7.6-12.2.1-.2.1-.3.2-.6-1.1 1-2.1 1.8-3.1 2.7.1 0 .2.1.4.2-.3.4-.6.8-1 1.2-.2-.4-.2-.7-.4-1.3-1.5 3.7-2.6 7.3-5.3 10.1 2.9-4.9 4.4-10.4 6.4-15.7-.1-.1-.2-.1-.3-.2-.2.3-.6.7-.7 1-1 2.8-1.9 5.6-2.9 8.5-1.5 4.3-4.1 7.9-7 11.3-1.7 1.9-3.3 3.8-4.9 5.7-.2-.3-.5-.7-.8-1 2.8-3.8 7.2-6.2 9.4-10.8-2.1 2.1-4.1 4.1-6 6.2-2 2.1-4 4.3-6 6.5-.6.7-1.1 1.4-1.7 2.1-.2.2-.4.3-.7.4 0-.3-.2-.7-.1-.9.5-.8 1-1.6 1.7-2.3 2.6-2.8 5.2-5.5 7.9-8.3.3-.3.6-.7 1-1 3.6-2.8 5.2-6.7 6-11.1l.3-1.2h.3c-.5 2.3-.9 4.6-1.4 7.1 1-2.4 2-4.5 2.8-6.7s1.5-4.5 2.3-6.8c.9.2 1.5-.3 1.9-1.2.3-.7.6-1.4.9-2.2-.7.2-1.4.4-2 .7-.3.1-.6.5-.7.8-.6 1.8-2 2.8-3.8 3.2-.7.2-1.6.3-1.6 1.4 0 .1-.4.3-.4.3-.2-.2-.4-.4-.7-.8-.8.4-1.6 1-2.5 1.4-.2.1-.6-.1-1-.3 1.4-.5 1.9-1.7 2.4-2.8s.8-2.3 1.1-3.4c.1 1.7-.7 3.2-1.4 4.9 1.9-.3 3.3-1.1 3.7-3.1-.4 0-.8.1-1.3.1 0-.1-.1-.2-.1-.3.4-.2.7-.4 1.1-.5.7-.1 1.1-.6 1.4-1.2.6-1.3 1.3-2.5 1.9-3.7.1 0 .1.1.2.1-.6 1.3-1.2 2.6-1.7 3.9 2.8-.4 3.8-1.2 4.4-3.7-.4 0-.8.1-1.1.1-.1 0-.3-.2-.4-.2.1-.1.2-.3.3-.4s.2-.1.3-.1c.9-.1 1.9-.1 2.2-1.3 0 .2 0 .5-.1.7 2.6 0 2.6-2.5 3.7-4 .1 0 .2.1.3.1-.3.8-.7 1.7-1 2.5l.2.2c.3-.4.7-.7 1-1.1 1.1-2 2.1-4.1 3.3-6.4-2.1.6-4 1.1-6 1.5-.3.1-.6 0-.9 0 0-.1 0-.2-.1-.3.3-.2.6-.4.9-.5 1.3-.4 2.6-.9 3.8-1.3.7-.3 1.5-.5 1.7-1.4 0-.2.2-.3.2-.5.1.1.2.1.2.2v.8c.3-.2.6-.3 1-.4-.1-.1-.2-.2-.3-.2 2-1.1 4.1-2.1 5.9-3.4 2.2-1.6 4.9-2.5 6.3-5.1.5-.9 1-1.9 1.6-2.7.2-.3.7-.5 1.1-.7 1.4-3.6 1.7-7.3-.5-10.8-1.3-2.1-3.2-3.7-5.4-4.9-1.9-1-3.8-1.9-5.8-2.6-4-1.6-8.1-3.1-12.2-4.7-.3-.1-.7-.3-1.1-.4v2.2c2.4 1.5 4.8 3.1 5.3 6.3.6-.8.5-.7.2-1.5-.7-1.8-1.9-3.1-3.5-4.3.3-.2.6-.5.8-.5s.3.4.5.6c.3.2.7.6.8.6.5-.3.8 0 1.2.3.7.5 1.6.5 2.1 1.3.1.2.7.1 1.2.1.2.3.4.7.7 1.1.3-.3.6-.5.8-.7.8.7 1.6 1.5 2.5 2.3 0-.6 0-.9-.1-1.3.1 0 .2-.1.3-.1.5.7.9 1.3 1.4 2 .1 0 .1-.1.2-.1-.1-.2-.3-.5-.4-.8.5-.3.9-.3 1.2.4.2.5.8.7 1.4.4.5 1.3 1.1 2.6 1.7 4.1 0-.5.1-.8.1-1.3.9 1 .9 2.2 1.2 3.2v-2.5c.1 0 .2 0 .3-.1.3 1.7.5 3.3.9 5 .4 1.8-.7 3.3-.9 5 .1 0 .2.1.3.1.3-1.1.8-2.1.9-3.2.1-1 0-2.1-.1-3.2 0-.2-.1-.5-.1-.7l.3-.9c.3.2.8.3.9.5.3.7.5 1.5.6 2.3.3 3.7-.7 7.1-2.9 10.2-.9 1.3-2.2 2.1-3.5 2.7-5.8 2.9-12.1 4.6-18.4 5.8-3.7.7-7.5 1.4-11.2 1.9-1.5.2-3 0-4.6-.1.8-.3 1.7-.6 2.6-1-.4-.8.1-1.5.8-1.7 2-.8 4.1-1.5 6.1-2 1.2-.3 2 .7 2.1 2.2 2-.4 4-.7 6.2-1.1-1.4-1-3.1-1.1-4.6-2.3.6-.1.9-.2 1.3-.3-.2-.1-.3-.2-.5-.3-.8-.3-1.2-.9-.9-1.9.2-.8.9-1.2 1.6-.9 1.6.6 3.3 1.2 4.8 2.1 1.1.6 1.1 1.3.8 3 5.5-1.6 10.9-3.2 15.8-6.1-.1-.8-.1-1.4-.3-2.1-.2-.8-.5-1.6-.9-2.3-.1-.2-.4-.3-.6-.3h-.9c-.4 0-.8-.2-1.2-.2.2-.3.3-.6.6-.9.6-.8.5-1.6.1-2.6-.3.5-.4 1-.7 1.4-.5.7-1.3.7-1.6-.1-.4-1.1-.6-2.2-.7-3.4-.1-1.3 0-2.7-1.2-3.6-.1-.1 0-.6-.1-.9-.7.5-1.5.9-2.4 1.5 0-2.1.4-3.9-.6-5.8-.5.6-.8 1.2-1.2 1.7-.7.8-1.2.7-1.7-.2-.7-1.2-1.4-2.4-2.2-3.5-.6-.7-1.4-1.3-2.2-1.7-1.4-.7-1.7-1.4-1.2-2.8.2-.5.7-1.2-.2-1.6-.3.4-.5.7-.8 1.1-.3.3-.6.7-.9 1.1-1.2-1.4-.3-3.1-1.1-4.5-.2.9-.4 1.8-.7 2.6-.1.2-.4.6-.6.6s-.5-.3-.7-.5c-.2-.3-.3-.8-.4-1.1s-.3-.7-.6-.8c-.7-.3-1.2-.5-.9-1.5 0-.1-.6-.6-1-.7-.6-.2-1.3-.2-2-.2-.1-.2-.2-.3-.3-.5.7-.4 1.3-.9 2-1.3-.1-.1-.2-.3-.3-.4-.4.1-.9.2-1.3.3-.5.1-1 .2-1.5.2-.8 0-1-.5-.6-1.1s.8-1.2 1.3-1.8c.1.2.3.5.3.7 0 .3-.1.7-.2 1h1.4c1.3 0 1.7.6 1 1.7-.1.1-.1.2-.2.4 1.2.1 2 .6 2.3 1.8.1.6 1 1 1.6 1.6.2-.6.5-1.3.7-2 1.4.2 1.5.2 2 3.6.4-.3.9-.2 1.1-1 .1-.6.8-.5 1.3-.3 2.5.8 5 1.5 7.4 2.4 3.8 1.4 7.5 2.9 11.2 4.3 6.3 2.4 8.8 7.4 9.4 13.8.2 2.1-.3 4.1-.9 6.2-.9 3-1.6 6-2.4 9-1.1 4.5-2.6 8.8-4.6 12.9-1.6 3.4-3.1 6.8-4.7 10.2-2.3 4.9-5.8 8.9-9.6 12.8-3 3.1-6.3 6.1-9.4 9.1-.1.1-.1.2-.3.4 1.4-.2 2-1.3 2.5-1.8 1.4-.1 2.5-.2 3.6-.3v.2c-.5.1-1 .2-1.4.3-.6.1-1.2.1-1.6.3s-.8.7-1.1 1.3l15.6-1.2v.1c-1.1.2-2.3.4-3.4.5-3.3.3-6.7.6-10 1-1.2.1-2.4.3-3.5.5-.3.1-.6.3-.9.5 3-.2 5.9-.5 8.9-.7v.2c-2 .3-3.9.6-5.9.8-1.7.2-1.9.3-2.5 1.6 6.8-1 13.4-1.6 20.1-1.1-1.6.1-3.1.3-4.7.2-4-.5-8 .2-11.9.7-2 .3-4 .7-6 1.1q-1.05.3-2.1.9c7.9-.7 15.9-1.4 23.8-2.1v.3c-8.5 1-17 1.8-25.4 2.9v.4c.3 0 .7.1 1 .1 3.4-.2 6.8-.5 10.2-.8 3.6-.3 7.1-.6 10.7-.9 1.3-.1 2.5-.4 3.8-.7.7-.2 1.3-.1 1.9.6-8.6.9-17.1 1.9-25.6 2.8v.2L137 129v.2l-12.3.9c4.3.9 8.6.3 12.9-.4-3 1.2-6.2 1.6-9.4 1.4-1.4-.1-2.8-.3-4.2-.5-3.4-.4-6.8.1-10.1.5l-3.3.3c-.6.1-1.1.3-1.6.7 5.1.4 10-1.4 14.3-.9-2.2.3-5.1.5-7.9 1s-5.7.3-8.4 1.3c0 .1 0 .3.1.4 1.9-.2 3.8-.4 5.6-.7 5.3-.9 10.7-1.3 16.1-1.4 2.1 0 4.2-.5 6.3-.8.2 0 .3-.1.5-.1l.6.3c-.2.1-.3.4-.5.4-1.6.3-3.2.5-4.8.7-4.4.6-8.9 1.2-13.3 1.8-3.3.4-6.6.7-9.9 1.1-.9.1-1.8.3-2.7.4v.3c3.6-.4 7.2-.8 10.7-1.3 0 .1 0 .2.1.3-1.1.2-2.2.4-3.2.6-2.6.4-5.3.8-7.9 1.2-.4.1-.9.3-1.3.6h1.3c2.8.1 5.7.3 8.5.1 4.7-.3 9.4-.8 14.1-1.4 2.7-.3 5.3-.9 8-1.3.2 0 .4 0 .7.2-9.2 2.7-18.7 3.4-28.1 4.7 0-.1 0-.3-.1-.4 2.5-.4 4.9-.9 7.4-1.3-3.1-.6-6 .1-9 .6-3.4.5-6.8.7-10.2 1.1-2.6.3-5.1.7-7.7.9-4.2.4-8.3.8-12.5.9-4.7.1-9.5-.1-14.2 0-3.1 0-6.2.4-9.3.5l-10.1.3c-4.9.2-9.9.3-14.8.5-.3 0-.6-.1-.9-.2 0-.1 0-.2.1-.3 9.6-.4 19.3-.9 28.9-1.3v-.3c-8.5-.6-17-.3-25.6 0 3.4-.8 6.8-.7 10.2-.7 3.5 0 6.9 0 10.4-.1-1.3-.6-2.6-1.1-4-1l-16.2.6c-1.8.1-3.7 0-5.5 0 0-.1-.1-.2-.1-.3.3-.1.6-.3.9-.3l16.1-.3h4.8v-.3c-.6-.1-1.1-.4-1.7-.4-2.4-.1-4.9-.1-7.3-.2-.3 0-.6 0-.9-.2h7.6c0-.1.1-.3.1-.4-.5-.2-.9-.6-1.4-.6-3 0-6 0-9 .5-5.2.8-10.5 1.2-15.8 1.8-1.4.1-2.9.2-4.3.3-.4 0-.8-.1-1.3-.1.7-.9 1.6-.9 2.4-.9 2.8-.1 5.5-.2 8.3-.4 4.4-.4 8.8-.9 13.2-1.4 2-.2 3.9-.2 5.9-.3.2 0 .5 0 .7-.1v-.3c-8.4.4-16.8.9-25.2 1.3v-.2c4.2-.4 8.3-1 12.5-1.3s8.3-.5 12.5-.9c-2-.5-4-.1-6 0s-4.1.2-6.1.3c-2.1.1-4.1.3-6.2.5-2 .2-4 .4-6 .3 8-1.3 16-1.8 24.1-2.4v-1.3c-3.6.3-7.2.5-10.8.8 3.7-.3 7.3-1.6 11.1-1.3-.6-.3-1.1-.8-2-.5-1 .3-2.2 0-3.3.1-4.5.4-9.1.7-13.6 1.1-1.8.6-2.8.7-3.8.9m74.1 2.9c0-.1-.1-.2-.1-.4-.4.1-.7.1-1.1.2-2.9.5-5.7 1.4-8.6 1.6-8.2.4-16.4.5-24.6-.3-5.6-.6-10.9-1.8-16.1-4.1-.2-.1-.4-.2-.5-.2.2.6.4 1.1.5 1.7.1 1.3.8 2.1 1.9 2.7.6.3 1.3.6 2 .8 4.1 1.2 8.3 1.7 12.5 1.8 6.5.2 13 .2 19.5.2 3.3 0 6.6-.4 9.9-1.3 2.4-.7 4.7-1.4 7.1-2.2 0-.1-.1-.2-.1-.4-2.4.7-4.8 1.3-7.3 2-.1-.1-.1-.2-.2-.3.2-.2.4-.5.7-.6 1.5-.3 3-.8 4.5-1.2m25.3-59.6c.6-.3 1.2-.5 1.4-.9.2-.2.1-.9-.2-1.2-1.1-1.2-2.6-1.9-4.3-2.1-.3 0-.8.3-.9.6s.2.7.4 1 .5.6.8.8c.9.7 1.9 1.2 2.8 1.8m-14.9 3c.1.2.3.4.4.6 2.4-.5 4.9-1 7.3-1.5.2 0 .3-.5.5-.8-.3-.2-.7-.6-1-.5l-6.3 1.8c-.3.1-.6.3-.9.4m29.4-.8c-.9.5-1.9.8-2.3 1.5-.8 1.5-1.4 3.2-2 4.8 3.2-.8 3.6-3.5 4.3-6.3m-7.6 8.8c3.2-1.4 3.6-4.4 4.6-7.1-.6.3-1.4.5-1.7 1.1-1 1.9-1.9 3.9-2.9 6m-1.4 45.9c-6.4-.4-12.6 1.6-18.9 2v.3c6.3-.8 12.6-1.6 18.9-2.3m-6.4-29.8c.1 0 .1.1.2.1.3-.3.8-.5.9-.9.9-2.2 1.8-4.5 2.8-6.9-.8.7-1.6 1.1-1.9 1.8-.8 1.9-1.3 3.9-2 5.9m5.5-9.5h-.1c-1 2.4-2 4.8-3 7.1.1 0 .2.1.3.1.8-1 2.1-1.5 2.3-3 .1-1.4.3-2.8.5-4.2m.1-1.3c.8 1.4-.3 2.8.2 4.1.7-1.7 1.4-3.5 2.2-5.2-.1 0-.2-.1-.2-.1-.8.4-1.5.8-2.2 1.2m-9.5 5c1.5-.5 3-1 3.7-2.7-1.6.4-3.4.5-3.7 2.7m10-6.3c1.8-.7 2.9-2.1 3.1-3.9-.4.5-.8.9-1.1 1.3-.2 0-.6 0-.7.1-.5.7-.8 1.5-1.3 2.5M20.4 53.9c-.6-.3-1.1-.5-1.7-.8l-1.2 2.7c1.6.3 2.1-1 2.9-1.9m-1.2-3.2c2.4-.3 3.2-2.2 4.1-3.9l-.2-.2c-1.3 1.3-2.6 2.7-3.9 4.1m101.1 42.5c1.9 0 2-1.5 2.6-2.8-.6.1-1.2.2-1.6.2-.4 1-.7 1.8-1 2.6M8.5 64.7c.7-1.8 1.3-3.3 1.9-4.7-1.2 1-1.8 2.3-2.3 3.7-.1.2.2.5.4 1m9.9-13.1c-1.1 1.7-2.2 3.2-3.3 4.8 1-.2 3.3-3.7 3.3-4.8M125 89.5c-1.5.6-1.9 1.4-1.6 2.6 1.2-.4 1.1-1.6 1.6-2.6m-42.7 45.6c1.1-.6 2.3.2 3.2-1-1.2-.2-2.4-.6-3.2 1M122.9 93c-1 .7-1 1.7-1.5 2.6 1.2-.4 1.5-1 1.5-2.6M21.7 50.4c.8.1 1.4.1 2.1.2-.3-.6-.5-1-.8-1.5zm83.1 82.1h-1.1c-.3.8-.6 1.5-.9 2.2.1 0 .1.1.2.1.5-.7 1.1-1.5 1.8-2.3m-1.6-.8c1.2-.3 2.3-.5 3.4-.7 0-.1 0-.2-.1-.3-1 .2-2 .3-3 .5-.1.1-.2.4-.3.5m2.7.9c0 .1 0 .2.1.3 1.1.3 1.5.2 2.2-.8-.8.1-1.6.3-2.3.5m-3.9 5.2c-2.9 0-3.1 0-3.9.7 1.4-.2 2.7-.4 3.9-.7m37-75.6h.4c.1-.8.1-1.7.2-2.5h-.3c-.2.8-.2 1.7-.3 2.5m-4.4-2.2c1.2-1 .1-1.7 0-2.4zm3.7-1.5c-.1 0-.3-.1-.4-.1-.1.8-.3 1.5-.4 2.3.1 0 .3 0 .4.1.1-.7.2-1.5.4-2.3m-2.6-5.6c-.1 0-.2.1-.3.1.2.8.4 1.7.6 2.5.1 0 .2-.1.3-.1-.3-.8-.4-1.7-.6-2.5M12.1 59.1c-.2-.1-.3-.1-.5-.2l-.6 1.8c.1 0 .3.1.4.1.3-.5.5-1.1.7-1.7m96.3 69.5c.1.1.1.3.2.4.6-.3 1.2-.6 1.9-1-.1-.1-.1-.2-.2-.4-.6.4-1.3.7-1.9 1m26-74.1c-.1 0-.3.1-.4.1.2.8.4 1.6.5 2.4.1 0 .2 0 .3-.1-.1-.8-.3-1.6-.4-2.4m-4.1-.6c.1 0 .2-.1.3-.1.2-.8-.5-1.1-1.2-1.5.3.5.6 1 .9 1.6M96.8 134c0 .1 0 .1.1.2 1.1-.4 2.1-.8 3.2-1.1 0-.1 0-.1-.1-.2-1.1.4-2.2.8-3.2 1.1"/><path fill="#000" d="M91.9 76.6c1.9.7 4 1.1 5.7 2.4.8.6.9 1.2.4 2.3.5.1 1 .3 1.5.4.6.2.9.6.7 1.2-.2.7-.8.7-1.4.6-.2 0-.4-.1-.5-.2-.4-.3-.8-.3-1.3.1-.6.5-1.3.4-2 0-.5-.3-1-.7-1.6 0 0 .1-.2.1-.3.1-2.5.2-5.1.4-7.6.5-5.3.2-10.6.4-15.8.3-6.6-.1-13.2-.5-19.8-.8-1.1 0-2.2-.1-3.3-.1-5.6.1-10.9-1.4-16.2-3-3.2-1-6.3-2.2-9.4-3.3-.5-.2-1.2-.3-1-1.3.7.2 1.4.3 2.1.5 5.6 1.4 11.1 3.1 16.8 4.3 3.4.7 6.8.9 10.3 1.1 8.6.4 17.2.5 25.7.9 6.1.3 12.1-.2 18.2-.5.4 0 .7-.1 1-.3.2-.2.5-.5.7-.6.4-.1.9-.1 1.3-.3.5-.2.9-.5 1.3-.8-.3-.4-.6-.8-1-1-1.1-.6-2.3-1.1-3.4-1.6-.4-.2-.9-.4-1.3-.7.1 0 .1-.1.2-.2M41.5 87.7c1 .1 2 .2 3.1.2 8 .2 16 .4 23.9.4 6.6 0 13.3-.2 19.9-.6 5.8-.4 11.6-1.2 17.3-1.7 1.1-.1 2.3 0 3.5.1.2 0 .3.4.5.6-.2.1-.4.4-.6.3-2.8-.3-5.2 1.1-7.9 1.2-1.8 0-3.6.1-5.4.2-2.2.2-4.4.6-6.6.8-2.3.1-4.5 0-6.8.1-4.2.1-8.5.2-12.7.2-3.6 0-7.2 0-10.7-.2-4.2-.2-8.3-.4-12.5-.7-1.6-.1-3.2-.5-4.9-.8-.1.1-.1 0-.1-.1m66.7-53.3c-1.1.4-2.1.8-3.2 1.1-.4.1-.7.3-1.1.3-.7 0-.9-.4-.6-1.1.4-.9.7-1.7 1-2.6-.1-.1-.2-.1-.3-.2-.7.8-1.3 1.7-2 2.5-1.4-.8-1-2.2-1.3-3.5-.4.7-.7 1.4-1.1 2.2-1.6-1.3-.9-3.6-2.2-5-.2 1.4-.5 2.8-.7 4.2-.1.3-.3.8-.6.9-.2.1-.7-.2-.9-.4-.5-.6-1.1-.9-1.9-.8-1 0-1.2-.5-.7-1.3.2-.3.4-.5.4-.8 0-.2-.1-.6-.2-.7-.4-.2-.8-.3-.9-.2-.8.8-1.9.7-2.9.9-.5.1-.9.3-1.5.4.1-1.1 1.5-2.1 1.1-3.4-.1-.1-.2-.1-.3-.2-.5.7-1.1 1.3-1.6 2-.2.3-.4.7-.7.9s-.6.3-.9.5c-.2-.4-.6-.8-.5-1.2.3-1.2 0-2-1.1-2.7-.5.8-1 1.5-1.5 2.3h-.3c-.1-1.1-.3-2.1-.4-3.4-1.2 1-.8 2.4-1.3 3.4-1.3-.4-1.5-2.1-2.7-2.5-.1.1-.2.2-.3.4.3.5.7 1 .9 1.6.1.2 0 .5 0 .7-.2-.1-.5-.1-.6-.2-.5-.7-1-1.4-1.4-2.2s-.9-1.5-1.9-1.5v-1.1c.1-.1.2-.1.3-.2.9.7 1.8 1.5 2.7 2.2.7-.9 1.1-.9 1.8.2.3.4.6.8.8 1.2.3-.8.5-1.5.9-2.2.2-.3.8-.7 1-.6.3.1.5.6.7 1 .1.2.2.5.3 1 .7-1 1.4-.9 2.3-.4.9.6 1 1.5 1 2.4.8-.6 1.5-1.3 2.3-1.8.3-.2.9-.3 1.1-.2.3.3.5.9.5 1.3s-.3.8-.5 1.4c.8-.2 1.6-.2 2.2-.5.7-.4 1.3-.4 1.9.1.7.5.6 1.1.4 1.8 0 .2-.1.4-.2.5.6.3 1.2.5 1.9.9.2-.6.4-1.3.7-2 .2-.5.4-1 .7-1.5.5-.8.9-.9 1.6-.2.6.7 1 1.5 1.6 2.4.3-.4.6-.8.9-1.3.1 0 .2.1.4.1.3 1 .6 1.9 1 2.9.3-.2.7-.5 1.2-.7 1-.4 1.5 0 1.5 1 0 .5-.1 1-.2 1.6.9.2 2.1-.5 3.4.3m2.1 87.1c5.5-4.4 9.4-9.9 12.6-16.1 0 .2 0 .3-.1.5-2.4 5.3-5.3 10.3-9.6 14.3-1.9 1.9-4.1 3.5-6.2 5.2-1.5 1.2-3 2.3-4.6 3.5-.2.2-.6.3-.8.3-1.3-.3-2.3.1-3 1.3 0 .1-.1.1-.3.2-1-1-1.9.4-3.1 0 1.5-1.2 3.3-1.3 4.6-2.3s2.3-2.3 3.4-3.5c.1.1.2.1.3.2-.6.8-1.1 1.5-1.7 2.3 1.2-.3 1.7-1.3 2.4-2.2s1.6-1.7 2.3-2.6c.7-.8 1.5-1.7 2.3-2.5-.2.5-.5.9-.7 1.4.1 0 .2.1.2.1 1.5-2.2 3-4.5 4.5-6.7h.2l-.3.9c-1.9 3.3-3.9 6.4-6.6 9.2.1.1.2.2.2.3.5-.4 1-.8 1.4-1.4 1.3-1.7 2.6-3.5 3.8-5.2.1-.1.3-.2.6-.2q-.75 1.35-1.8 3m10.5 17.8c-7.5.9-14.9 1.8-22.5 2.7.1-.3.2-.5.4-.9-.9.1-1.7.1-2.4.2-4.9.5-9.8.9-14.6 1.7-9.2 1.5-18.5 2.3-27.8 2.3-2.2 0-4.3.2-6.5.2-.3 0-.7-.1-1-.2v-.3c.5-.1 1-.2 1.4-.2 1.6 0 3.1-.1 4.7-.1 5.6.3 11-.4 16.6-.9 3.3-.3 6.6-.6 9.9-1 4.9-.6 9.7-1.3 14.5-2 1.1-.1 2.3-.1 3.4-.1 4.2-.2 8.3-.4 12.5-.7 3-.2 6.1-.5 9.1-.8.8-.1 1.5-.2 2.3-.2z"/><path fill="#000" d="m89.4 143.8 4.8-.6v-.3c-5.8.5-11.6 1.1-17.4 1.6 0-.1 0-.3-.1-.4.4-.1.7-.3 1.1-.3 5-.4 9.9-.8 14.9-1.1 2.4-.1 4.8.1 7.2-.1 1.9-.1 3.7-.5 5.6-.7 3.9-.4 7.7-.7 11.6-1.1 2.4-.2 4.9-.5 7.3-.8.8-.1 1.7 0 2.5 0 .3 0 .5.1.8.2v.3c-.3 0-.6.1-.9.1-6.3-.4-12.4.9-18.6 1.6-4.8.5-9.5 1-14.3 1.6-1.1.1-2.2.2-3.4.3h-1.1zm-46 2.9c.6-.1 1.2-.2 1.7-.2 5.3-.1 10.7-.2 16-.4 6.4-.2 12.8-.5 19.2-.7 1 0 2 0 2.9.1-2.7 1-34.1 1.9-39.8 1.2m12.5-24.3h-2.3c.6 1.2 1.1 2.5 1.8 3.6s1.5 2.1 2.4 3.2c-.5.8-.8.9-1.6.3-1.4-1-2.2-2.5-2.9-4-1.5-3.5-2.2-7.1-2.6-10.8-.2-1.6-.3-3.2-.5-4.8-.1-.5-.1-1.1-.1-1.7.1 0 .2-.1.4-.1.2.5.5 1.1.6 1.6.4 2.4.7 4.8 1.2 7.2.2 1.1.5 2.3.8 3.4.2.9.6 1.5 1.7 1.6.4 0 .9.2 1.3.3-.1 0-.2.1-.2.2m3.8 25.5c15.7-1 31.4-2 47.2-3-15.6 2.2-31.4 2.7-47.1 3.2-.1 0-.1-.1-.1-.2m34.1-30c-1.2 2.2-2.4 4.4-3.8 6.8 1.4-.6 2.8-.7 3.8-1.9 2.1-2.4 4-4.9 5.3-7.8-1.1 3.1-2.9 5.7-5 8.4 2.5-.2 4.6-1.1 6.1-3.2-1.3 1.9-2.4 3.9-5 4.2-1 .1-2.2.2-2.8 1.2 0 .1-.2.1-.2.1h-.3v-.6c-1.2.3-2.6.1-3.1 1.6-1-.7-2.7-.2-4 1 .3-.6.7-1.2 1-1.8.8-1.3 1.6-2.6 2.3-4 .3-.6.5-.6 1.1-.1-.9 1.3-1.7 2.7-2.6 4.1 1.4-.4 2.7-.6 3.4-2.2.9-1.9 2.2-3.6 3.3-5.5.1-.2.3-.3.4-.5.1.1.1.1.1.2M63.1 26.1c-.2 1.1.2 1.8.8 2.6.2.3.3.8.1 1-.3.6-.7.2-1.1-.1-.7-.6-1.4-1.2-2.1-1.7-.4-.2-1-.4-1.4-.2-.6.3-.3.9-.1 1.4.4.7 1 1.4 1.4 2.1.1.2 0 .6 0 1-.3 0-.7.1-.9-.1-.4-.2-.8-.6-1.2-.9-1.2-1-2.2-2.2-3.9-2.1 1.5-.9 2.7-.2 3.9.8-1-1.1.1-2 .2-3.1 1.3-.3 2.3.5 3.2 1.2l.3-1.8c.2-.8.8-1 1.4-.7s1.1.7 1.6 1.1c.5.5.9 1.1 1.5 1.9.6-1.4 1.1-2.5 1.6-3.7.1 0 .2.1.3.1-.4 1.4-.7 2.8-1.1 4.1 0 .1-.7.3-.8.2-.7-.6-1.4-1.1-1.9-1.9-.4-.7-.9-1.1-1.8-1.2m57.2 87.3c-.6-.3-.2-.7.1-1.1 1.3-1.6 2.7-3.1 4-4.7 3.4-3.9 5.5-8.6 7.4-13.4 1.7-4.2 3.3-8.5 5-12.7.1-.1.1-.3.2-.5 0 1.3-4.2 13.5-6.1 17.3-2.7 5.7-6.2 10.7-10.6 15.1M35.7 60.7c-1 0-1.8-.2-2.1-1.1s.2-1.5.9-2c2.2-1.5 4.6-2.4 7.3-2.9.7-.1 1.4-.1 1.7.7.3.7-.1 1.4-.7 1.7-2.1 1.2-4.3 2.4-6.4 3.5-.2.1-.6.1-.7.1m7.5-4.8c-.2-.1-.2-.2-.3-.2s-.3-.1-.4 0c-2.5.5-4.9 1.4-7 2.8-.2.1-.3.6-.4.8.3.1.7.4 1 .3 2.7-.6 4.9-2.1 7.1-3.7M79 64.6c2 .4 4.2 1.4 5.9 3.3.9 1.1.5 2.5-.7 3.2-2.8 1.7-7 .2-8.1-2.8-.9-2.2.2-3.7 2.9-3.7m2.8 6.1c.7-.2 1.4-.4 2.1-.7.7-.4.9-.9.3-1.6-1.2-1.4-2.6-2.5-4.4-2.8-.7-.1-1.6 0-2.3.3-1.1.4-1.2 1.3-.6 2.2 1.2 1.6 2.8 2.5 4.9 2.6m43.4 70.5c-13.4 2-26.8 3.3-40.2 4.6 0-.2 0-.4-.1-.5 13.4-1.6 26.9-2.6 40.3-4.1M76 42c1 .1 2 0 2.4 1.1.4 1-.4 1.7-1.1 2.3-1.7 1.2-3.7 1.9-5.8 2.1-.9.1-1.8-.2-2.2-1.1-.3-.8 0-1.8 1-2.5C72 42.6 74 42.2 76 42m-4.3 4.2c2.3-.2 4.2-.8 5.8-2.1.2-.2.4-.5.6-.8-.3-.2-.6-.4-.9-.5-.2-.1-.5-.1-.7-.1-1.7.5-3.3.9-5 1.5-.5.2-1 .6-.7 1.2.1.5.7.7.9.8m39.8 8.9c1.4-.3 2.6-.9 3.8-.2 1.9 1.1 3.7 2.3 5.4 3.5 1 .8 1.3 1.7.9 2.4-.3.7-1.3 1-2.5.7-1.6-.4-2.9-1.2-4-2.4-1.2-1.1-2.3-2.5-3.6-4m8.5 5.2c.1 0 .6-.1.6-.3.1-.3-.1-.7-.3-.9-.3-.4-.8-.8-1.2-1.2-1.3-1.1-2.7-2.1-4.4-2.4-.3 0-.7.1-.9.3-.1.1-.1.6.1.8 1.6 2 3.3 3.5 6.1 3.7m-15.1 57.9c.2-.5.2-1.1.5-1.5 1.7-3.5 3.4-7.1 5.1-10.6.4-.7.7-1.5 1-2.3-1.7 1.2-3.5 2.3-5.9 2 2.9-1.5 5.9-2.7 8.2-5.1l-8.4 17.7c-.2-.1-.4-.2-.5-.2M56.7 44.7c-.9 0-1.7 0-1.9-.8s.3-1.4.9-1.7c2.7-1.5 5.5-2.6 8.6-3 .4 0 .9.1 1.2.3.7.4.7.9.1 1.4-1.7 1.7-6.7 3.7-8.9 3.8m9-4.5c0-.1-.1-.3-.1-.4-.9.1-1.7.1-2.6.3-2.3.4-4.5 1.2-6.3 2.6-.2.1-.2.5-.3.8.3 0 .5.2.8.1 2.2-.7 4.4-1.3 6.5-2.1.6-.3 1.3-.8 2-1.3M48.9 59.6c-.2.2-.4.5-.6.7-.4.3-.8.6-1.1 1-.2.2-.2.5-.2.7.2.1.5.3.7.2 1.4-.5 2.9-.8 4.2-1.5 1.3-.8 2.5-1.9 3.7-2.9.2-.2.2-.6.3-.8-.3 0-.6-.1-.9 0-1.2.5-2.4 1.1-3.6 1.6-.1.1-.3.2-.3.3-.2.2-.3.5-.4.7-.3-.2-.6-.4-1.1-.8 1.9-1.2 3.6-2 5.5-2.5.7-.2 1.5.9 1.1 1.6-.2.4-.6.8-.9 1.2-1.9 1.8-4 3.3-6.4 4.3-1.4.6-2.4.4-2.9-.5s-.1-1.9 1.2-2.7c.5-.3 1-.5 1.5-.8zM38.4 72c-.7 0-1.4-.2-1.7-.9s-.1-1.4.4-2c1.7-1.8 3.9-2.9 6.2-3.6.7-.2 1.3.2 1.4 1 0 .3 0 .6-.1.8-.5 2.1-3.9 4.7-6.2 4.7m5.7-6c-2.2.9-4.3 1.7-5.9 3.3-.1.1-.2.2-.3.4-.1.3-.2.6-.1.8s.5.3.7.3c1.8 0 5-2.5 5.6-4.3zm18-3.7c-.7 0-1.6-.1-1.9-1s.2-1.6.9-2.1c1.9-1.5 4.2-2.4 6.5-3.1 1-.3 1.9.6 1.6 1.6-.1.2-.2.5-.3.7-1.2 2-4.4 3.9-6.8 3.9m-.2-.9c2.8-.4 5-1.6 6.7-3.6.2-.2.1-.5.2-.8-.3-.1-.6-.2-.9-.1-2.3.7-4.4 1.7-6.3 3.2-.2.2-.4.6-.4.8.1.3.5.4.7.5m44.4-12.3c-1.9-.5-3.8-.9-5.6-1.4-.7-.2-1.1-.7-1.1-1.5s.5-1.2 1.2-1.4c.4-.1.9-.3 1.4-.2 1.9.2 3.7.4 5.6.7.8.1 1.5.5 1.5 1.4s-.6 1.7-1.5 1.9c-.4.1-.9.2-1.4.3-.1.1-.1.2-.1.2m-2.4-3.9c-1 .2-1.9.3-2.8.5-.3.1-.5.4-.7.7.2.2.5.5.7.5 1.6.3 3.3.6 4.9.7.5.1 1.1-.2 1.7-.5.2-.1.4-.4.6-.7-.2-.2-.5-.6-.7-.6-1.3-.2-2.5-.4-3.7-.6"/><path fill="#000" d="M123.4 106.5c.1-.3 0-.8.2-1 1.3-2 2.8-3.8 3.9-5.9 1.7-3.5 3.2-7.2 4.7-10.8.6-1.3 1.1-2.6 1.8-3.9-1 3.9-2.4 7.6-3.9 11.4s-4.1 6.9-6.4 10.3c-.1-.1-.2-.1-.3-.1M113 137c1.8-.8 28.2-4.8 29.3-4.4-1 .6-22.2 3.8-29.3 4.4m-66.9 6.7c11.2-.9 22.4-1.4 33.6-1.2-11.1.9-22.4.7-33.6 1.2m40.6-85.8c-.3-.3-1-.6-1.1-1s.1-1.3.5-1.5c2-1.4 4.1-2.5 6.5-3 .7-.2 1.4.1 1.6.8.1.4-.2 1.1-.5 1.4-1.9 1.5-4.2 2.7-7 3.3m7.2-4.6c0-.1 0-.2-.1-.3-.5.1-1.1.1-1.6.3-1.5.6-3 1.3-4.5 1.9-.4.2-.7.5-1.1.8-.1.1-.2.4-.2.6 0 .1.3.2.5.1 2.8-.5 5.2-1.5 7-3.4M64.8 71.6c-.5-.1-1.2-.1-1.8-.4-1-.3-1.2-1.1-.4-1.9.3-.3.6-.5 1-.7 1.9-.9 3.9-1.5 5.9-1.6.7 0 1.3 0 1.6.7s.1 1.4-.4 1.9c-1 1.1-2.4 1.5-3.8 1.7-.7.2-1.3.2-2.1.3m-1.6-1.4c.2.2.3.2.3.3.1.1.2.1.3.1 2.1.2 4.1-.1 6-1.2.2-.1.4-.2.5-.4s.3-.6.3-.8c-.1-.2-.5-.4-.8-.4-.5 0-1.1 0-1.6.2-1.7.5-3.5 1-5 2.2m6.2-46.5c1.3.4 1.3.4 1.2 4.1.9-.4 1.3-1.5 2.4-1.4 0-.4.1-.9.1-1.4h.3c.2.4.4.9.6 1.2l1.8 2.1c.2.2.3.4.5.6-.3.1-.5.4-.8.4h-3.2c.1-.6.1-1.3.2-2.1-.1 0-.2-.1-.3-.1-.7.9-1.4 1.7-2.2 2.8-.2-.7-.4-1.1-.5-1.6 0-.7 0-1.4.1-2.2.1-.6.2-1.2-.3-1.8.1 0 .2-.3.1-.6m-18 49.7c-1.2 0-1.7-.7-1.3-1.5.1-.2.2-.4.3-.5 1.6-1.4 3.1-2.9 4.8-4.2 1-.8 2.1-.8 2.7-.3s.5 1.5-.2 2.7c-1.5 2.4-3.9 3.3-6.3 3.8m-.4-1c.1.1.1.2.2.2 1.5-.3 2.9-.7 4-1.7.9-.8 1.7-1.8 2.4-2.8.4-.5 0-1-.6-.9l-.9.3c-1.4 1.1-2.9 2.3-4.3 3.5-.4.5-.6 1-.8 1.4m51.6-9c-.2 1.3-1 2.5-2.2 3.3q-1.65.9-3.6 1.2c-1 .2-1.6-.7-1.2-1.7.1-.4.3-.8.6-1 1.3-1.5 2.9-2.5 4.8-3.2 1-.5 1.6-.1 1.6 1.4m-6.3 3.5c.3.1.4.2.5.1 2.1-.5 3.9-1.4 5-3.3.2-.3.1-.7.1-1-.3 0-.8-.1-1 .1-1.4 1-2.7 2-4 3.1-.3.2-.4.6-.6 1m-17.2 15c-1.8 0-2.4-.9-1.7-1.9 1.4-2 3.4-3.4 5.8-4.1 1.2-.4 2.2.7 1.7 2-.5 1.4-1.3 2.6-2.8 3.1-1.1.5-2.3.7-3 .9m-.3-.8c2.5-.3 4.3-1.4 5.6-3.3.2-.2.2-.8.1-.9-.2-.2-.7-.3-1-.2-2 .7-3.5 2.1-5 3.5-.1.1-.2.5-.2.7.1.1.4.1.5.2m26-41.4c1.7.3 3.2.5 4.8.8.4.1.9.3 1.3.6 1 .6.9 1.5-.1 2-1.3.7-2.7.6-4.1.5-1-.1-1.9-.2-2.9-.4-.4-.1-.9-.2-1.2-.4-1-.7-1-2.1.2-2.6.6-.3 1.4-.3 2-.5m3.3 3.5c.8-.2 1.5-.3 2.1-.6.3-.1.5-.4.7-.5-.2-.2-.4-.6-.7-.7-2-.7-4.1-1-6.3-.5-.4.1-.7.5-1 .7.3.3.6.7 1 .8 1.5.3 2.9.5 4.2.8m-31 33.5c-1.9-.3-3.9-1-5.5-2.4-.4-.3-.6-1.2-.5-1.8.1-.4.8-.7 1.3-.9.3-.1.8-.1 1.1 0 1.5.5 3.1 1 4.6 1.6.9.4 1.2 1.4.9 2.2-.1.8-.8 1.3-1.9 1.3m-3.4-4.8c0 .1-.1.1-.1.2-.4.1-.8.1-1.2.3-.8.4-.8 1.1-.1 1.5 1.4.9 3 1.5 4.7 1.4.4 0 1.1-.3 1.1-.6.1-.4-.2-1-.6-1.2-1.3-.6-2.6-1.1-3.8-1.6m56.3-2.2c-.1.9-.3 1.6-1.1 2s-1.5 0-2-.6c-1.2-1.5-2.1-3.2-2.3-5.1-.2-1.5.9-2.2 2.2-1.5 2 1.1 2.7 3.1 3.2 5.2m-4.9-4c.3.8.4 1.6.8 2.2.5.9 1.1 1.7 1.9 2.4.5.5 1.2.2 1.2-.5-.2-1.8-.8-3.5-2.2-4.8-.2-.2-.7-.3-1-.1-.3.1-.5.5-.7.8m-20-9c.5.1.9.1 1.1.3 1.4.8 2.8 1.7 4.1 2.6.3.2.5.5.7.8.4.7.4 1.3-.1 1.9s-1.2.6-1.8.2c-1.4-1.1-2.8-2.3-4.2-3.4-.2-.2-.4-.4-.5-.6-.2-.4-.4-.9-.7-1.3.5-.2 1-.4 1.4-.5m4.5 4.6c.6 0 .8-.3.4-.8-1.1-1.5-2.5-2.5-4.3-3.1-.5-.2-.9.3-.7.8.5 1.1 3.5 3.1 4.6 3.1M33.8 10.4c.2.2.5.3.7.6 1.8 2.7 3.6 5.4 5.3 8.2.7 1 1.2 2.1 1.8 3.2.1.2 0 .5.1.8-.2-.1-.6-.2-.7-.4-2-3.1-3.9-6.3-5.9-9.4-.5-.9-1-1.8-1.5-2.6 0-.2.1-.3.2-.4M18.3 74.1c-1.7 0-2.4-1.3-1.6-2.7 1.2-2 3.1-2.9 5.3-3.2 1.2-.2 1.8.7 1.5 1.9-.6 1.9-3.4 4.1-5.2 4m-.1-1c1.9-.4 3.7-1.3 4.8-3.2.4-.6.1-1-.6-1q-.75 0-1.5.3c-1.3.5-2.5 1.3-3.3 2.5-.6.8-.3 1.4.6 1.4m62.3-56c1.2-4.8 1.1-9.9 3.1-14.5-.1.8-.1 1.6-.2 2.4-.5 3.8-1.1 7.6-1.7 11.4-.1.6-.3 1.2-1.2.7M30.2 70.6c0 .1-.1.4-.2.7-.9 1.9-2.3 3.3-4.5 3.6-.4.1-1 0-1.4-.2-.7-.3-1-.8-.7-1.5.2-.4.4-.9.7-1.1 1.4-1 2.9-2 4.4-2.8 1.1-.5 1.7 0 1.7 1.3m-.5-.5c-.1-.1-.2-.2-.3-.2-1.7.7-3.4 1.5-4.6 3-.2.2-.2.7 0 .9.1.2.5.3.8.2 1.5-.4 2.7-1.1 3.6-2.4.2-.5.3-1 .5-1.5m16.5 3c-.4 1.9-1.3 3.6-3.1 4.6-.4.2-1 .3-1.5.2-.9-.1-1.4-.9-1-1.7q.6-1.2 1.5-2.1c.8-.8 1.7-1.4 2.6-2 .8-.6 1.5-.1 1.5 1m-.6-.8c-1.7.9-2.9 2-3.9 3.4-.1.2-.1.6 0 .8.2.2.6.3.8.2.4-.1.9-.4 1.2-.7 1-.9 1.6-2 1.9-3.7m-10.1 6.3c-.2 0-.6-.1-.9-.3-1.1-.8-2.2-1.5-3.2-2.4-.6-.6-.6-1.4-.1-2.1.4-.6 1.1-.7 1.8-.4 1.1.4 2.2.8 3.3 1.4.9.5 1.3 1.3 1.1 2.4-.3.9-.9 1.4-2 1.4m-3-4.7c-.2.1-.6.3-.6.5-.1.4 0 .9.2 1.2.8 1.1 1.9 1.6 3.2 1.7.3 0 .9-.2 1-.4.1-.3 0-.8-.2-1.1-.9-1.1-2.1-1.6-3.6-1.9m54.9-2.3c.4 0 .9-.1 1.3 0 .4.2.9.6 1 1.1.1.3-.4 1-.7 1.1-2 .4-3.9.7-5.9.9-.3 0-.8-.4-.9-.7-.1-.4.1-1.1.4-1.3.6-.4 1.3-.7 2-.9.9-.2 1.9-.1 2.8-.2m1.8 1.4c0-.1.1-.2.1-.3-.2-.1-.5-.4-.7-.4-1.6.2-3.1.5-4.7.8-.2 0-.3.3-.4.4.1.1.3.3.4.3 1.8.1 3.6-.1 5.3-.8M60.7 52.2c-.3-.1-.9-.3-1.3-.6-.7-.7-1.4-1.4-2-2.2-.5-.6-.7-1.5-.1-2 .5-.4 1.5-.8 2-.6 1.2.4 2.3 1.2 3.3 1.9.7.5.9 1.4.6 2.3-.5.9-1.3 1.2-2.5 1.2m.8-1.2c.8 0 1.1-.4.8-1.2-.6-1.3-1.8-2.1-3.1-2.5-.3-.1-.9.2-1.2.5-.2.2-.2.8 0 1.1.8 1.3 2 2 3.5 2.1m18.7 12c-.2-.1-1-.3-1.1-.7-.1-.5.1-1.2.5-1.6 1.5-1.4 3.4-1.9 5.5-1.9.4 0 1.1.5 1.2.9s-.2 1.1-.6 1.4c-1.5 1.3-3.3 1.7-5.5 1.9m6-2.9c-.4-.3-.5-.5-.7-.5-1-.3-4.5.7-5.2 1.6-.1.1-.2.5-.1.6.1.2.4.3.6.3 1-.2 2.1-.4 3.1-.7.7-.4 1.4-.9 2.3-1.3m11.4 1.8c-.6-.4-1.3-.6-1.7-1.1-.4-.7 0-1.5.6-2.1 1.2-1 2.5-1.8 4.1-1.8 1.3 0 1.9.9 1.4 2.2-.6 1.5-2.4 2.6-4.3 2.6 0 0-.1.1-.1.2m-.2-1.2c1.7-.2 3-.7 4-1.8.2-.2.3-.7.2-.9s-.5-.4-.7-.4c-1.6.1-2.9.7-3.9 1.9-.2.2-.3.7-.2.9 0 .2.5.2.6.3m-.3-19.8c.7.1 1.6.2 2.4.5.4.1.8.7.8 1.1 0 .3-.5.9-.9 1-1.9.7-3.8.8-5.7.1-.4-.1-1.1-.8-1-1.1.1-.5.6-1.1 1.1-1.2 1-.2 2-.2 3.3-.4m-3.2 1.2c.8 1.3 4.4 1.5 6 .4-.7-1-3.8-1.3-6-.4m-56.1 4.4H37c-.7-.1-1.4-.2-1.7-.9-.3-.8.2-1.5.9-1.9 1.5-1 3.1-1.2 4.8-.9.2 0 .4.1.6.2.6.2 1.3.5 1.4 1.3 0 .8-.5 1.4-1.2 1.6-1.3.3-2.6.5-3.8.8-.2-.1-.2-.1-.2-.2m.9-.6c.8-.2 1.8-.4 2.8-.7.3-.1.7-.6.7-.8 0-.3-.4-.7-.8-.8-1.6-.7-3.9-.2-5.1 1.1-.4.5-.2.8.2.9.7.1 1.3.1 2.2.3m24.2 31.6c-.8 0-1.5-.1-1.7-.9-.1-.5.2-1.3.6-1.7 1.2-1.2 2.7-1.8 4.3-1.9 1.1-.1 1.8.9 1.3 1.9-.9 1.9-2.6 2.4-4.5 2.6m0-.8c1.7-.3 3.1-.8 4.1-2.1.3-.4.4-1-.3-.9-1.6.1-3.1.7-4.2 1.9-.2.2-.2.6-.1.8-.1.2.3.2.5.3m25.9-38.1c-1.5 0-2.1-.8-1.4-1.8 1-1.6 2.4-2.5 4.3-2.8 1.3-.2 2 .9 1.4 2.1-1 1.8-2.8 2.2-4.3 2.5m-.1-.6c1-.5 2-.9 3-1.4.4-.2.7-.7.9-1.1.3-.6.1-1-.6-.9-1.6.3-2.9 1.1-3.8 2.4-.4.4-.2.8.5 1M49.4 95.4v5.3c.9.4 2.1 0 3 1.3-1-.1-1.8-.3-2.7-.4-.4 1.2.6 1.4 1.4 1.7-.5.6-.8.9-1.5.4-.5-.4-1.2-.5-1.9-.9h1.5c-.1-.4-.1-.8-.2-1.2-1.6.1-3.2.4-5-.5 1.8-.2 3.3-.3 5-.5.1-1.6.2-3.4.4-5.2m98.4-59.1c-1.6.3-3.2.6-4.7.9-1.9.4-3.9.7-5.8 1-.2 0-.5-.1-.7-.4 3.8-.7 7.3-2.7 11.2-1.8zM29.1 124.2c-5.1.4-10.1.8-15.1 1.2v-.2l2.4-.3c3.4-.5 6.9-1 10.3-1.6.9-.1 1.7-.1 2.4.9M6.4 24.7c1.4.9 2.8 1.7 4.1 2.6 2 1.3 3.9 2.8 5.8 4.2.2.2.3.5.4.8-4-1.8-7.1-4.8-10.5-7.3.1-.1.1-.2.2-.3m102.2 72.4c-.5 1.2-1 2.5-1.5 3.8.4-.1.7-.1.9-.2 0 .1.1.1.1.2l-.6.6c-.5.5-1 .9-1.3 1.5-1.1 2.1-2.1 4.3-3.1 6.4-.1.2-.3.4-.4.6-.1 0-.2-.1-.3-.1.1-.4.1-.8.3-1.2 1-2.1 2-4.2 3.1-6.4-.4 0-.7.1-1.2.2l.2-.4c1.7-.4 2.1-2 2.8-3.3.3-.5.5-1.1.8-1.7.1-.1.2-.1.2 0M5.4 21c3.2 2.5 6.4 5 9.6 7.4v.3c-.4 0-.9.1-1.2 0-.6-.3-1.2-.7-1.7-1.1-2.2-2-4.3-3.9-6.4-5.9-.1-.1-.3-.3-.4-.5 0-.1.1-.2.1-.2m24.9 94.7c-1.2-1-2.6-1.9-3.5-3.1-3.3-4.2-4.7-9.3-5.8-14.4 1.9 6.5 4 12.8 9.6 17.3-.1 0-.2.1-.3.2M69 79.9h-.4c-.5-.3-1-.6-1.5-1 .4-.4.6-1 1.1-1.3.7-.4 1.6-.7 2.4-.8.4-.1 1.1.3 1.3.6.2.4 0 1.2-.3 1.5-.7.5-1.6.8-2.5 1.2 0-.1-.1-.1-.1-.2m2.4-2.3c-1.4-.1-2.3.5-3.4 1.1 1.2.6 2.5.2 3.4-1.1m14.2 39.3c-1.4 4.6-3.4 9.2-5.9 13.5h-.3c0-.3-.1-.6 0-.8 2-4.3 4.2-8.6 6.2-12.7M47.8 4.2c1.6 3.8 3.3 7.7 4.9 11.5-.1 0-.2.1-.3.1-2.5-3.4-3.5-7.5-4.9-11.4.1-.1.2-.1.3-.2m77.7 80.3c-2.2 1-4.3 2-6.6 2.8-.8.3-1.8-.1-2.7-.2v-.3c3-.9 6.1-1.8 9.1-2.7.1.2.1.3.2.4M19.9 65.3c-.7-.1-1.4-.3-1.6-1.1s.4-1.2 1-1.4c.7-.3 1.4-.6 2.1-.7.4-.1 1.1.1 1.3.3.2.3.2 1 0 1.4-.5 1.1-1.6 1.4-2.8 1.5m2.3-2.4c-.8-.2-2.6.6-3.2 1.4 1.2.6 2.8-.1 3.2-1.4m98.4.2c1.5.1 2.1.4 2 1.5 0 .3-.2.8-.4 1-1 .7-2.3 1-3.5.6-.4-.1-.9-.7-.9-1 0-.5.3-1.2.7-1.5.5-.4 1.3-.4 2.1-.6m.2.6c-.8.2-1.4.4-2 .6-.2.1-.3.5-.4.8.2.1.5.3.7.3.6 0 1.1 0 1.7-.2.5-.2.9-.5 1.3-.8-.4-.3-.8-.5-1.3-.7m-15.4 30.1c0 .2.1.4.1.6-1 3.7-2.7 7.1-4.5 10.5h-.2c.1-.4 0-.8.2-1.1.6-1.5 1.4-3 2-4.6.8-1.8 1.5-3.6 2.2-5.4zm14-81.6c.7.5.6.9.1 1.4-1.6 1.5-3.1 3-4.6 4.5-.2.2-.4.3-.7.4 1.2-2.5 3.1-4.5 5.2-6.3M80.5 33.6c-.7-.2-1.5-.2-1.6-1-.2-.8.5-1.2 1.1-1.4.7-.2 1.5-.4 2.2-.4.4 0 1 .3 1 .6.1.4-.1 1.1-.4 1.3-.6.4-1.5.6-2.3.9m2.4-1.8c0-.1-.1-.2-.1-.4-.8.3-1.6.5-2.4.8 0 .1.1.2.1.4.9.1 1.7-.3 2.4-.8m-47.2 90.4c3.3 4.4 8.1 6.8 12.9 9.5-2.6.4-11.6-6.4-12.9-9.5M141.9 11.5c-1.7 1.1-3.4 2.2-5.2 3.4-.2-.3-.4-.6-.6-1 1.6-1.1 3.2-2.2 4.9-3.2.2-.1.7.3 1.1.4-.1.2-.2.3-.2.4M125.1 27c.8-.3 1.7-.5 2.4-.9 1.6-.9 3.2-2 4.8-3 .3-.2.6-.3 1-.3-1.8 1.5-3.6 3.1-5.5 4.5-1 .6-1.8.4-2.7-.3M74.4 133.8c-.6-.8.3-10 1.1-10.9-.8 3.6 0 7.3-1.1 10.9m-65.3 2.8c.6-.6 15.1-3.2 16.5-3.1-5.2 1-10.8 2.2-16.4 3.3-.1 0-.1-.1-.1-.2M31.6 17.3c-.3 0-.7.1-.8 0-1.6-1.8-3.2-3.6-4.7-5.6 1.9 1.7 4.2 3.1 5.6 5.3-.1.1-.1.2-.1.3m.3 122.7c-3.2.7-10.5 1.3-12.3.5 4.2-.2 8.3-.4 12.3-.5m-9.7-14.5c1.8-.2 3.5-.5 5.3-.7.4-.1.8-.1 1.2-.2 1-.4 1.7.1 2.7.9-3.2.1-6.2.2-9.1.3-.1-.1-.1-.2-.1-.3m4.3-71.3c.3 0 .5-.2.8-.1 2.3.5 3.7-.1 5-2.1.6-.9 1.3-1.8 2.7-2.2-1.4 1.5-2.6 2.9-3.9 4.2-1 1-2.3 1.3-3.6.7-.3-.1-.6-.2-.9-.2-.1-.1-.1-.2-.1-.3m51.1 47.6c0 .2-.1.5-.1.7-.7 2.5-1.5 5.1-1.3 7.7 0 .2-.2.4-.4.5-.2-.1-.5-.3-.5-.4q-.15-.9 0-1.8c.6-2.2 1.2-4.4 1.8-6.5 0-.1.2-.3.3-.4.1.2.2.2.2.2m27.8-31.5c-1.4 1.7-4.3 2.1-6.2 1 1.9-.9 4-.5 6.2-1m-67.2 74.9c2.1-.3 4.1-.7 6.2-.9.5-.1 1.1-.4 1.4.5-2.5.8-5.1 1-7.6.4m12-144.1c.2.2.4.3.5.5.3 1.5.7 2.9 1 4.4-.8.2-1.3.2-1.4-.8-.1-1.4-.3-2.7-.4-4.1.1.1.2 0 .3 0M83.9 49c.6.1.8.4.5 1q-.6 1.2-1.8 1.2c-.6 0-1.2-.2-1.8-.1-.9 0-1.7.2-2.6.3-.3 0-.5-.1-.8-.1.2-.2.3-.6.5-.6.5-.1 1.1-.1 1.7-.1s1.2.1 1.8.1c1.7 0 1.8-.1 2.5-1.7m-5.1 42.2c1.2 2.4.3 3.4-1 8 .4-2.6.7-5.2 1-8m12.6-41.3c.6-.2 1.3-.6 1.9-.7 1.6-.1 2.7-.7 3.3-2.3.1-.3.6-.5.9-.7l.2.2c-.4.8-.8 1.6-1.3 2.4s-1.3.8-2.1.9l-2.7.3c-.1-.1-.1-.1-.2-.1M32.8 88c.2 2 .5 4 .7 6-1.2-.4-1.7-4.2-1-6zm73.3-2.5c3.5-1.1 5.5-1.2 6.5-.4-.4.5-5.5.8-6.5.4m-29 63.5c-.1.8-.5 1-1.1 1-1.3-.1-2.7-.2-4-.3-.2 0-.4-.2-.6-.3.1-.1.2-.3.3-.3 1.9-.1 3.6-.1 5.4-.1m7.5-95.3c-.3 1.1-1 1.5-2 1.7-.7.1-1.4 0-2.1.2-.9.2-1.9.5-2.9.8 0-.1.1-.5.3-.6.9-.3 1.7-.7 2.7-.8 1.2-.2 2.5 0 3.2-1.3 0-.1.4 0 .8 0M54.2 95.4v8.9c-1.4-2.9-.4-5.9-.5-8.8.2-.1.4-.1.5-.1m1.1-21c0 1.2-.4 1.7-1.1 2s-1.4.4-2 .7c-.7.3-1.3.7-2 1-.2.1-.5.1-.8.1.1-.3.1-.7.3-.8.4-.3 1-.4 1.5-.6.8-.3 1.6-.4 2.3-.8.4-.2.7-.7 1-1.1.2-.1.4-.2.8-.5m60-9.6c-1.5 1.2-3.2 1.2-5 1 1.6-.8 3.2-1.5 5-1M54.8 79.9c.3-.3.6-.7 1-.9.6-.3 1.3-.5 1.9-.6.9-.2 1.6-.7 1.8-1.7.1-.2.4-.4.7-.8.1 1.8-.6 2.7-2 3-.6.1-1.2.2-1.7.4s-1 .5-1.5.8c-.1-.1-.1-.2-.2-.2M60.4 93v7.3c-1.1-2.4-.5-4.8 0-7.3M90 66.8c.1-.2.1-.6.3-.7.2-.2.6-.4.9-.5 1.1-.3 1.7-.9 1.9-2 0-.2.3-.3.5-.4.1.2.3.5.3.7-.2.9-.8 1.5-1.6 1.9-.7.3-1.4.7-2.1 1zm-49.2 36c-.8-2-.9-4.5 0-7.3zM50 68c.6-.3 1.1-.6 1.8-1v.5c-1.8 2-1.9 2-3.3-.4-.1-.2-.3-.5-.5-.8 1.5-.3 1.3 1.3 2 1.7m37.4.6c-.5.1-.8-.3-.7-.9.1-1 .3-2 .5-2.9 0-.1.4-.2.5-.3.1.2.3.5.2.7-.2 1.1-.3 2.2-.5 3.4m4.2-9.1c.1 1.3-.1 1.6-1.1 2-.6.2-1.1.6-1.7.9-.2.1-.4 0-.6.1 0-.2 0-.4.1-.6s.3-.3.5-.4c.7-.5 1.3-1.1 2-1.6.2-.2.5-.3.8-.4m5.9-47.4c1.1-2.7 2.3-5.4 3.4-8.1.1.1.3.1.4.2-1.2 2.7-2.3 5.4-3.5 8-.1 0-.2 0-.3-.1M64.1 117.8c0 .8-.1 1.6 0 2.5.1.8.3 1.7.4 2.5 0 .3 0 .6-.2.9-1.8-1.9-.4-3.9-.5-5.9zM30.5 64.1c-.6.9-1 2.1-1.8 2.5s-2 .1-3 .1v-.5c.5 0 1-.2 1.4-.1 1.5.3 1.8.2 2.4-1.3.1-.3.2-.6.3-.8.1-.1.3-.2.5-.3 0 .2.1.3.2.4m91.7 2.3c.6.7.5 1.9-.2 2.7-.6.7-1.8.9-3 .4.7-.2 1.7-.3 2.2-.8s.6-1.4 1-2.3m-27.1 41.2c.3.6-.7 4-1.8 5.4-.1-.4-.4-.7-.3-.8.7-1.6 1.4-3.1 2.1-4.6M57 35.7c-1.3.3-2.7.3-3.1 1.9-.6-.9-.4-1.4.3-2 1-.7 2.2-.7 2.8.1m-.1 28.2-1.8 1.2c-.7.5-1.3.6-2.1.3-.5-.2-1.1-.2-1.8-.4.5-.1 1.1-.4 1.4-.3 1.1.4 1.9 0 2.7-.5.4-.3.9-.4 1.4-.6.2.1.2.2.2.3m12.4 29.7c-.1 2-.3 4-.4 5.9 0 .2-.3.4-.4.7-.2-.2-.3-.4-.5-.7v-.2c.3-1.9.8-3.8 1.3-5.7m-2.6-41.9c.5.8.2 1.3-.2 1.6s-1 .5-1.5.6c-1.4.3-2.8.4-4.2.6.6-.2 1.3-.5 1.9-.7q.9-.3 1.8-.3c1-.1 1.9-.4 2.2-1.8M85 42.9c1.5-.5 2.8-1.9 4.7-1.2.2.1.4.4.6.5-.3 0-.5.1-.8.1-.8.1-1.7.1-2.5.2-.7.1-1.3.3-2 .5.1 0 .1-.1 0-.1m-58 80c-2.8.2-5.7.4-8.4.6.8-.6 4.5-1 8.4-.9zm71.6-24c.5-1.8 1.1-3.6 1.6-5.5.6 1.1.1 3.1-1.4 5.5zm29.7-39.8c.5.5.9 2.7.6 3.1-.1.2-.3.4-.5.3-.2 0-.5-.2-.5-.4-.3-1-.2-2 .4-3M44.7 38.5c1.8-1.1 3.9-2.2 5-.7-1.7.2-3.4.4-5 .7M123.4 62c.8-.5 1.6-1 2.5-1.5.3.4.2 1.2-.4 1.8q-1.05.9-2.1-.3M20.1 132.8c-1 .4-1.9.9-3 1.1-1.5.4-3 .5-4.5.7-.3 0-.7-.1-1-.3 1.2-.1 2.5-.2 3.7-.4 1.6-.2 3.2-.6 4.8-1.1m112.2-64.6c.6-.2 1.2-.5 1.8-.5.3 0 .6.3 1 .5-.2.3-.3.7-.6.9-.8.4-1.6 0-2.2-.9M31.5 113.6c-.9-1.4-1.9-2.9-2.3-4.7-.1-.3.1-.6.2-.9.2.2.4.5.5.7.6 1.7 1.1 3.3 1.6 4.9m62.1-93.7c-.6-1.9 1.3-2.8 1.9-4.2.1 0 .2.1.3.1L94 20c-.2.1-.3 0-.4-.1M71.3 54.8c.1-1.5 2.2-3 3.7-2.6-1.2.8-2.4 1.7-3.7 2.6m-10.2 94.8c2.5-.2 5-.3 7.5-.5.1.1.1.3.2.4-.3.2-.6.6-.8.5-2.1-.7-4.2-.4-6.3-.1h-.5c-.1-.1-.1-.2-.1-.3m42.8-83.8c1.7 0 3.1-.6 3.9-2.3.6.8.1 1.3-.3 1.7-1 1.1-2.3 1-3.6.6m3.2 8c-.2.9-1 1.3-1.8.8-.7-.5-1.3-.7-2.1-.2-.2.1-.4 0-.6-.1.9-.5 1.7-1 2.8-.4.3.1 1-.1 1.7-.1m23.1-9.1c.7.4 1.4.7 2.1 1.1.3.2.6.4.8.7 0 .1-.2.5-.3.5-.4 0-.9 0-1.1-.2-.6-.6-1.1-1.4-1.7-2.1zm-17.8-15.8c1.5-.2 2.8-.6 3.1-2.3.6.4.7.7.4 1.2-.4.9-1.1 1.3-2.1 1.3h-1.4zm-104.7 9c-.4 1.5-.8 3.1-1.3 4.7-.8-1.3-.2-3.1 1.3-4.7M52.3 8.6c.3 1.1.7 2.2 1.1 3.3q-.45.15-1.2.3c-.1-1.2-.2-2.4-.3-3.5.2 0 .3-.1.4-.1m-7.9 104.7c-.2-1.7-.4-3.3-.6-5h.4c.7 1.6.5 3.3.7 5zm41.7-77.9c-1.4.3-2.9.6-4.2.8 1.2-1.5 3.7-2 4.2-.8m13.4 112.2c-1.6.3-3.3.6-4.9.9-.1 0-.3-.2-.4-.3.1-.1.3-.4.4-.4 1.6-.2 3.3-.4 4.9-.5zm-72.2-40.8c-1.2-1.5-1.4-3.4-1.4-5.3.1.4.2.9.3 1.3.4 1 .9 2 1.3 3.1.1.3.1.6.2.9zm34.5-40.6c1.6 0 2.4-.7 2.8-2.2 0-.1.3-.2.4-.4.1.2.2.4.2.6-.4 2-1.5 2.6-3.4 2m49.3-7.9c-.4 0-.7.1-.9 0-.8-.5-1.5-1.2-2.3-1.7 1.1-.4 2.5.3 3.2 1.7M85.9 98.8c-.5 2.4-1.1 4.7-1.6 7.1-.2-2.5.9-4.8 1.4-7.1 0-.1.1-.1.2 0M26.5 62.9c1.3-.5 2.8-1.1 4.1-1.6-2 2.2-3 2.5-4.1 1.6m13.4 50.9c-1.5-1.7-2.7-6-2.6-8.6.3 1.3.6 2.8 1 4.3.4 1.4 1 2.8 1.6 4.3m84.7-58.6c.1-.3.1-.5.2-.8.3.1.5.2.8.4l-1.9 1.9c-.4.3-.6.1-.7-.3-.2-.8.3-1.2 1.6-1.2m-18.5 21.1c1.3-.4 2.6-.8 3.9-1.3 0 .1.1.2.1.4-1.1 1.1-2.6 1.2-4 .9m-38.4 26.6c-.5 3.2-1.1 6.4-1.6 9.4-.3-1.2.5-5.8 1.6-9.4m24 5.3c.6-1.8 1.1-3.5 1.8-5.3.2-.5.5-.8 1-.2-1.7 1.5-1.9 3.6-2.4 5.6-.2 0-.3-.1-.4-.1M80.9 38.5c.6.9 1.2 1.8 1.8 2.8-1.3 0-2.1-1.2-1.8-2.8m-6.2 23.9c-1.4.3-2.8.3-3.4 1.8-.1-.1-.2-.1-.3-.2.1-.4.2-1 .5-1.3.5-.6 1.9-.8 3.2-.3M50.2 51.7c1 .3 1.9.5 2.8.8.1 0 .2.3.3.5-.2.1-.5.3-.6.3L50 52.1c.1-.2.2-.3.2-.4M95.7 57c.6-.8 1.1-1.6 1.6-2.4.9 1.2.3 2-1.6 2.4m1.1-17.2h-4.1v-.2c1.1-.2 2.2-1 3.5-.4.2.1.4.4.6.6m6.9 14.5c.9-.3 1.9-.7 2.8-1 .2-.1.6.3.8.5-.3.1-.6.2-.9.2-.9.2-1.8.3-2.7.5.1-.1.1-.1 0-.2M68.4 33.2c1.4-.6 2.5-.4 3.4.6-1.3.2-2.3-.2-3.4-.6m-15.6 93.1c-.5 0-.9.1-.9 0-.5-.9-.9-1.8-1.3-2.7.1-.1.3-.1.4-.2.5.9 1 1.8 1.8 2.9m62.7 18.3h-5.8c1.9-.1 3.8-.3 5.8-.4zm-72.3-29.4c.8 1.7 1.5 3.3 2.3 5-1-.6-2.2-3.4-2.3-5m48.7-43c-.2-.1-.6-.2-.6-.3v-2.3c0-.1.3-.1.4-.2.1.2.2.3.2.5.1.7 0 1.4 0 2.3m-45.8 2.5c1-.1 2.1-.1 3.1-.2.2 0 .4.2.6.3-.2.1-.4.4-.6.4-1 0-2.1-.1-3.1-.2zm31.3-40c-.9.1-1.8.2-2.6.3-.9.1-1.7.4-2.6.4 1.6-.6 3.3-1.3 5.2-.7m38.5 15.5c1.2.2 2 .7 2.6 1.5.1.1.1.4.1.6-.2 0-.5 0-.6-.2-.7-.5-1.3-1.1-2.1-1.9m-69.1-4.7c1.4-1.1 2.7-1.1 4-.3-1.2.1-2.5.2-4 .3m62.5 24.1h4.2c-.8.5-3.1.6-4.2 0m-59.8 55.9c-.7.8-1.3.3-2.1-1.5.5-.2.8 0 2.1 1.5M49 56.1c.1-.2.1-.5.2-.7l1.2-1.8c.1-.1.3-.1.5-.2 0 .2.1.4 0 .5-.5.8-1.1 1.5-1.6 2.2q-.15.15-.3 0m77.8 67.8c2.5-.2 5-.5 7.4-.7v.3l-7.5.6c.2-.1.1-.1.1-.2m-32.7-55c.3.8.5 1.3.7 1.8 0 .2-.1.4-.2.6-.2-.1-.5-.1-.6-.3-.6-.6-.5-1.2.1-2.1M33 48.8c-1.4.2-2.7.5-4.1.7 1-1 2.7-1.3 4.1-.7m17.2-7.5c-1.7.4-3.2.8-4.7 1.2.3-.9 2.2-1.4 4.7-1.2m44.4 56.1c-.2 1.2-.5 2.3-.7 3.4-.9-.2-.7-1.7.7-3.4M15.1 63.1c-.2-1.7.8-2.4 2.9-1.9-1.2.2-2.4.5-2.9 1.9m93.7-12.8c1.1.6 2 1.1 3 1.6-1.3.4-2.3-.2-3-1.6M37 52.6c-1.2.8-2.5 1.6-3.7 2.4 0-.9 2.1-2.3 3.7-2.4m53-6.4c-1.5.4-3 .7-4.4 1.1.3-.9 2.4-1.5 4.4-1.1M35.3 64.4c1.1-.4 2.4-.9 3.6-1.3-1.5 1.5-2.7 1.9-3.6 1.3m65.8 12.9c-1.3 0-2-.9-2.7-1.9 1 .5 1.9 1.1 2.9 1.6-.1.1-.2.2-.2.3M95 73.8c-.4-.4-.9-.7-1.2-1.2-.1-.2.1-.6.1-.9.2.1.6.2.7.4.3.4.4.9.6 1.4-.1.1-.2.2-.2.3m-3.8 38.3c-.5 1.1-.8 2-1.2 2.9-.9-.6-.6-1.4 1.2-2.9m17.7 34.6-6 .6v-.3c2-.2 4-.3 6-.5.1 0 .1.1 0 .2m4.3-54.2c0-.6-.1-1.2-.1-1.9 0-.2.3-.4.4-.6.1.2.3.4.3.6 0 .6-.2 1.2-.3 1.7 0 .2-.1.2-.3.2m-45.6-58c-1.5.1-3 .3-4.5.4v-.3c1.5-.1 3-.3 4.5-.4zM19 66.9c-.9.9-2.3.9-3 0zm40.9-30c-.6.3-1.1.6-1.6.8-.2.1-.5.1-.6 0s-.1-.4 0-.5c.5-.6 1.6-.7 2.2-.3m6.4 8.7c-1.3.1-2.5.2-3.7.2 1.1-.8 2.5-.9 3.7-.2m.5 72.3c.5 1.3.1 2.5-.4 3.7v-1.9c0-.6.1-1.2.1-1.8zm32.1-36.5c1-1 2-.9 2.4.2-.8-.1-1.5-.1-2.4-.2m.6-43.8c1 .2 2 .4 3.1.6-.5.7-2 .4-3.1-.6M50 122.2c-.2-.1-.4-.2-.5-.3-.3-.6-.5-1.3-.8-1.9 0-.1.1-.3.1-.5.1.1.3.1.4.3.3.7.6 1.5.9 2.2 0 .1 0 .2-.1.2M114.3 84l2.1-.7c.1 0 .3.1.3.2.1.1 0 .2 0 .3-.2.4-1.8.6-2.4.2m-17.7 8.1c-.2 1.1-.4 2.1-.6 3.2h-.7c.4-1.2.8-2.2 1.1-3.3 0 .1.1.1.2.1M74.1 38.2c1 .1 2 .2 2.8.9 0 .1-.1.3-.1.4-.9-.3-1.8-.6-2.8-1 .1-.1.1-.2.1-.3M56.4 72.9c1.2-.1 2.4-.2 3.5-.3v.4c-1.2.1-2.4.2-3.5.3zm-1-24.6c-1 .3-1.9.1-2.6-.7.8-.3 2 .1 2.6.7m68.8 23.8c.8.5 1.6 1 2.5 1.5-.1.1-.2.3-.3.4-1-.3-1.6-1.1-2.4-1.7.1 0 .2-.1.2-.2m-58.9-35c1.3-.1 2.5-.2 3.8-.3v.3c-1.3.1-2.5.2-3.8.3zM79 40.4c-.5-.8-1.1-1.6-1.7-2.5 1.2.3 1.9 1.3 1.7 2.5M11.2 70.2c0-1.1 1-1.8 2.4-1.6-.8.5-1.6 1.1-2.4 1.6m44.6 46.2c.3 1.2.7 2.7 1.1 4.3-1.4-1.3-1.2-3-1.1-4.3m16.7-57.1c1.1-1 2.5-1.1 3.9-1-1.3.3-2.6.7-3.9 1m22.9 12.8c.6.8 1 1.3 1.5 2-.3.1-.5.2-.7.2-.8-.4-1.1-1.1-.8-2.2M68.2 61.7c1.1-.5 2.2-.9 3.2-1.4 0 .1.1.2.1.4-1.1.5-2.2.9-3.2 1.4.1-.2 0-.3-.1-.4m-33.7 52.2c-.8-1.8-1.7-3.5-2.5-5.3.1 0 .1-.1.2-.1.8 1.8 1.7 3.5 2.5 5.3-.1 0-.1 0-.2.1m-7.1-96.2c1.1.1 2 .4 2.4 1.5-.1.1-.1.2-.2.2-.7-.6-1.5-1.1-2.2-1.7m79.4 32.2c-1.3.2-2.5.5-3.8.7 0-.1 0-.2-.1-.3 1.3-.3 2.5-.5 3.8-.8.1.2.1.3.1.4M54.5 39.2c.8-.3 1.5-.7 2.3.2-.9.1-1.6.6-2.3-.2M121 56c-.7-.5-1.3-1-2.1-1.5 1.5 0 2.3.5 2.1 1.5M71 40.4c-1 .2-2 .3-3.1.5.7-.9 2.2-1.1 3.1-.5m-53.6 86.1c-1.5.2-3.1.3-4.6.5v-.2c1.5-.2 3.1-.4 4.6-.6zm.2 1.4c-1.8.7-3.6 1.4-5.3 1.2 1.5-.4 3.1-.8 4.8-1.3.2 0 .3.1.5.1m-1.8 12.2c.9.2 1.6.3 2.4.5-1.2.7-2.2.6-2.4-.5m45.3-16.7c-.3.1-.6.3-.6.2-.5-.6-.9-1.2-1.3-1.7l.3-.3c.4.5.9 1 1.6 1.8M133 13.5c-.3.4-.6.6-.9.9-.2-.2-.5-.5-.5-.6.1-.3.4-.6.6-.9.3.2.5.4.8.6M124 70c.9.1 1.6.5 2 1.2-.1.1-.1.2-.2.3-.7-.4-1.3-.9-2-1.3.1-.1.2-.1.2-.2M16.2 72.1h-2c.7-1 1.3-.9 2 0m28.2-20.5c1-.6 2-1.1 3.3-.5-1.2.2-2.3.4-3.3.5m-14 4.1h3v.2h-3zm69.9-1.4c-1-.3-1.9-.6-2.8-.9.9-.4 2-.1 2.8.9m-24.3 58c-.8 1.4-1.7 2.8-2.5 4.2-.1 0-.1-.1-.2-.1.9-1.4 1.7-2.8 2.6-4.2zm-39.1-.8 1.5 3.6c-.1 0-.2.1-.3.1-.5-1.2-1-2.4-1.6-3.6.2-.1.3-.1.4-.1m49.3-32.8h1.6c.2 0 .3.3.5.4-.2.1-.4.4-.5.4-.6-.1-1.1-.4-1.6-.6zm-58.1 23.6c.2 1.1.4 2.2.7 3.6-.7-1.3-1.1-2.4-.7-3.6m76.3-41c.7.4 1.4.7 2.3 1.2-1 .4-1.6 0-2.3-1.2M22 125.9c-.8.1-1.4.2-2.1.3.7-1.2 1-1.2 2.1-.3m78.2-75c-1.1.1-2.3.2-3.4.3v-.3c1.1-.1 2.3-.2 3.4-.3zM30.3 102c-.1-1.4-.3-2.9-.4-4.3h.2c.1 1.4.3 2.9.4 4.3zm56.9-10.8c0 .6-.1 1.3-.1 1.9h-.4v-1.9zm-67.1-32c1-.1 2-.1 3-.2v.3l-3 .3zM14 66.4c.8-.2 1.4-.4 2.2-.5-.9 1.1-1.3 1.2-2.2.5m5.8-18.3c-.7.8-1.4 1.7-2.1 2.5-.1-.1-.2-.1-.3-.2.7-.8 1.5-1.6 2.2-2.4.1 0 .2.1.2.1M143 127.5c-.9.2-1.7.4-2.4.5.4-.8 1.1-1 2.4-.5m-95.5-14c.1.2.1.3.2.5.1.7.1 1.4.2 2.1h-.3c-.1-.9-.2-1.7-.3-2.6zm73-64c.6.4 1.1.9 1.7 1.3-.1.1-.2.3-.3.4-.5-.5-1-.9-1.6-1.4 0-.1.1-.2.2-.3M24.8 95.3c.1 1.1.2 2.3.3 3.4h-.2c-.1-1.1-.2-2.3-.3-3.4zm-6 .7c-.3-.5-.7-1.1-1-1.6.1-.1.3-.2.4-.2.3.6.6 1.1.9 1.7-.1 0-.2.1-.3.1M8 132.4c-.6 0-1.1.1-1.7.1.5-.6 1-.6 1.7-.1m89.6-7.5c-.4.6-.8 1.3-1.2 1.9-.1 0-.1-.1-.2-.1.3-.7.7-1.3 1-2 .1 0 .2.1.4.2M46.9 79.3c-.4 0-.8-.1-1.2-.1 0-.2.1-.5.1-.5.4 0 .8.1 1.2.2 0 .1 0 .2-.1.4M47.1 0c.2.6.3 1.2.5 1.8-.8-.2-.9-.6-.5-1.8M20.5 120.8c-.7.1-1.3.2-2 .3v-.3c.7-.1 1.3-.2 2-.3zm62.2-52.6c.2.3.5.6.5 1 0 .2-.4.4-.6.6-.2-.3-.4-.6-.5-.9 0-.2.2-.5.3-.7z"/></svg>