<svg xmlns="http://www.w3.org/2000/svg" width="150" height="150" fill="none" viewBox="0 0 150 150"><path fill="orange" d="M107.241 58.491c-28.93-6.343-5.215-46.465-44.853-43.14s-77.227 94.6-6.856 115.972 106.641-60.79 51.709-72.832"/><path fill="#fff" d="M40.547 65.889c0 5.42 4.394 9.8 9.8 9.8h46.728a2.55 2.55 0 0 1 2.549 2.548v34.38a2.55 2.55 0 0 1-2.549 2.549H57.026c-9.111 0-16.48-7.383-16.48-16.48V64.79"/><path fill="#151B28" d="M97.09 116.528H57.026c-9.843 0-17.841-7.998-17.841-17.842V64.79c0-.747.6-1.362 1.362-1.362s1.362.6 1.362 1.362v1.113c0 4.658 3.794 8.453 8.452 8.453H97.09a3.904 3.904 0 0 1 3.896 3.896v34.38a3.903 3.903 0 0 1-3.896 3.896M41.91 73.184v25.502c0 8.35 6.781 15.132 15.131 15.132H97.09a1.18 1.18 0 0 0 1.186-1.186v-34.38c0-.66-.527-1.187-1.186-1.187H50.36a11.16 11.16 0 0 1-8.452-3.881"/><path fill="#151B28" d="M97.09 116.528H57.026c-9.843 0-17.841-7.998-17.841-17.842V65.494c0-5.947 4.848-10.796 10.795-10.796h46.832c.747 0 1.362.6 1.362 1.363 0 .761-.6 1.362-1.363 1.362h-46.83c-4.454 0-8.087 3.633-8.087 8.086v.395c0 4.658 3.794 8.453 8.453 8.453h46.728a3.904 3.904 0 0 1 3.897 3.896v34.38a3.9 3.9 0 0 1-.292 1.49 3.87 3.87 0 0 1-2.101 2.109 3.9 3.9 0 0 1-1.49.297M41.91 73.184v25.502c0 8.35 6.781 15.132 15.131 15.132H97.09a1.18 1.18 0 0 0 1.186-1.186v-34.38c0-.66-.527-1.187-1.186-1.187H50.36a11.16 11.16 0 0 1-8.452-3.881"/><path fill="#2AEFC8" d="M86.323 75.732h-29.97V46.92a2.7 2.7 0 0 1 2.695-2.695h24.565a2.7 2.7 0 0 1 2.696 2.695v28.813z"/><path fill="#151B28" d="M86.323 76.978h-29.97a1.245 1.245 0 0 1-1.246-1.246V46.92a3.95 3.95 0 0 1 3.94-3.94h24.566a3.95 3.95 0 0 1 3.94 3.94v28.813a1.22 1.22 0 0 1-1.23 1.246m-28.725-2.49h27.495v-27.57a1.47 1.47 0 0 0-1.465-1.464h-24.58a1.47 1.47 0 0 0-1.465 1.465v27.568z"/><path fill="#fff" d="M61.846 45.073h6.577v29.78h-6.577z"/><path fill="#151B28" d="M68.423 75.542h-6.577a.703.703 0 0 1-.703-.703V45.073c0-.38.307-.703.703-.703h6.577c.38 0 .703.308.703.703v29.78a.7.7 0 0 1-.703.689m-5.874-1.392h5.185V45.762H62.55zm10.928-26.074h2.27v6.226h-2.27zm0 8.482h2.27v15.307h-2.27zm5.947-8.482h2.27v23.79h-2.27z"/><path fill="orange" d="M101.675 86.25H76.392c-3.765 0-7.12 2.754-7.471 6.49-.41 4.291 2.959 7.909 7.163 7.909h25.591c.849 0 1.523-.688 1.523-1.523V87.773c0-.834-.674-1.523-1.523-1.523"/><path fill="#151B28" d="M101.675 101.968H76.084a8.53 8.53 0 0 1-6.299-2.783 8.53 8.53 0 0 1-2.168-6.563c.41-4.307 4.263-7.676 8.79-7.676h25.282a2.844 2.844 0 0 1 2.842 2.842v11.353a2.863 2.863 0 0 1-2.856 2.827m-25.283-14.4c-3.18 0-5.89 2.33-6.167 5.303a5.8 5.8 0 0 0 1.508 4.541 5.9 5.9 0 0 0 4.366 1.934h25.59c.118 0 .22-.103.22-.22V87.773a.225.225 0 0 0-.22-.22z"/><path fill="#fff" d="M73.315 93.457a3.34 3.34 0 1 0 6.68 0 3.34 3.34 0 0 0-6.68 0"/></svg>