<svg xmlns="http://www.w3.org/2000/svg" width="800" height="800" fill="none" viewBox="0 0 800 800"><path fill="orange" d="M571.953 311.953C417.656 278.125 544.141 64.141 332.734 81.875S-79.14 586.406 296.172 700.391s568.75-324.219 275.781-388.438"/><path fill="#fff" d="M467.031 629.922a7 7 0 0 1-3.047-.703l-21.484-9.922a7.25 7.25 0 0 1-3.906-8.516l7.343-26.406-16.093 22.578a7.27 7.27 0 0 1-8.985 2.344l-16.015-7.422a7.34 7.34 0 0 1-4.219-6.563l-.078-13.984-11.328 8.906c-1.329 1.016-2.891 1.563-4.454 1.563a7 7 0 0 1-3.046-.703l-98.829-45.86a7.23 7.23 0 0 1-3.984-8.359l11.797-45.547-25 39.063a7.35 7.35 0 0 1-6.094 3.359q-1.523 0-3.047-.703l-37.109-17.188a7.32 7.32 0 0 1-3.835-4.369 7.3 7.3 0 0 1-.322-2.951c.096-.995.394-1.96.876-2.836L315.156 330a7.22 7.22 0 0 1 9.375-2.969l214.922 99.766c3.437 1.562 5.078 5.547 3.75 9.062l-69.609 189.375a7.44 7.44 0 0 1-4.063 4.219c-.625.313-1.562.469-2.5.469"/><path fill="#151B28" d="m321.641 333.594 214.922 99.765-69.61 189.375-21.484-9.921 10.859-38.985a4.92 4.92 0 0 0-2.567-5.745 4.9 4.9 0 0 0-2.198-.505c-1.563 0-3.047.703-4.063 2.11l-23.594 33.124-16.015-7.421-.078-15.782a6.04 6.04 0 0 0-3.438-6.171c-.781-.391-1.64-.547-2.5-.547-1.328 0-2.656.468-3.75 1.25l-13.359 10.547-98.828-45.86 14.453-55.625c.703-2.578-.625-5.312-3.047-6.484-.781-.313-1.563-.547-2.344-.547-1.875 0-3.672.937-4.687 2.578l-30.625 47.891-37.11-17.188zm.078-14.532c-5.078 0-10 2.657-12.656 7.344l-98.985 175.781c-1.953 3.516-2.422 7.735-1.172 11.563s4.063 7.031 7.657 8.672l37.109 17.187c1.953.938 4.063 1.329 6.094 1.329 4.844 0 9.453-2.422 12.187-6.719l.469-.703-.391 1.484c-1.718 6.797 1.563 13.828 7.891 16.797l98.828 45.859c1.953.938 4.063 1.328 6.094 1.328 3.047 0 6.094-1.015 8.672-2.89.312 5.312 3.515 10 8.359 12.265l16.016 7.422c1.953.938 4.062 1.328 6.094 1.328 2.578 0 5.078-.703 7.343-1.953.782 4.532 3.75 8.594 8.203 10.703l21.485 9.922c1.953.86 3.984 1.328 6.094 1.328 1.875 0 3.75-.39 5.546-1.093a14.6 14.6 0 0 0 8.047-8.36l69.532-189.375c2.578-7.109-.625-14.922-7.5-18.125l-214.922-99.765c-2.032-.86-4.063-1.329-6.094-1.329"/><path fill="#2AEFC8" d="m528.828 454.453-185.703-86.172c-5.937-2.734-13.047-.469-16.25 5.235l-82.187 146.015 15.078 7.031 30.625-47.89c1.484-2.344 4.531-3.203 7.031-2.031 2.422 1.171 3.75 3.828 3.047 6.484l-11.641 44.922 12.5-19.453c1.484-2.344 4.531-3.203 7.031-2.032 2.422 1.172 3.75 3.829 3.047 6.485l-8.672 33.594 82.188 38.125 13.359-10.547c1.797-1.407 4.219-1.719 6.25-.703a6.04 6.04 0 0 1 3.438 6.171l.078 15.782 16.015 7.422 23.594-33.125a4.92 4.92 0 0 1 6.094-1.641c2.187 1.016 3.359 3.516 2.656 5.781l-10.859 38.985 2.578 1.171 10.391-14.531a4.92 4.92 0 0 1 6.093-1.64c2.188 1.015 3.36 3.515 2.657 5.781l-4.766 17.031 4.453 2.031z"/><path fill="#fff" d="M562.5 405.312q-2.813 0-5.39-1.171L330.469 298.906a12.92 12.92 0 0 1-6.25-17.109l17.812-38.359a5.2 5.2 0 0 1 2.94-2.739 5.22 5.22 0 0 1 4.014.16c.078 0 .078.078.156.078 20.625 9.61 42.344 14.844 61.016 14.844 17.89 0 31.484-4.765 38.281-13.359.39-.781.703-1.485 1.094-2.266.39-.859.859-1.64 1.25-2.5l2.265-4.687.938-1.953a307 307 0 0 0 5.781-13.047c2.578-6.094 4.844-11.953 6.719-17.266a65.8 65.8 0 0 1 4.609-15.234c.078-.235.156-.469.234-.625l.313-.625c9.609-20.625 28.906-34.453 48.047-34.453q8.555 0 16.172 3.515c11.172 5.156 19.14 15.391 22.421 28.672 3.204 12.891 1.563 27.188-4.531 40.391l-.312.625c-.078.234-.235.39-.313.625a63.2 63.2 0 0 1-8.672 13.359c-2.812 4.844-5.781 10.313-8.828 16.328a312 312 0 0 0-6.172 12.813l-.937 2.031-2.11 4.688c-.39.859-.703 1.64-1.093 2.499-.313.782-.703 1.563-1.016 2.344-4.609 22.891 23.906 55.703 65.234 74.844 1.25.625 2.266 1.641 2.735 2.969s.469 2.812-.156 4.062l-17.891 38.36c-2.109 4.531-6.719 7.421-11.719 7.421"/><path fill="#151B28" d="M519.609 155.078c4.766 0 9.454.938 13.907 3.047 20 9.297 26.797 37.031 15.234 62.031l-.312.625s-.078.078-.078.156c-2.344 4.844-5.157 9.141-8.438 12.969a384 384 0 0 0-15.547 29.922l-.937 2.031-2.11 4.766c-.781 1.875-1.562 3.594-2.344 5.391-5.625 25.39 23.126 60.39 68.126 81.328l-17.813 38.359a7.55 7.55 0 0 1-2.795 3.197 7.55 7.55 0 0 1-4.08 1.178c-1.094 0-2.109-.234-3.203-.703L445.86 346.797 332.5 294.219a7.577 7.577 0 0 1-3.672-10l17.813-38.36c22.187 10.313 44.453 15.391 63.203 15.391 19.297 0 34.844-5.312 42.812-15.781.86-1.719 1.719-3.516 2.657-5.313l2.265-4.687.938-2.032a366 366 0 0 0 5.859-13.203 321 321 0 0 0 7.031-17.968c.86-4.922 2.266-9.922 4.453-14.766v-.156l.313-.625c9.219-19.61 26.719-31.641 43.437-31.641m0-10.625c-10.546 0-21.171 3.594-30.703 10.391-9.375 6.719-17.031 16.094-22.187 27.187l-.313.625c-.156.313-.312.625-.39.938a70.6 70.6 0 0 0-4.766 15.781c-1.797 5.078-3.984 10.625-6.484 16.563a550 550 0 0 1-5.703 12.812l-.938 1.953-2.187 4.61c-.391.859-.86 1.64-1.25 2.499-.313.547-.547 1.172-.86 1.719-5.859 6.953-18.125 10.938-33.828 10.938-17.89 0-38.828-5.078-58.75-14.375-1.406-.625-2.969-1.016-4.453-1.016a10.62 10.62 0 0 0-9.609 6.094l-17.813 38.359c-4.219 9.063-.234 19.922 8.828 24.141l113.36 52.578 113.359 52.578c2.422 1.094 5 1.719 7.656 1.719 7.031 0 13.516-4.141 16.485-10.547l17.812-38.359c1.172-2.578 1.328-5.469.313-8.125-.938-2.657-2.969-4.766-5.547-6.016-20.235-9.375-37.735-22.187-49.297-36.094-9.844-11.797-14.531-23.515-13.047-32.343.234-.547.547-1.172.781-1.719.391-.86.703-1.719 1.094-2.578l2.109-4.61.938-1.953c1.875-4.062 3.906-8.203 6.094-12.656 2.89-5.703 5.781-10.938 8.437-15.625a67.4 67.4 0 0 0 8.906-13.828l.469-.938.313-.625c6.64-14.219 8.359-29.843 4.921-43.906-3.671-14.922-12.656-26.328-25.312-32.187-5.781-2.657-11.953-3.985-18.438-3.985"/><path fill="#fff" d="M562.5 407.266c-2.187 0-4.219-.469-6.25-1.407L329.61 300.625a14.76 14.76 0 0 1-7.188-19.609l17.813-38.36a7.25 7.25 0 0 1 9.375-3.672c.078 0 .156.078.234.078 20.391 9.454 41.797 14.688 60.156 14.688 16.953 0 30.235-4.531 36.641-12.422.312-.703.703-1.406 1.015-2.031.391-.86.86-1.641 1.25-2.5l2.188-4.609.937-2.032c1.875-4.14 3.829-8.359 5.782-12.969 2.5-6.015 4.765-11.718 6.64-16.953.938-5.234 2.5-10.468 4.688-15.39.078-.235.156-.547.312-.781l.313-.625c10-21.641 29.609-35.626 49.844-35.626a40.6 40.6 0 0 1 16.953 3.672c11.718 5.469 20 16.094 23.437 29.922 3.281 13.281 1.641 28.125-4.687 41.641l-.313.625c-.078.234-.234.469-.39.703-2.422 4.844-5.313 9.375-8.75 13.516-2.735 4.765-5.704 10.156-8.672 16.093-2.266 4.453-4.297 8.594-6.172 12.735l-.938 2.031-2.109 4.687c-.391.86-1.719 3.985-2.031 4.688-3.672 19.453 19.14 51.641 64.219 72.5 1.718.781 3.124 2.266 3.749 4.062s.547 3.829-.234 5.547l-17.812 38.36c-2.344 5.312-7.579 8.672-13.36 8.672"/><path fill="#151B28" d="M519.609 155.078c4.766 0 9.453.938 13.907 3.047 20 9.297 26.796 37.031 15.234 62.031l-.313.625s-.078.078-.078.156c-2.343 4.844-5.156 9.141-8.437 12.969a384 384 0 0 0-15.547 29.922l-.938 2.031-2.109 4.766c-.781 1.875-1.562 3.594-2.344 5.391-5.625 25.39 23.125 60.39 68.125 81.328l-17.812 38.359a7.54 7.54 0 0 1-6.875 4.375c-1.094 0-2.11-.234-3.203-.703l-113.36-52.578L332.5 294.219a7.58 7.58 0 0 1-3.672-10l17.813-38.36c22.187 10.313 44.453 15.391 63.203 15.391 19.297 0 34.844-5.312 42.812-15.781.86-1.719 1.719-3.516 2.656-5.313l2.266-4.687.938-2.032a366 366 0 0 0 5.859-13.203 321 321 0 0 0 7.031-17.968c.86-4.922 2.266-9.922 4.453-14.766v-.156l.313-.625c9.219-19.61 26.719-31.641 43.437-31.641m0-14.453c-11.328 0-22.734 3.828-32.968 11.094-9.922 7.109-18.047 17.031-23.438 28.672l-.312.625-.469 1.171a74.3 74.3 0 0 0-4.922 16.172 373 373 0 0 1-11.953 28.828l-.938 1.954-2.187 4.531c-.391.859-.86 1.64-1.25 2.5-.235.39-.391.859-.625 1.25-5.234 5.781-16.485 9.219-30.547 9.219-17.344 0-37.656-5-57.109-13.985-1.954-.937-4.063-1.328-6.172-1.328-1.641 0-3.36.313-4.922.86-3.594 1.328-6.563 3.984-8.203 7.499l-17.813 38.36c-5.078 11.015-.312 24.14 10.703 29.297l113.36 52.578L553.203 412.5a22.16 22.16 0 0 0 29.297-10.703l17.812-38.359a14.4 14.4 0 0 0 .462-11.096 14.4 14.4 0 0 0-7.571-8.123c-39.453-18.36-62.578-47.422-60.234-63.907.156-.468.39-.859.547-1.328.39-.859.703-1.718 1.093-2.5l2.032-4.531.937-1.953a301 301 0 0 1 6.094-12.5c2.812-5.547 5.547-10.625 8.203-15.156a73.5 73.5 0 0 0 9.141-14.219 7 7 0 0 0 .546-1.094l.313-.625c6.953-15.078 8.828-31.562 5.156-46.406-3.906-15.859-13.906-28.516-27.422-34.766-6.25-3.125-12.968-4.609-20-4.609"/><path fill="orange" d="M520.625 327.031c-14.453-18.047-21.094-37.422-17.344-54.531l.313-1.484 3.047-7.11 3.125-6.953c2.187-4.687 4.375-9.141 6.562-13.516 3.36-6.562 6.563-12.5 9.609-17.734l.704-1.25.937-1.094c2.422-2.812 4.453-6.015 6.094-9.297l.859-1.796c7.031-16.25 3.516-34.141-7.89-39.454-11.485-5.312-27.422 3.594-35.235 19.532l-.703 1.562a44.7 44.7 0 0 0-3.281 10.86l-.235 1.406-.468 1.328c-2.032 5.781-4.532 12.109-7.344 18.906a470 470 0 0 1-6.094 13.672l-1.015 2.188-2.344 4.921-3.281 6.719-.938 1.172c-10.625 13.984-29.765 21.406-52.891 22.031z"/><path fill="#fff" d="M519.062 209.453c-2.89 0-5.781-.625-8.437-1.875-9.688-4.531-14.141-15.781-9.766-25.078 2.969-6.484 9.688-10.625 17.032-10.625 2.89 0 5.781.625 8.437 1.875 4.687 2.187 8.281 5.938 10.078 10.625 1.875 4.766 1.797 9.922-.312 14.531a18.94 18.94 0 0 1-17.032 10.547"/><path fill="#151B28" d="M517.891 177.109c2.031 0 4.218.469 6.25 1.407 7.109 3.281 10.312 11.406 7.187 18.047-2.187 4.765-7.031 7.578-12.266 7.578-2.031 0-4.218-.469-6.25-1.407-7.109-3.281-10.312-11.406-7.187-18.047 2.187-4.765 7.031-7.578 12.266-7.578"/><path fill="#2AEFC8" d="m350.525 293.841 8.552-18.424 203.093 94.272-8.552 18.424z"/><path fill="#151B28" d="m359.062 268.047 203.047 94.297-8.593 18.437-202.969-94.297zm0-8.594a8.76 8.76 0 0 0-7.812 5l-8.594 18.438c-2.031 4.297-.156 9.453 4.219 11.484L550 388.594a8.52 8.52 0 0 0 6.562.234c2.11-.781 3.907-2.422 4.844-4.453L570 365.937c2.031-4.296.156-9.453-4.219-11.484l-203.047-94.219c-1.172-.546-2.422-.781-3.672-.781M420 526.172q-1.524 0-3.047-.703a7.25 7.25 0 0 1-3.516-9.61l32.657-70.312c1.718-3.594 6.015-5.235 9.609-3.516s5.234 6.016 3.516 9.61l-32.657 70.312a7.16 7.16 0 0 1-6.562 4.219m-69.688-32.344q-1.523 0-3.046-.703a7.25 7.25 0 0 1-3.516-9.609l12.5-26.875c1.719-3.594 6.016-5.235 9.609-3.516s5.235 6.016 3.516 9.609l-12.5 26.875a7.16 7.16 0 0 1-6.563 4.219"/></svg>