<svg xmlns="http://www.w3.org/2000/svg" width="800" height="800" fill="none" viewBox="0 0 800 800"><path fill="orange" d="M571.953 311.953C417.656 278.125 544.141 64.141 332.734 81.875S-79.14 586.406 296.172 700.391s568.75-324.219 275.781-388.438"/><path fill="#fff" d="M543.36 608.984c-4.454 0-8.829-.625-13.204-1.796l-314.062-87.813c-12.578-3.516-22.969-11.719-29.375-23.047a48.43 48.43 0 0 1-4.453-37.109L233.047 277.5A48.94 48.94 0 0 1 280 242.031c4.453 0 8.828.625 13.203 1.797l103.672 28.985c.235.078.469.078.781.078.938 0 1.797-.469 2.266-1.25l16.641-24.61c5.859-8.672 15.625-13.828 26.093-13.828 2.891 0 5.782.391 8.594 1.172l91.719 25.703a31.28 31.28 0 0 1 23.047 28.75l1.484 29.375c.078 1.25.86 2.266 2.031 2.578l37.657 10.547c12.578 3.516 22.968 11.719 29.375 23.047a48.44 48.44 0 0 1 4.453 37.109l-50.781 181.719c-5.782 21.094-25.079 35.781-46.875 35.781"/><path fill="#151B28" d="M442.578 239.063c2.344 0 4.687.312 7.031 1.015l91.797 25.625a25.68 25.68 0 0 1 18.828 23.438l1.485 29.453a8.59 8.59 0 0 0 6.25 7.89l37.656 10.547A42.995 42.995 0 0 1 635.469 390l-50.86 181.719a43.02 43.02 0 0 1-41.406 31.406c-3.828 0-7.734-.547-11.641-1.562L217.5 513.75a42.99 42.99 0 0 1-29.844-52.969l50.859-181.718c5.391-18.907 22.579-31.25 41.329-31.25 3.828 0 7.734.546 11.64 1.562l103.672 28.984c.781.235 1.563.313 2.344.313 2.812 0 5.547-1.406 7.109-3.828l16.641-24.531c4.922-7.188 12.89-11.25 21.328-11.25m0-11.641c-12.422 0-23.906 6.094-30.859 16.406l-15.391 22.813-101.484-28.36c-4.844-1.328-9.766-2.031-14.766-2.031a55 55 0 0 0-32.656 10.859c-9.688 7.188-16.563 17.188-19.922 28.829v.078l-50.86 181.718c-8.125 28.985 8.907 59.219 37.891 67.344l314.063 87.813c4.843 1.328 9.765 2.031 14.765 2.031 24.375 0 46.016-16.406 52.578-39.922l50.782-181.719c3.906-14.062 2.187-28.828-5-41.484-7.188-12.734-18.829-21.875-32.891-25.781l-35.547-9.922-1.406-27.266a37.19 37.19 0 0 0-27.344-34.062l-91.797-25.703a30.7 30.7 0 0 0-10.156-1.641"/><path fill="#2AEFC8" d="M535.938 285.313c2.265.625 3.828 2.578 3.906 4.921l1.484 29.375c.313 12.657 8.828 23.594 21.016 27.032L600 357.188a22.64 22.64 0 0 1 15.703 27.89l-50.781 181.719c-3.594 11.719-15.938 18.437-27.735 15.078l-314.062-87.812a22.64 22.64 0 0 1-15.703-27.891l50.859-181.719a22.556 22.556 0 0 1 27.813-15.469l103.672 28.985c12.187 3.359 25.156-1.563 31.953-12.188l16.406-23.984c1.25-1.953 3.672-2.813 5.859-2.188z"/><path fill="#000" d="M466.875 355.078c43.906 12.266 69.531 57.813 57.266 101.719s-57.813 69.531-101.719 57.266-69.531-57.813-57.266-101.719c12.422-43.828 57.813-69.375 101.719-57.266m5.469-19.609c-54.766-15.313-111.563 16.64-126.797 71.406-15.313 54.766 16.641 111.563 71.406 126.797 54.766 15.312 111.563-16.641 126.797-71.406 15.234-54.688-16.719-111.407-71.406-126.797"/><path fill="orange" d="M453.203 400.937a39.367 39.367 0 0 1 27.383 48.477 39.366 39.366 0 0 1-48.477 27.383 39.404 39.404 0 0 1-27.499-48.36 39.44 39.44 0 0 1 18.595-23.824 39.46 39.46 0 0 1 29.998-3.676"/><path fill="#000" d="M443.828 496.797c-22.578 0-43.516-12.188-54.687-32.344a62.25 62.25 0 0 1 5.937-69.375c15.938-19.844 42.031-28.125 66.406-20.937 32.813 9.609 51.953 44.218 42.657 77.109-6.954 24.531-27.735 42.187-53.047 45.156-2.422.235-4.844.391-7.266.391m0-106.25c-13.047 0-25.547 5.859-33.984 16.406a43.44 43.44 0 0 0-4.141 48.359c8.594 15.547 25.547 24.297 43.203 22.266a43.32 43.32 0 0 0 36.953-31.484c6.485-22.969-6.875-47.032-29.687-53.75-4.063-1.25-8.203-1.797-12.344-1.797m-99.141-147.891-39.218-11.015c-5.391-1.485-8.594-7.11-7.032-12.579 1.485-5.39 7.11-8.593 12.579-7.031l39.218 11.016c5.391 1.484 8.594 7.109 7.032 12.578-1.485 5.391-7.11 8.516-12.579 7.031m-21.64 77.5-39.219-11.015c-5.391-1.485-8.594-7.11-7.031-12.579 1.484-5.39 7.109-8.593 12.578-7.109l39.219 11.016c5.39 1.484 8.593 7.109 7.031 12.578s-7.188 8.672-12.578 7.109"/></svg>