<svg xmlns="http://www.w3.org/2000/svg" width="800" height="800" fill="none" viewBox="0 0 800 800"><path fill="orange" d="M570.235 309.844C415.625 277.813 539.531 62.5 328.516 82.734 117.5 102.97-77.187 591.72 299.141 701.172s564.531-330.547 271.094-391.328"/><path fill="orange" d="M522.734 609.219c-2.187 0-4.375-.313-6.484-.86l-247.734-68.906c-12.813-3.594-20.313-16.875-16.719-29.609l22.969-82.578a7.105 7.105 0 0 1 6.718-5.157q.938 0 1.875.235c.625.156 1.329.312 1.954.312a7.27 7.27 0 0 0 7.031-5.39 7.34 7.34 0 0 0-.662-5.584 7.34 7.34 0 0 0-4.416-3.479 6.95 6.95 0 0 1-4.205-3.292 6.97 6.97 0 0 1-.639-5.302l23.906-85.546c1.953-7.11 6.25-13.516 12.109-17.969l60.079-58.125a23.98 23.98 0 0 1 16.718-6.797c2.188 0 4.375.312 6.485.859l203.515 56.641c12.813 3.516 20.313 16.875 16.719 29.609l-45.391 163.125a7.11 7.11 0 0 1-6.718 5.156q-.937 0-1.875-.234c-.625-.156-1.328-.312-1.953-.312a7.26 7.26 0 0 0-7.032 5.39c-.547 1.875-.312 3.906.704 5.547 1.015 1.641 2.499 2.969 4.453 3.438 3.75 1.015 5.859 4.922 4.843 8.593l-22.968 82.579c-2.969 10.39-12.5 17.656-23.282 17.656"/><path fill="#151B28" d="M395.235 238.125c1.562 0 3.046.234 4.609.625l203.516 56.641a17.1 17.1 0 0 1 11.875 21.015l-45.391 163.125c-1.25-.39-2.578-.547-3.828-.547-6.25 0-12.031 4.141-13.828 10.469-2.11 7.656 2.343 15.547 10 17.656l-22.969 82.578c-2.109 7.579-8.984 12.5-16.406 12.5-1.485 0-3.047-.234-4.61-.624l-247.734-68.907a17.1 17.1 0 0 1-11.875-21.015l22.969-82.578c1.25.39 2.578.546 3.828.546 6.25 0 12.031-4.14 13.828-10.468 2.109-7.657-2.344-15.547-10-17.657l23.828-85.546c1.641-5.782 5.078-10.938 9.922-14.532l60.391-58.437c3.281-3.125 7.5-4.844 11.875-4.844m0-13.984c-8.125 0-15.782 3.125-21.563 8.75l-59.766 57.89a41.14 41.14 0 0 0-14.218 21.328l-23.907 85.625c-1.015 3.594-.546 7.422 1.329 10.625 1.796 3.204 4.843 5.625 8.437 6.563q.352.117.234.469c-.078.234-.312.234-.312.234h-.078c-1.25-.312-2.5-.547-3.75-.547-6.094 0-11.719 4.063-13.438 10.235l-22.968 82.578c-4.61 16.484 5.078 33.593 21.562 38.203L514.531 615a30.4 30.4 0 0 0 8.36 1.172c13.906 0 26.172-9.375 29.922-22.735l22.812-82.499c1.016-3.594.547-7.422-1.328-10.625-1.797-3.204-4.844-5.625-8.437-6.563q-.352-.117-.235-.469c.078-.234.313-.234.313-.234h.078c1.25.312 2.5.547 3.75.547 2.422 0 4.765-.625 6.875-1.797 3.203-1.797 5.625-4.844 6.562-8.438l45.391-163.125c4.609-16.484-5.078-33.593-21.563-38.203l-203.515-56.64c-2.656-.86-5.469-1.25-8.281-1.25"/><path fill="#fff" d="M518.828 608.672c-1.328 0-2.734-.078-4.063-.313l-293.437-44.765a27.03 27.03 0 0 1-17.62-10.696 27.03 27.03 0 0 1-4.958-20.007l14.922-97.813a7.207 7.207 0 0 1 8.203-6.094c.469.079.937.079 1.406.079 4.609 0 8.516-3.36 9.141-7.891.39-2.5-.235-4.922-1.719-6.953s-3.672-3.281-6.094-3.672c-3.984-.625-6.64-4.297-6.094-8.281l15.469-101.328c1.25-8.282 5.235-16.016 11.172-21.797l60.859-75a26.88 26.88 0 0 1 25-9.688l241.094 36.797a27.03 27.03 0 0 1 22.578 30.703l-29.531 193.203a7.5 7.5 0 0 1-2.891 4.766 7.07 7.07 0 0 1-4.296 1.406c-.391 0-.704 0-1.094-.078-.469-.078-.938-.078-1.406-.078-4.61 0-8.516 3.359-9.141 7.891-.391 2.5.234 4.921 1.719 6.953 1.484 2.031 3.672 3.281 6.093 3.672a7.5 7.5 0 0 1 4.766 2.89 7.06 7.06 0 0 1 1.328 5.391l-14.922 97.812c-1.875 13.125-13.281 22.891-26.484 22.891"/><path fill="#151B28" d="M327.109 201.484c1.016 0 1.953.079 2.969.235l241.094 36.797c10.781 1.64 18.125 11.718 16.484 22.422l-29.531 193.203c-.859-.157-1.719-.157-2.5-.157a16.53 16.53 0 0 0-16.328 14.063 16.46 16.46 0 0 0 2.998 12.29 16.46 16.46 0 0 0 10.83 6.538l-14.844 97.891a19.66 19.66 0 0 1-7.789 12.896 19.66 19.66 0 0 1-14.633 3.588l-293.437-44.766c-10.781-1.64-18.125-11.718-16.485-22.422l14.922-97.812c.86.156 1.719.156 2.5.156a16.53 16.53 0 0 0 16.328-14.062c1.407-9.063-4.843-17.5-13.828-18.828l15.469-101.329a30.77 30.77 0 0 1 9.375-17.968l61.172-75.313a19.36 19.36 0 0 1 15.234-7.422m0-14.453c-10.312 0-20 4.61-26.562 12.657l-60.625 74.687A46.36 46.36 0 0 0 226.953 300l-15.469 101.328a14.476 14.476 0 0 0 12.11 16.484c.703.079 1.172.469 1.328.782.234.312.469.859.39 1.562-.156 1.172-1.171 1.797-2.031 1.797h-.312c-.703-.078-1.485-.156-2.188-.156-3.047 0-6.094.937-8.594 2.812a14.22 14.22 0 0 0-5.703 9.453l-14.922 97.813c-2.812 18.594 10 36.094 28.594 38.906l293.438 44.766a34.146 34.146 0 0 0 38.906-28.594l14.922-97.812c1.172-7.891-4.219-15.313-12.11-16.485-1.171-.156-1.953-1.25-1.718-2.343.156-1.172 1.172-1.797 2.031-1.797h.312c.704.078 1.485.156 2.188.156 3.047 0 6.094-.938 8.594-2.813a14.22 14.22 0 0 0 5.703-9.453l29.531-193.203c2.813-18.594-10-36.094-28.594-38.906L332.266 187.5a29 29 0 0 0-5.157-.469"/><path fill="#2AEFC8" d="M366.406 242.656c-6.875-1.093-13.828 1.641-18.281 7.032L286.953 325a31.24 31.24 0 0 0-9.375 17.969l-15.469 101.328a16.495 16.495 0 0 1 13.548 12.387c.516 2.108.611 4.297.281 6.441a16.5 16.5 0 0 1-6.546 10.82 16.5 16.5 0 0 1-12.283 3.008l-12.578 82.891 271.328 41.406a19.687 19.687 0 0 0 22.422-16.484l14.922-97.813a16.5 16.5 0 0 1-10.82-6.545 16.5 16.5 0 0 1-3.008-12.283 16.5 16.5 0 0 1 6.546-10.82 16.5 16.5 0 0 1 12.282-3.008l27.188-178.125z"/><path fill="#fff" d="M488.047 557.188c-1.094 0-2.109-.079-3.203-.235l-218.125-33.281a21.16 21.16 0 0 1-13.828-8.359c-3.36-4.532-4.688-10.079-3.828-15.704l6.796-44.296a21.22 21.22 0 0 1 24.063-17.657l218.125 33.282c11.484 1.718 19.453 12.5 17.656 24.062l-6.797 44.297c-1.562 10.156-10.547 17.891-20.859 17.891"/><path fill="#151B28" d="M276.641 443.984c.703 0 1.484.078 2.187.157l218.125 33.281c7.891 1.172 13.359 8.594 12.109 16.484l-6.718 44.375a14.43 14.43 0 0 1-10.844 11.866 14.5 14.5 0 0 1-5.641.244l-218.125-33.282c-7.89-1.171-13.359-8.593-12.109-16.484l6.797-44.297a14.374 14.374 0 0 1 14.219-12.344m0-13.203c-6.563 0-12.969 2.344-17.969 6.641a27.68 27.68 0 0 0-9.453 16.875l-6.797 44.297c-2.344 15.078 8.125 29.297 23.203 31.562l218.125 33.281a27.6 27.6 0 0 0 22.187-6.328 27.68 27.68 0 0 0 9.454-16.875l6.797-44.297c2.343-15.078-8.125-29.296-23.204-31.562l-218.125-33.281c-1.406-.235-2.812-.313-4.218-.313m28.437-59.219-8.828-1.328a4.063 4.063 0 0 1-3.359-4.609l11.953-78.359a4.06 4.06 0 0 1 4.609-3.36l8.828 1.328c2.188.313 3.672 2.422 3.36 4.61l-11.954 78.359c-.39 2.188-2.421 3.672-4.609 3.359m48.985 7.5-8.829-1.328a4.06 4.06 0 0 1-2.624-1.616 4.06 4.06 0 0 1-.735-2.993l12.031-78.359a4.064 4.064 0 0 1 4.61-3.36l8.828 1.328c2.187.313 3.672 2.422 3.359 4.61l-11.953 78.359c-.391 2.188-2.5 3.672-4.687 3.359m49.062 7.5-8.828-1.328a4.063 4.063 0 0 1-3.359-4.609l11.953-78.359a4.06 4.06 0 0 1 4.609-3.36l8.828 1.328c2.188.313 3.672 2.422 3.36 4.61l-11.954 78.359c-.39 2.188-2.421 3.672-4.609 3.359m48.984 7.5-8.828-1.328a4.06 4.06 0 0 1-2.624-1.616 4.06 4.06 0 0 1-.735-2.993l11.953-78.359a4.06 4.06 0 0 1 4.609-3.36l8.828 1.328c2.188.313 3.672 2.422 3.36 4.61l-11.953 78.359c-.313 2.109-2.422 3.672-4.61 3.359m49.063 7.422-8.828-1.328a4.063 4.063 0 0 1-3.36-4.609l11.954-78.36a4.06 4.06 0 0 1 1.616-2.624 4.06 4.06 0 0 1 2.993-.735l8.828 1.328c2.188.313 3.672 2.422 3.359 4.61l-11.953 78.359c-.39 2.187-2.422 3.75-4.609 3.359"/><path fill="#2AEFC8" d="m295.415 475.604 176.471 26.941-2.511 16.45-176.471-26.941z"/></svg>