<svg xmlns="http://www.w3.org/2000/svg" width="800" height="800" fill="none" viewBox="0 0 800 800"><path fill="orange" d="M571.986 312.12C417.69 278.292 544.174 64.308 332.768 82.042 121.361 99.777-79.107 586.573 296.205 700.558s568.75-324.219 275.781-388.438"/><path fill="orange" d="M282.924 578.917c-1.406 0-2.813-.39-4.063-1.328l-12.187-8.672c-2.969-2.109-3.828-6.25-1.875-9.375l40.625-65.703c1.015-1.641 2.656-2.812 4.531-3.203.469-.078.938-.156 1.406-.156 1.407 0 2.891.468 4.063 1.328l20.547 14.609c1.562 1.094 2.578 2.813 2.89 4.766.235 1.953-.312 3.828-1.484 5.39l-48.984 59.766a7.15 7.15 0 0 1-5.469 2.578"/><path fill="#151B28" d="m311.361 497.511 20.547 14.609-48.984 59.766-12.188-8.672zm0-13.984c-.937 0-1.875.078-2.734.312-3.828.781-7.109 3.047-9.141 6.328l-40.625 65.703c-3.906 6.25-2.187 14.453 3.75 18.75l12.188 8.672a14.1 14.1 0 0 0 8.125 2.578c4.062 0 8.047-1.796 10.859-5.156l48.984-59.765c2.422-2.969 3.516-6.876 3.047-10.704-.547-3.828-2.578-7.265-5.703-9.531l-20.547-14.609c-2.5-1.641-5.312-2.578-8.203-2.578"/><path fill="orange" d="M525.424 578.917c-2.031 0-4.063-.859-5.391-2.578l-48.984-59.766a6.69 6.69 0 0 1-1.484-5.39c.234-1.953 1.328-3.672 2.89-4.766l20.547-14.609a6.83 6.83 0 0 1 4.063-1.328c.468 0 .937.078 1.406.156 1.875.391 3.515 1.562 4.531 3.203l40.625 65.703c1.953 3.125 1.094 7.266-1.875 9.375l-12.266 8.75a6.76 6.76 0 0 1-4.062 1.25"/><path fill="#151B28" d="m497.064 497.511 40.625 65.703-12.187 8.672-48.985-59.766zm0-13.984c-2.89 0-5.703.859-8.125 2.578l-20.547 14.609c-3.125 2.266-5.234 5.703-5.703 9.531-.547 3.828.625 7.735 3.047 10.704l48.985 59.765a14.04 14.04 0 0 0 18.984 2.578l12.187-8.672c6.016-4.297 7.657-12.5 3.75-18.75l-40.625-65.703c-2.031-3.281-5.312-5.625-9.14-6.328-1.016-.156-1.953-.312-2.813-.312"/><path fill="#fff" d="M297.97 517.761a150.14 150.14 0 0 0 106.176 43.98 150.16 150.16 0 0 0 138.727-92.694 150.15 150.15 0 0 0 0-114.924 150.16 150.16 0 0 0-244.903-48.715 150.157 150.157 0 0 0 0 212.353"/><path fill="#151B28" d="M404.174 268.683c78.906 0 142.89 63.984 142.89 142.89 0 78.907-63.984 142.891-142.89 142.891s-142.891-63.906-142.891-142.891 63.985-142.89 142.891-142.89m0-14.453c-21.25 0-41.875 4.14-61.25 12.343-18.75 7.891-35.547 19.297-50 33.75-14.453 14.454-25.781 31.25-33.75 50-8.203 19.375-12.344 40-12.344 61.25s4.141 41.875 12.344 61.25c7.89 18.75 19.297 35.547 33.75 50s31.25 25.782 50 33.75c19.375 8.204 40 12.344 61.25 12.344s41.875-4.14 61.25-12.344c18.75-7.89 35.547-19.296 50-33.75 14.453-14.453 25.781-31.25 33.75-50 8.203-19.375 12.344-40 12.344-61.25s-4.141-41.875-12.344-61.25c-7.891-18.75-19.297-35.546-33.75-50-14.453-14.453-31.25-25.781-50-33.75a156.3 156.3 0 0 0-61.25-12.343"/><path fill="#2AEFC8" d="M302.846 421.417a110.55 110.55 0 0 0 32.378 78.169 110.55 110.55 0 0 0 156.337 0 110.546 110.546 0 1 0-188.715-78.169"/><path fill="#151B28" d="M404.174 299.62c61.875 0 111.953 50.157 111.953 111.953s-50.156 111.954-111.953 111.954-111.953-50.157-111.953-111.954S342.299 299.62 404.174 299.62m0-7.343c-31.875 0-61.875 12.421-84.375 34.921-22.578 22.579-34.922 52.5-34.922 84.375s12.422 61.875 34.922 84.375c22.578 22.579 52.5 34.922 84.375 34.922s61.875-12.422 84.375-34.922c22.578-22.578 34.922-52.5 34.922-84.375s-12.422-61.875-34.922-84.375a118.6 118.6 0 0 0-84.375-34.921"/><path fill="#fff" d="M259.721 315.089c-2.5 0-4.766-1.25-6.094-3.359a63.2 63.2 0 0 1-9.844-35.938c.469-16.875 7.344-32.656 19.531-44.453a63.96 63.96 0 0 1 44.844-18.281h1.719c18.125.469 35.156 8.594 46.797 22.187 1.64 1.875 2.109 4.454 1.406 6.875s-2.656 4.219-5.078 4.844c-36.25 9.688-67.188 32.578-87.031 64.688a7.4 7.4 0 0 1-6.25 3.437"/><path fill="#151B28" d="M308.08 220.323h1.485c16.64.469 31.484 7.969 41.484 19.688-38.281 10.156-70.859 34.844-91.328 67.812a56.73 56.73 0 0 1-8.75-31.875c.781-30.937 26.25-55.625 57.109-55.625m0-14.453c-18.75 0-36.484 7.188-49.922 20.313a71.44 71.44 0 0 0-21.718 49.453 70.8 70.8 0 0 0 11.015 40 14.38 14.38 0 0 0 12.188 6.719h.078c5 0 9.609-2.657 12.187-6.875 18.907-30.469 48.282-52.266 82.735-61.485a14.45 14.45 0 0 0 7.265-23.359 70.93 70.93 0 0 0-52.109-24.766z"/><path fill="#fff" d="M548.627 315.089c-2.5 0-4.766-1.328-6.094-3.437-19.844-32.032-50.781-55-87.031-64.688-2.422-.625-4.297-2.5-5.078-4.844a7.36 7.36 0 0 1 1.406-6.875 63.55 63.55 0 0 1 46.797-22.187h1.719c16.797 0 32.734 6.484 44.843 18.281a64.26 64.26 0 0 1 19.532 44.453c.312 12.813-3.047 25.235-9.844 35.938a7.5 7.5 0 0 1-6.25 3.359"/><path fill="#151B28" d="M500.268 220.323c30.859 0 56.328 24.688 57.109 55.704a56.74 56.74 0 0 1-8.75 31.875 154.18 154.18 0 0 0-91.328-67.813c9.922-11.719 24.844-19.219 41.484-19.687.547 0 1.016-.079 1.485-.079m0-14.453h-1.875c-20.157.547-39.141 9.532-52.11 24.766-3.203 3.75-4.297 8.984-2.812 13.672 1.484 4.765 5.312 8.359 10.078 9.687 34.453 9.141 63.906 31.016 82.734 61.485 2.656 4.218 7.266 6.797 12.188 6.875h.078c4.922 0 9.531-2.5 12.187-6.719a70.8 70.8 0 0 0 11.016-40c-.469-18.75-8.203-36.328-21.719-49.453-13.281-13.125-31.015-20.313-49.765-20.313m-96.094 212.969a7.25 7.25 0 0 1-7.266-7.265v-70.157a7.25 7.25 0 0 1 7.266-7.265c4.062 0 7.265 3.203 7.265 7.265v70.157a7.25 7.25 0 0 1-7.265 7.265"/><path fill="#151B28" d="M435.658 437.277c-1.25 0-2.5-.313-3.672-1.016l-31.484-18.438a7.265 7.265 0 0 1-2.578-9.921 7.26 7.26 0 0 1 9.922-2.579l31.484 18.438a7.264 7.264 0 0 1 2.578 9.922 7.12 7.12 0 0 1-6.25 3.594"/></svg>