<svg xmlns="http://www.w3.org/2000/svg" width="800" height="800" fill="none" viewBox="0 0 800 800"><path fill="orange" d="M609.141 293.125c-154.297-33.828-27.813-247.734-239.219-230S-41.953 567.656 333.359 681.64s568.75-324.219 275.782-388.516"/><path fill="orange" d="M537.266 278.594a28.594 28.594 0 1 0 57.187 0 28.594 28.594 0 0 0-57.187 0"/><path fill="#151B28" d="M565.859 257.031a21.56 21.56 0 0 1 21.563 21.563 21.564 21.564 0 0 1-43.125 0 21.565 21.565 0 0 1 21.562-21.563m0-13.984c-19.609 0-35.547 15.937-35.547 35.547s15.938 35.547 35.547 35.547c19.61 0 35.547-15.938 35.547-35.547 0-19.61-15.937-35.547-35.547-35.547"/><path fill="#fff" d="M308.828 371.406c-1.328 0-2.656-.547-3.672-1.484l-3.594-3.594a5.1 5.1 0 0 1-1.126-1.663 5.09 5.09 0 0 1 1.126-5.602l164.454-164.454c.937-.937 2.265-1.484 3.672-1.484 1.328 0 2.656.547 3.671 1.484l3.594 3.594a5.094 5.094 0 0 1 0 7.266L312.5 369.922a5.34 5.34 0 0 1-3.672 1.484"/><path fill="#151B28" d="m469.688 198.203 3.593 3.594L308.828 366.25l-3.594-3.594zm0-10.234c-2.657 0-5.235 1.015-7.266 3.047L297.969 355.391a10.22 10.22 0 0 0-3.047 7.265c0 2.735 1.094 5.313 3.047 7.266l3.593 3.594a10.175 10.175 0 0 0 11.206 2.256 10.2 10.2 0 0 0 3.326-2.256l164.453-164.454c1.953-1.953 3.047-4.531 3.047-7.265s-1.094-5.313-3.047-7.266l-3.594-3.594c-1.953-1.953-4.609-2.968-7.265-2.968"/><path fill="#fff" d="M469.063 539.141c-1.329 0-2.657-.469-3.672-1.485L300.937 373.203a5.1 5.1 0 0 1-1.126-1.663 5.1 5.1 0 0 1 0-3.939 5.1 5.1 0 0 1 1.126-1.664l4.922-4.921c1.016-1.016 2.344-1.485 3.672-1.485s2.656.469 3.672 1.485l164.453 164.453a5.09 5.09 0 0 1 0 7.265l-4.922 4.922c-1.015.938-2.343 1.485-3.671 1.485"/><path fill="#151B28" d="m309.531 364.609 164.453 164.454-4.921 4.921-164.454-164.453zm0-10.312c-2.656 0-5.234 1.015-7.265 3.047l-4.922 4.922c-1.953 1.953-3.047 4.531-3.047 7.265s1.094 5.313 3.047 7.266L461.797 541.25c1.953 1.953 4.531 3.047 7.266 3.047 2.734 0 5.312-1.094 7.265-3.047l4.922-4.922c3.984-3.984 3.984-10.547 0-14.531L316.797 357.344c-2.031-2.032-4.688-3.047-7.266-3.047"/><path fill="#2AEFC8" d="M467.422 228.125c-1.719 0-3.359-.625-4.688-1.953-6.562-6.563-10.156-15.234-10.156-24.453s3.594-17.891 10.156-24.453 15.235-10.157 24.453-10.157 17.891 3.594 24.454 10.157a6.56 6.56 0 0 1 1.953 4.687 6.7 6.7 0 0 1-1.953 4.688l-39.532 39.531a6.37 6.37 0 0 1-4.687 1.953"/><path fill="#151B28" d="M487.187 173.828c7.188 0 14.297 2.734 19.766 8.203l-39.531 39.531c-10.938-10.937-10.938-28.593 0-39.531a27.93 27.93 0 0 1 19.765-8.203m0-13.281c-11.015 0-21.328 4.297-29.14 12.031a41.21 41.21 0 0 0 0 58.281c2.5 2.5 5.859 3.907 9.375 3.907a13.25 13.25 0 0 0 9.375-3.907l39.531-39.531c5.156-5.156 5.156-13.594 0-18.75a41.03 41.03 0 0 0-29.141-12.031"/><path fill="#2AEFC8" d="M311.875 382.188c-9.687 0-17.578-7.891-17.578-17.579 0-9.687 7.891-17.578 17.578-17.578s17.578 7.891 17.578 17.578c0 9.688-7.891 17.579-17.578 17.579"/><path fill="#151B28" d="M311.875 353.672c6.016 0 10.937 4.922 10.937 10.937 0 6.016-4.921 10.938-10.937 10.938s-10.937-4.922-10.937-10.938c-.079-6.015 4.843-10.937 10.937-10.937m0-13.281c-13.359 0-24.219 10.859-24.219 24.218s10.86 24.219 24.219 24.219 24.219-10.859 24.219-24.219c-.078-13.359-10.938-24.218-24.219-24.218"/><path fill="#2AEFC8" d="M518.75 532.578a3.68 3.68 0 0 1-2.596-1.075 3.7 3.7 0 0 1-.796-1.192 3.7 3.7 0 0 1-.28-1.405v-17.734a3.67 3.67 0 0 1 3.672-3.672h17.734a3.67 3.67 0 0 1 3.672 3.672v17.734a3.667 3.667 0 0 1-3.672 3.672z"/><path fill="#151B28" d="M536.484 511.172v17.734H518.75v-17.734zm0-7.344H518.75a7.336 7.336 0 0 0-7.344 7.344v17.734a7.336 7.336 0 0 0 7.344 7.344h17.734a7.335 7.335 0 0 0 7.344-7.344v-17.734a7.335 7.335 0 0 0-7.344-7.344"/><path fill="#fff" d="M336.25 567.5a7.25 7.25 0 0 1-7.266-7.266c0-17.578 14.297-31.875 31.875-31.875H580c17.578 0 31.875 14.297 31.875 31.875a7.25 7.25 0 0 1-7.266 7.266z"/><path fill="#151B28" d="M580.078 535.547a24.686 24.686 0 0 1 24.688 24.687H336.25a24.685 24.685 0 0 1 24.688-24.687zm0-14.453h-219.14c-21.563 0-39.141 17.578-39.141 39.14 0 7.969 6.484 14.453 14.453 14.453h268.438c7.968 0 14.453-6.484 14.453-14.453.078-21.562-17.5-39.14-39.063-39.14"/><path fill="orange" d="M604.688 560.234H362.812c0-8.828 7.11-15.937 15.938-15.937h210a15.904 15.904 0 0 1 15.938 15.937"/><path fill="#fff" d="M494.062 339.141c-1.953 0-3.75-.782-5.156-2.11a95.16 95.16 0 0 1-28.047-67.656c0-25.547 9.922-49.609 28.047-67.656a95.16 95.16 0 0 1 67.656-28.047c25.547 0 49.61 9.922 67.657 28.047a7.265 7.265 0 0 1 0 10.234l-125 125.078a7.14 7.14 0 0 1-5.157 2.11"/><path fill="#151B28" d="M556.641 180.938c22.656 0 45.312 8.671 62.578 25.937L494.063 331.953c-34.532-34.531-34.532-90.547 0-125.078 17.265-17.344 39.921-25.937 62.578-25.937m0-14.532c-27.5 0-53.36 10.703-72.813 30.157-19.453 19.453-30.156 45.312-30.156 72.812s10.703 53.359 30.156 72.813a14.495 14.495 0 0 0 20.469 0l125.078-125.079c5.625-5.625 5.625-14.843 0-20.468a102.06 102.06 0 0 0-72.734-30.235"/><path fill="#2AEFC8" d="M593.828 232.187c-27.578-27.578-72.187-27.578-99.766 0-27.578 27.579-27.578 72.188 0 99.766z"/></svg>