<svg xmlns="http://www.w3.org/2000/svg" width="800" height="800" fill="none" viewBox="0 0 800 800"><path fill="orange" d="M571.953 311.953C417.656 278.125 544.141 64.141 332.734 81.875S-79.14 586.406 296.172 700.391s568.75-324.219 275.781-388.438"/><path fill="#151B28" d="M595.156 417.578c-.547 0-1.093-.078-1.64-.156-3.907-.938-6.329-4.844-5.391-8.672 19.062-80.859-31.25-162.109-112.109-181.172-39.141-9.219-79.61-2.656-113.829 18.516s-58.125 54.375-67.343 93.593c-.938 3.907-4.844 6.329-8.672 5.391-3.906-.937-6.328-4.844-5.391-8.672 10.078-42.969 36.328-79.375 73.828-102.578s81.797-30.469 124.766-20.312c88.672 20.859 143.75 109.921 122.891 198.593-.86 3.282-3.829 5.469-7.11 5.469"/><path fill="#fff" d="M557.344 283.516a16.73 16.73 0 0 1-12.188-5.313c-19.141-20.703-43.828-35.078-71.328-41.562-10.703-2.5-21.641-3.829-32.5-3.829-17.188 0-34.141 3.125-50.313 9.297-1.953.703-3.906 1.094-5.937 1.094-1.25 0-2.578-.156-3.828-.469-5.391-1.25-9.688-5.078-11.719-10.234-3.281-8.516 1.016-18.125 9.531-21.406 20-7.656 40.86-11.485 62.188-11.485 13.437 0 26.953 1.563 40.156 4.688 34.063 8.047 64.531 25.781 88.125 51.406 6.172 6.719 5.781 17.188-.937 23.438-3.047 2.812-7.032 4.375-11.25 4.375"/><path fill="#151B28" d="M441.25 206.875c12.891 0 25.781 1.484 38.515 4.453 32.579 7.656 61.797 24.688 84.454 49.219 3.515 3.75 3.281 9.687-.547 13.203-1.797 1.641-4.063 2.5-6.328 2.5-2.5 0-5-1.016-6.875-2.969-20.079-21.797-46.094-36.875-75-43.75a150 150 0 0 0-34.219-3.984 146.9 146.9 0 0 0-52.891 9.844c-1.093.39-2.265.625-3.359.625a9.7 9.7 0 0 1-2.109-.235c-2.891-.703-5.469-2.734-6.563-5.781-1.875-4.844.547-10.234 5.391-12.031 19.14-7.344 39.297-11.094 59.531-11.094m0-14.453c-22.188 0-43.906 4.062-64.766 12.031-12.265 4.688-18.437 18.516-13.75 30.781 2.813 7.344 9.063 12.813 16.797 14.688 1.797.39 3.594.625 5.469.625 2.891 0 5.781-.547 8.516-1.563h.078a133.2 133.2 0 0 1 47.734-8.828c10.313 0 20.703 1.25 30.859 3.594 26.172 6.172 49.532 19.766 67.735 39.453 4.453 4.844 10.859 7.656 17.5 7.656 6.015 0 11.719-2.265 16.172-6.328 9.687-8.906 10.234-23.984 1.328-33.672-24.61-26.64-56.328-45.156-91.797-53.515a180.5 180.5 0 0 0-41.875-4.922"/><path fill="orange" d="M388.438 235.391c27.812-10.625 57.968-12.657 87.109-5.782 28.984 6.797 54.922 21.953 75 43.75 3.516 3.75 9.375 4.063 13.203.547 1.641-1.484 2.422-3.437 2.734-5.469-.234-.312-.39-.781-.625-1.093-22.656-24.532-51.875-41.563-84.453-49.219-32.812-7.734-66.718-5.469-98.047 6.562-3.281 1.25-5.312 4.219-5.781 7.5a9.03 9.03 0 0 0 5.391 3.594c1.719.391 3.594.313 5.469-.39"/><path fill="#151B28" d="M327.734 551.875c-.312 0-.547 0-.859-.078a3.7 3.7 0 0 1-2.735-4.453c5.704-24.141-14.375-34.063-35.546-44.532-19.141-9.453-38.907-19.218-33.907-40.546a3.7 3.7 0 0 1 4.453-2.735 3.7 3.7 0 0 1 2.735 4.453c-3.438 14.532 9.062 21.875 30 32.266 10.859 5.391 22.109 10.937 30.078 18.828 9.453 9.453 12.578 20.547 9.375 33.984-.391 1.641-1.875 2.813-3.594 2.813"/><path fill="#fff" d="M251.172 427.891a43.2 43.2 0 0 1-10-1.172c-11.328-2.656-20.938-9.61-27.11-19.531-6.093-9.922-8.047-21.641-5.39-32.969 4.687-19.766 22.109-33.594 42.422-33.594 3.359 0 6.718.391 10 1.172 23.437 5.547 37.968 29.062 32.421 52.422-4.531 19.844-22.031 33.672-42.343 33.672"/><path fill="#151B28" d="M251.172 347.891c2.734 0 5.547.312 8.359.937 19.531 4.61 31.641 24.219 27.031 43.75-3.906 16.719-18.906 28.047-35.39 28.047-2.735 0-5.547-.312-8.36-.937-19.531-4.61-31.64-24.219-27.031-43.75 3.906-16.719 18.906-28.047 35.391-28.047m0-14.453c-11.25 0-22.422 3.828-31.328 10.781-9.063 7.109-15.547 17.187-18.125 28.359-6.407 27.266 10.547 54.688 37.812 61.172 3.828.938 7.735 1.328 11.719 1.328 11.25 0 22.422-3.828 31.328-10.781 9.063-7.11 15.547-17.188 18.125-28.359 6.406-27.266-10.547-54.688-37.812-61.172-3.907-.86-7.813-1.328-11.719-1.328"/><path fill="#fff" d="M269.141 464.063q-3.048 0-6.094-.704l-12.422-2.968c-6.875-1.641-12.734-5.86-16.484-11.875-3.75-6.016-4.922-13.125-3.282-20.078l21.875-92.891c2.813-12.031 13.438-20.469 25.86-20.469q3.046 0 6.094.703l12.421 2.969c6.875 1.641 12.735 5.859 16.485 11.875s4.922 13.125 3.281 20.078L295 443.594c-2.891 12.031-13.516 20.469-25.859 20.469"/><path fill="#151B28" d="M278.516 322.422c1.484 0 2.968.156 4.453.547l12.422 2.969c10.39 2.421 16.796 12.812 14.375 23.203l-21.875 92.89c-2.11 8.906-10 14.922-18.75 14.922-1.485 0-2.969-.156-4.454-.547l-12.421-2.968c-10.391-2.422-16.797-12.813-14.375-23.204l21.875-92.89c2.031-8.985 10-14.922 18.75-14.922m0-14.531c-7.5 0-14.922 2.578-20.782 7.187a33.57 33.57 0 0 0-12.031 18.906l-21.875 92.891c-2.031 8.75-.625 17.812 4.141 25.547 4.765 7.656 12.187 13.047 21.015 15.078l12.422 2.969q3.867.937 7.735.937c7.5 0 14.921-2.578 20.781-7.187a33.57 33.57 0 0 0 12.031-18.907l21.875-92.89c4.297-18.125-7.031-36.328-25.156-40.625l-12.422-2.969a32.2 32.2 0 0 0-7.734-.937"/><path fill="#2AEFC8" d="m264.766 456.328-3.985-.937c-10.312-2.422-16.718-12.813-14.297-23.125l18.75-79.766c2.422-10.312 12.813-16.719 23.125-14.297l3.985.938c10.312 2.422 16.719 12.812 14.297 23.125l-18.75 79.765c-2.422 10.313-12.813 16.719-23.125 14.297"/><path fill="#151B28" d="M465.547 584.297c-.313 0-.547 0-.86-.078a3.7 3.7 0 0 1-2.734-4.453c3.125-13.438 10.86-21.954 23.594-26.172 10.625-3.516 23.203-3.516 35.312-3.438 23.36.078 37.813-.937 41.25-15.469a3.7 3.7 0 0 1 4.454-2.734 3.7 3.7 0 0 1 2.734 4.453c-5 21.25-27.031 21.25-48.438 21.172-23.671-.078-46.015-.156-51.718 23.984-.391 1.563-1.875 2.735-3.594 2.735"/><path fill="#fff" d="M607.266 511.719a43.2 43.2 0 0 1-10-1.172c-11.329-2.656-20.938-9.609-27.11-19.531s-8.047-21.641-5.39-32.969c4.687-19.766 22.109-33.594 42.421-33.594a43.2 43.2 0 0 1 10 1.172c11.329 2.656 20.938 9.609 27.11 19.531s8.047 21.641 5.39 32.969c-4.687 19.766-22.109 33.594-42.421 33.594"/><path fill="#151B28" d="M607.188 431.719c2.734 0 5.547.312 8.359.937 19.531 4.61 31.641 24.219 27.031 43.75-3.906 16.719-18.906 28.047-35.39 28.047-2.735 0-5.547-.312-8.36-.937-19.531-4.61-31.64-24.219-27.031-43.75 3.984-16.797 18.906-28.047 35.391-28.047m0-14.453c-11.25 0-22.422 3.828-31.328 10.781-9.063 7.109-15.547 17.187-18.125 28.359-3.125 13.203-.86 26.875 6.25 38.438 7.109 11.562 18.359 19.609 31.562 22.734 3.828.938 7.734 1.328 11.719 1.328 11.25 0 22.422-3.828 31.328-10.781 9.062-7.109 15.547-17.187 18.125-28.359 3.125-13.203.859-26.875-6.25-38.438-7.109-11.562-18.359-19.609-31.563-22.734-3.906-.938-7.812-1.328-11.718-1.328"/><path fill="#fff" d="M579.922 537.187a27 27 0 0 1-6.094-.703l-12.422-2.968c-6.875-1.641-12.734-5.86-16.484-11.875-3.75-6.016-4.922-13.125-3.281-20.078l21.875-92.891c2.812-12.031 13.437-20.469 25.859-20.469q3.047 0 6.094.703l12.422 2.969c6.875 1.641 12.734 5.859 16.484 11.875s4.922 13.125 3.281 20.078l-21.875 92.891c-2.89 12.031-13.515 20.468-25.859 20.468"/><path fill="#151B28" d="M589.219 395.547c1.484 0 2.968.156 4.453.547l12.422 2.968c10.39 2.422 16.797 12.813 14.375 23.204l-21.875 92.89c-2.11 8.907-10 14.922-18.75 14.922-1.485 0-2.969-.156-4.453-.547l-12.422-2.968c-10.391-2.422-16.797-12.813-14.375-23.204l21.875-92.89c2.109-8.906 10-14.922 18.75-14.922m0-14.453c-7.5 0-14.922 2.578-20.782 7.187a33.57 33.57 0 0 0-12.031 18.907l-21.875 92.89c-2.031 8.75-.625 17.813 4.141 25.547 4.765 7.656 12.187 13.047 21.015 15.078l12.422 2.969q3.868.937 7.735.937c7.5 0 14.922-2.578 20.781-7.187a33.56 33.56 0 0 0 12.031-18.906l21.875-92.891c4.297-18.125-7.031-36.328-25.156-40.625l-12.422-2.969a31.8 31.8 0 0 0-7.734-.937"/><path fill="#2AEFC8" d="m562.891 526.484 3.984.938c10.313 2.422 20.703-3.984 23.125-14.297l18.75-79.766c2.422-10.312-3.984-20.703-14.297-23.125l-3.984-.937c-10.313-2.422-20.703 3.984-23.125 14.297l-18.75 79.765c-2.422 10.391 3.984 20.704 14.297 23.125"/></svg>