<svg xmlns="http://www.w3.org/2000/svg" width="800" height="800" fill="none" viewBox="0 0 800 800"><path fill="orange" d="M571.953 311.953C417.656 278.125 544.141 64.141 332.734 81.875S-79.14 586.406 296.172 700.391s568.75-324.219 275.781-388.438"/><path fill="#fff" d="M460.469 523.047v-22.266h-66.328v22.266c0 11.328-9.141 20.469-20.469 20.469h-40.313c-20.625 0-37.265 16.718-37.265 37.265h262.422c0-20.625-16.719-37.265-37.266-37.265h-40.313c-11.328 0-20.468-9.141-20.468-20.469"/><path fill="#151B28" d="M460.469 500.781v22.266c0 11.328 9.14 20.469 20.468 20.469h40.313c20.625 0 37.266 16.718 37.266 37.265h-262.5c0-20.625 16.718-37.265 37.265-37.265h40.313c11.328 0 20.468-9.141 20.468-20.469v-22.266zm0-14.531h-66.328c-7.969 0-14.453 6.484-14.453 14.453v22.266c0 3.281-2.657 6.015-6.016 6.015h-40.313c-28.515 0-51.797 23.204-51.797 51.797 0 7.969 6.485 14.453 14.454 14.453h262.421c7.969 0 14.454-6.484 14.454-14.453 0-28.515-23.203-51.797-51.797-51.797h-40.313c-3.281 0-6.015-2.656-6.015-6.015v-22.188c.156-8.047-6.328-14.531-14.297-14.531"/><path fill="orange" d="M521.172 543.516h-40.235c-11.328 0-20.468-9.141-20.468-20.469v-22.266h-47.656v22.266c0 11.328-9.141 20.469-20.469 20.469h-40.235c-20.625 0-37.265 16.718-37.265 37.265h243.75c-.078-20.547-16.797-37.265-37.422-37.265"/><path fill="#fff" d="M427.266 507.969c-46.875 0-91.016-18.281-124.141-51.406-33.203-33.125-51.406-77.266-51.406-124.219 0-96.797 78.75-175.625 175.625-175.625s175.625 78.75 175.625 175.625c0 46.953-18.282 91.015-51.407 124.219-33.281 33.203-77.343 51.406-124.296 51.406m-6.719-155.157c-9.531 12.266-37.188 42.266-79.61 42.813-10.625.156-16.015 4.062-15.937 11.641.078 9.218 7.578 21.093 19.062 30.156 14.532 11.484 33.985 17.812 54.766 17.812h1.797c29.062-.468 51.328-12.968 59.453-33.515 7.5-18.907 1.328-40.625-16.406-58.36zm27.734-24.687c15.469 2.109 55.235 11.016 76.875 47.422 2.657 4.453 6.953 9.687 12.422 9.687 5.234 0 11.094-4.765 15.547-12.656 9.141-16.172 13.047-46.484-6.172-78.594-13.359-22.343-32.422-35.078-52.265-35.078-22.969 0-41.563 16.797-48.829 43.906zm-48.672-124.766c-20.156 0-48.203 13.828-65.312 44.61-12.735 22.89-14.219 45.937-4.141 63.203 8.516 14.453 24.141 22.656 42.891 22.656 6.172 0 12.734-.937 19.297-2.656l20.703-14.766c-5.859-14.453-18.047-53.359 2.656-90.312 2.578-4.532 5-10.938 2.188-15.625-2.578-4.453-9.454-7.11-18.282-7.11"/><path fill="#151B28" d="M427.266 164.063c92.968 0 168.359 75.39 168.359 168.359 0 93.047-75.391 168.359-168.359 168.359s-168.36-75.312-168.36-168.359c0-92.969 75.391-168.359 168.36-168.359m-54.219 177.031c7.109 0 14.609-1.016 22.5-3.282l26.562-18.984s-23.984-46.562-.078-89.297c11.641-20.781-1.562-33.515-22.422-33.515-22.109 0-52.734 14.218-71.64 48.359-28.516 51.25-1.563 96.719 45.078 96.719M537.578 392.5c23.359 0 46.094-51.328 15.625-102.187-15.781-26.25-37.734-38.672-58.515-38.672-24.844 0-47.891 17.734-56.172 50.546l3.125 32.422s52.265 2.5 77.343 44.532c5.469 9.375 12.032 13.359 18.594 13.359m-138.75 70h1.875c67.422-1.094 91.641-62.031 47.11-105.234l-29.61-13.516s-28.359 43.984-77.344 44.609c-48.515.704-16.484 74.141 57.969 74.141m28.438-312.969c-24.688 0-48.594 4.844-71.172 14.375-21.797 9.219-41.328 22.422-58.125 39.219s-30 36.328-39.219 58.125c-9.531 22.578-14.375 46.484-14.375 71.172s4.844 48.672 14.375 71.172c9.219 21.797 22.422 41.328 39.219 58.125s36.328 30 58.125 39.14c22.578 9.532 46.484 14.375 71.172 14.375s48.593-4.843 71.172-14.375c21.796-9.218 41.328-22.421 58.125-39.14 16.796-16.797 29.999-36.328 39.218-58.125 9.531-22.578 14.375-46.485 14.375-71.172 0-24.688-4.844-48.594-14.375-71.172-9.219-21.797-22.422-41.328-39.218-58.125s-36.329-30-58.125-39.219c-22.579-9.531-46.485-14.375-71.172-14.375m-54.219 177.11c-16.172 0-29.531-6.953-36.641-19.141-8.828-15-7.265-35.391 4.219-56.016 15.703-28.281 40.938-40.937 58.984-40.937 7.266 0 11.25 2.109 12.032 3.516.468.781.547 3.437-2.266 8.437-19.922 35.625-11.562 72.813-5.078 91.25l-15.078 10.781c-5.547 1.406-11.016 2.11-16.172 2.11m80.156-23.125c6.563-23.125 22.344-37.344 41.485-37.344 17.265 0 34.062 11.484 46.093 31.641 16.485 27.5 14.922 55.625 6.094 71.249-3.672 6.563-7.656 8.985-9.297 8.985-.859 0-3.281-1.328-6.172-6.172-20.859-35.078-57.265-46.328-76.406-50zm-54.375 144.453c-19.14 0-37.031-5.782-50.312-16.25-11.172-8.828-16.25-18.906-16.328-24.531 0-1.875.546-2.344.703-2.5 1.015-.86 3.593-1.797 8.125-1.876 40.859-.546 68.828-26.406 81.562-41.171l16.797 7.656c15 15.469 20.156 33.906 13.906 49.687-7.031 17.735-26.797 28.594-52.812 28.985z"/><path fill="#2AEFC8" d="M572.812 417.109c-5.625-1.015-11.171-5.078-15.859-12.968a81 81 0 0 0-10.547-13.985c-9.14 5-19.453 2.578-27.5-10.781-2.89-4.922-6.25-9.219-9.765-13.125-16.329-5.938-29.532-6.641-29.532-6.641l-1.484-15.312a120.4 120.4 0 0 0-20.859-6.953c1.562 4.062 2.812 6.484 2.812 6.484l-16.328 11.719 4.141 1.875c4.062 3.906 7.343 8.047 10.312 12.187l27.734 12.579c44.532 43.281 20.313 104.218-47.109 105.234-33.437.547-58.516-13.672-71.953-29.766-50.547-16.484-66.719-68.515-25.938-69.062 25.235-.313 44.922-12.188 58.204-23.594-16.172-2.969-29.063-11.875-36.797-24.609-30-4.844-49.063-30-45.547-62.266-12.734 23.437-19.922 50.469-19.922 79.063 0 50.937 22.656 96.562 58.359 127.421 21.875 10.313 46.25 16.172 72.032 16.172 62.109 0 116.328-33.672 145.546-83.672M425.156 222.266c27.422-5.86 48.672 7.5 34.844 32.109a79.8 79.8 0 0 0-7.5 18.672c22.812-28.828 63.437-29.297 91.719 4.766 17.109 3.75 34.14 15.859 47.031 37.343 1.562 2.578 2.891 5.156 4.141 7.735-2.657-47.032-24.61-88.907-58.125-117.813a168.1 168.1 0 0 0-71.954-16.172c-18.828 0-36.953 3.125-53.906 8.906 11.328 3.282 17.656 11.954 13.75 24.454"/><path fill="#2AEFC8" d="M397.031 332.422a30.235 30.235 0 1 0 60.47-.001 30.235 30.235 0 0 0-60.47.001"/><path fill="#151B28" d="M427.266 302.187c16.718 0 30.234 13.516 30.234 30.235s-13.516 30.234-30.234 30.234-30.235-13.515-30.235-30.234 13.516-30.235 30.235-30.235m0-13.281c-23.985 0-43.516 19.532-43.516 43.516s19.531 43.516 43.516 43.516 43.515-19.532 43.515-43.516-19.531-43.516-43.515-43.516"/><path fill="#fff" d="M417.188 332.422a10.073 10.073 0 0 0 10.078 10.078 10.08 10.08 0 0 0 9.311-6.221 10.1 10.1 0 0 0 0-7.714 10.07 10.07 0 0 0-5.455-5.454 10.06 10.06 0 0 0-7.713 0 10.07 10.07 0 0 0-5.454 5.454 10 10 0 0 0-.767 3.857"/><path fill="#151B28" d="M427.266 322.344c5.547 0 10.078 4.531 10.078 10.078s-4.531 10.078-10.078 10.078-10.078-4.531-10.078-10.078 4.531-10.078 10.078-10.078m0-7.344c-9.61 0-17.422 7.812-17.422 17.422s7.812 17.422 17.422 17.422 17.422-7.813 17.422-17.422S436.875 315 427.266 315"/><path fill="#fff" d="M412.812 556.875a14.453 14.453 0 1 0 28.906-.001 14.453 14.453 0 0 0-28.906.001"/><path fill="#151B28" d="M427.266 542.422c7.968 0 14.453 6.484 14.453 14.453s-6.485 14.453-14.453 14.453c-7.969 0-14.453-6.484-14.453-14.453s6.484-14.453 14.453-14.453m0-7.344c-12.032 0-21.797 9.766-21.797 21.797s9.765 21.797 21.797 21.797 21.796-9.766 21.796-21.797-9.765-21.797-21.796-21.797"/><path fill="#fff" d="M465.234 556.875a4.53 4.53 0 1 0 9.062-.002 4.53 4.53 0 0 0-9.062.002"/><path fill="#151B28" d="M469.766 552.344c2.5 0 4.531 2.031 4.531 4.531s-2.031 4.531-4.531 4.531a4.535 4.535 0 0 1-4.532-4.531c.078-2.5 2.032-4.531 4.532-4.531m0-4.375a8.903 8.903 0 0 0-8.907 8.906 8.903 8.903 0 0 0 8.907 8.906 8.9 8.9 0 0 0 8.906-8.906 8.9 8.9 0 0 0-8.906-8.906"/><path fill="#fff" d="M380.234 556.875a4.53 4.53 0 1 0 9.062-.002 4.53 4.53 0 0 0-9.062.002"/><path fill="#151B28" d="M384.766 552.344c2.5 0 4.531 2.031 4.531 4.531s-2.031 4.531-4.531 4.531a4.535 4.535 0 0 1-4.532-4.531c0-2.5 2.032-4.531 4.532-4.531m0-4.375a8.903 8.903 0 0 0-8.907 8.906 8.903 8.903 0 0 0 8.907 8.906 8.9 8.9 0 0 0 8.906-8.906 8.9 8.9 0 0 0-8.906-8.906"/></svg>