<svg xmlns="http://www.w3.org/2000/svg" width="800" height="800" fill="none" viewBox="0 0 800 800"><path fill="orange" d="M571.953 311.953C417.656 278.125 544.141 64.141 332.734 81.875S-79.14 586.406 296.172 700.391s568.75-324.219 275.781-388.438"/><path fill="#fff" d="M559.765 587.812a32 32 0 0 1-8.046-1.015c-22.188-5.625-38.204-26.25-55.157-48.047-20.234-26.016-41.172-52.891-75-61.484-9.297-2.344-18.047-3.516-26.718-3.516-26.172 0-45.782 10.937-64.766 21.484-18.203 10.157-35.391 19.688-57.031 19.688-6.016 0-12.188-.781-18.36-2.344-12.031-3.047-31.406-14.453-26.093-56.953 4.375-35.156 25.312-82.188 53.203-119.766 18.906-25.468 57.265-68.203 101.093-68.203 5.235 0 10.469.625 15.469 1.875.938.235 1.797.703 2.578 1.25 37.032 28.203 62.578 38.672 94.219 38.672 11.797 0 24.766-1.562 39.531-4.687a7.1 7.1 0 0 1 3.282.078c13.671 3.437 25.859 13.359 36.25 29.375 8.906 13.828 16.328 31.797 21.953 53.437 10.312 39.453 13.672 88.281 8.828 127.5-5.86 46.875-21.875 72.656-45.235 72.656"/><path fill="#151B28" d="M382.969 274.922c4.609 0 9.141.547 13.672 1.719 35.39 26.953 62.969 40.156 98.594 40.156 12.5 0 25.937-1.641 41.015-4.844 74.844 18.906 85.235 268.672 23.516 268.672-2.031 0-4.063-.234-6.25-.781-43.906-11.094-64.375-92.891-130.235-109.532-10.312-2.578-19.765-3.75-28.437-3.75-52.891 0-79.922 41.25-121.797 41.25-5.312 0-10.781-.625-16.641-2.109-66.796-17.031 35.469-230.781 126.563-230.781m-.078-14.453c-46.953 0-87.11 44.531-106.875 71.093-14.063 18.907-26.563 40.391-36.25 61.954-9.766 21.953-16.094 43.125-18.36 61.25-1.953 15.546-.859 28.828 3.204 39.375 5.156 13.359 14.921 22.187 28.281 25.546 6.719 1.719 13.515 2.579 20.156 2.579 23.438 0 42.344-10.469 60.547-20.625 18.984-10.625 36.953-20.625 61.25-20.625 8.047 0 16.172 1.093 24.922 3.281 31.406 7.969 51.562 33.828 71.094 58.906 17.734 22.813 34.531 44.375 59.14 50.625a38.5 38.5 0 0 0 9.766 1.25c15.937 0 43.828-10.234 52.422-78.984 2.422-19.61 2.89-41.875 1.406-64.453-1.563-22.891-5.156-45.704-10.391-65.782-5.859-22.422-13.593-41.093-22.89-55.468-11.407-17.657-25.078-28.594-40.547-32.5a13.6 13.6 0 0 0-6.485-.157c-14.296 3.047-26.718 4.532-38.046 4.532-29.922 0-54.219-10.079-89.844-37.188a14.7 14.7 0 0 0-5.235-2.5c-5.546-1.406-11.328-2.109-17.265-2.109"/><path fill="#2AEFC8" d="M553.516 579.766c-43.907-11.094-64.297-92.891-130.157-109.532-80.781-20.468-107.187 50.469-166.875 35.391-7.031-1.797-12.187-5.703-15.703-11.406 12.813-73.594 92.188-190.625 159.844-173.516 47.734 36.328 81.328 47.656 139.609 35.313 31.25 7.89 51.328 56.093 59.453 109.609 2.188 64.375-12.89 122.578-46.171 114.141"/><path fill="#2AEFC8" d="M553.516 579.766c-43.907-11.094-64.297-92.891-130.157-109.532-80.781-20.468-107.187 50.469-166.875 35.391-7.031-1.797-12.187-5.703-15.703-11.406 12.813-73.594 92.188-190.625 159.844-173.516 47.734 36.328 81.328 47.656 139.609 35.313 31.25 7.89 51.328 56.093 59.453 109.609 2.188 64.375-12.89 122.578-46.171 114.141"/><path fill="#151B28" d="M485.859 393.516c-6.562-3.516-8.281-11.485-3.906-17.813 3.281-5.703 11.485-8.281 17.813-3.906 6.562 3.516 8.281 11.484 3.906 17.812-3.281 5.704-11.25 7.5-17.813 3.907"/><path fill="#000" d="M511.719 420.625c-3.281 5.703-11.485 8.281-17.813 3.906-6.562-3.515-8.281-11.484-3.906-17.812 3.281-5.703 11.484-8.281 17.813-3.906 5.468 4.218 8.125 12.343 3.906 17.812m9.297-29.375c-6.563-3.516-8.282-11.484-3.907-17.812 3.282-5.704 11.485-8.282 17.813-3.907 6.562 3.516 8.281 11.485 3.906 17.813-4.219 5.469-12.109 7.187-17.812 3.906"/><path fill="#151B28" d="M547.344 420.313c-3.281 5.703-11.485 8.281-17.813 3.906-6.562-3.516-8.281-11.485-3.906-17.813 3.281-5.703 11.484-8.281 17.813-3.906 5.703 3.281 7.421 11.25 3.906 17.813"/><path fill="#fff" d="M350.469 364.531a31.57 31.57 0 0 0 9.244 22.318 31.55 31.55 0 0 0 22.318 9.245 31.57 31.57 0 0 0 22.318-9.245 31.56 31.56 0 0 0-22.318-53.88 31.56 31.56 0 0 0-31.562 31.562"/><path fill="orange" d="M357.188 372.813a30.15 30.15 0 0 0 8.832 21.323 30.156 30.156 0 1 0-8.832-21.323"/><path fill="#000" d="M393.516 318.828c-25.469-6.406-50.781 8.594-57.188 34.063-6.484 25.547 8.672 50.781 34.141 57.265 24.609 6.25 50.781-8.593 57.266-34.14 6.406-25.469-8.672-50.703-34.219-57.188m-18.36 72.891c-15.781-3.985-25-19.375-21.015-35.156 3.984-15.86 19.375-25 35.156-21.016 15 3.75 25.078 19.375 21.016 35.156-3.907 15.86-19.375 25-35.157 21.016"/><path fill="#151B28" d="M464.297 282.344c-3.75 0-6.875-2.891-7.188-6.641l-2.812-33.984a46 46 0 0 1 10.771-33.534 46 46 0 0 1 31.338-16.076 31.5 31.5 0 0 0 21.476-11.054 31.53 31.53 0 0 0 7.352-23.008l-3.906-47.422a7.267 7.267 0 0 1 6.641-7.812 7.263 7.263 0 0 1 7.812 6.64l3.906 47.422a45.975 45.975 0 0 1-24.84 44.691 46 46 0 0 1-17.269 4.918c-8.359.704-16.015 4.61-21.484 11.016s-8.047 14.609-7.344 22.969l2.812 33.984a7.267 7.267 0 0 1-6.64 7.813c-.156.078-.391.078-.625.078"/></svg>