<svg xmlns="http://www.w3.org/2000/svg" width="40" height="40" fill="none" viewBox="0 0 40 40"><path stroke="#0083E5" stroke-linecap="round" stroke-linejoin="round" stroke-width="3" d="m3.333 21.667 10 10"/><path fill="#D9F1FF" d="m6 23 21.5-5.5L12 29"/><path fill="#D9F1FF" d="m11.667 30 2.666-2.333c.5-.667 1.334-1 2.334-1h6.666c1.834 0 3.5-.667 4.667-2l7.667-7.334a3.337 3.337 0 0 0-4.584-4.85l-7 6.5"/><path stroke="#0083E5" stroke-linecap="round" stroke-linejoin="round" stroke-width="3" d="m11.667 30 2.666-2.333c.5-.667 1.334-1 2.334-1h6.666c1.834 0 3.5-.667 4.667-2l7.667-7.334a3.337 3.337 0 0 0-4.584-4.85l-7 6.5"/><path fill="#D9F1FF" d="M18.333 20h3.334a3.333 3.333 0 0 0 0-6.667h-5c-1 0-1.834.334-2.334 1l-9.333 9"/><path stroke="#0083E5" stroke-linecap="round" stroke-linejoin="round" stroke-width="3" d="M18.333 20h3.334a3.333 3.333 0 0 0 0-6.667h-5c-1 0-1.834.334-2.334 1l-9.333 9"/></svg>