<svg xmlns="http://www.w3.org/2000/svg" width="800" height="800" fill="none" viewBox="0 0 800 800"><path fill="orange" d="M533.828 294.453C379.609 260.625 506.094 46.641 294.609 64.375s-411.875 504.531-36.562 618.516 568.75-324.141 275.781-388.438"/><path fill="#2E2E42" d="M236.172 215.234 166.719 520V215.234z"/><path fill="#2E2E42" d="M250.547 215.234 176.25 541.25l-9.531-2.188V520l69.453-304.766z"/><path fill="#2D2D41" d="m265 215.234-75.078 329.141-13.672-3.125 74.297-326.016z"/><path fill="#2D2D40" d="M279.375 215.234 203.594 547.5l-13.672-3.125L265 215.234z"/><path fill="#2C2C3F" d="m293.75 215.234-76.484 335.391-13.672-3.125 75.781-332.266z"/><path fill="#2B2B3E" d="M308.125 215.234 230.938 553.75l-13.672-3.125 76.484-335.391z"/><path fill="#2A2A3D" d="m322.5 215.234-77.891 341.641-13.671-3.125 77.187-338.516z"/><path fill="#2A2A3C" d="M336.875 215.234 258.281 560l-13.672-3.125L322.5 215.234z"/><path fill="#29293B" d="m351.25 215.234-79.297 347.891L258.281 560l78.594-344.766z"/><path fill="#28283A" d="m365.625 215.234-80 351.016-13.672-3.125 79.297-347.891z"/><path fill="#282839" d="m378.359 215.234 1.563.391-80.625 353.75-13.672-3.125 80-351.016z"/><path fill="#272738" d="m299.291 569.275 80.683-353.728 13.711 3.128-80.683 353.727z"/><path fill="#262637" d="m312.969 572.395 80.683-353.727 13.711 3.127-80.683 353.727z"/><path fill="#252536" d="m326.647 575.515 80.683-353.727 13.711 3.127-80.683 353.728z"/><path fill="#252534" d="m340.326 578.635 80.683-353.728 13.71 3.127-80.683 353.728z"/><path fill="#242433" d="m354.004 581.755 80.683-353.728 13.71 3.128-80.683 353.727z"/><path fill="#232332" d="m367.606 584.858 80.683-353.728 13.71 3.127-80.683 353.728z"/><path fill="#222231" d="m381.284 587.977 80.683-353.728 13.71 3.127-80.683 353.728z"/><path fill="#222230" d="m394.962 591.097 80.683-353.728 13.71 3.127-80.683 353.728z"/><path fill="#21212F" d="m408.64 594.217 80.683-353.728 13.71 3.128-80.683 353.727z"/><path fill="#20202E" d="m422.319 597.336 80.683-353.727 13.71 3.127-80.683 353.728z"/><path fill="#20202D" d="m516.641 246.797 12.5 2.891v5.39l-79.453 348.594-13.672-3.125z"/><path fill="#1F1F2C" d="m529.141 318.125-65.782 288.672-13.671-3.125 79.453-348.594z"/><path fill="#1E1E2B" d="m529.141 381.172-52.11 228.672-13.672-3.047 65.782-288.672z"/><path fill="#1D1D2A" d="m529.141 444.219-37.813 165.859h-13.594l-.703-.234 52.11-228.672z"/><path fill="#1D1D29" d="m529.141 507.266-23.438 102.812h-14.375l37.813-165.859z"/><path fill="#1C1C28" d="m529.141 570.313-8.985 39.765h-14.453l23.438-102.812z"/><path fill="#1C1C28" d="m520.156 610.078 8.985-39.766v39.766z"/><path fill="#fff" d="M193.75 494.531c-7.031 7.735-10.078 15.703-8.281 21.485 1.875 6.093 9.062 11.172 19.765 13.593l276.797 63.125c10.703 2.422 19.375.938 23.672-3.75 4.141-4.531 4.844-12.89 1.875-22.89L433.75 374.453c-.938-2.187-.078-4.375.391-6.719l26.328-115.547-78.282-17.812-26.328 115.547c-.547 2.344-3.593 3.984-5.312 5.547z"/><path fill="#2AEFC8" d="M505.703 589.062c4.141-4.531 4.844-12.89 1.875-22.89L468.125 463.75c-18.984 3.203-41.328 3.984-79.609-32.578-27.032-25.86-67.344-27.422-95.704-24.453l-99.062 87.812c-7.031 7.735-10.078 15.703-8.281 21.485 1.875 6.093 9.062 11.171 19.765 13.593l276.797 63.125c10.703 2.5 19.375.938 23.672-3.672"/><path fill="#29293B" d="M272.969 511.875c-7.422-1.719-12.11-9.141-10.469-16.641 1.719-7.421 9.141-12.109 16.641-10.468 7.421 1.718 12.109 9.14 10.468 16.64-1.718 7.422-9.218 12.11-16.64 10.469m5-22.109c-4.766-1.094-9.453 1.875-10.547 6.64-1.094 4.766 1.875 9.453 6.64 10.547 4.766 1.094 9.454-1.875 10.547-6.64 1.094-4.766-1.875-9.532-6.64-10.547m250.703-320.313c-16.328-3.75-26.641-20.078-22.891-36.406s20.078-26.641 36.406-22.891c16.329 3.75 26.641 20.078 22.891 36.406-3.75 16.329-20.078 26.641-36.406 22.891"/><path fill="orange" d="M539.687 121.016c-10.39-2.344-20.703 4.14-23.125 14.531-2.343 10.39 4.141 20.703 14.532 23.125 10.39 2.344 20.703-4.141 23.125-14.531 2.422-10.469-4.141-20.782-14.532-23.125"/><path fill="#29293B" d="M423.75 176.094c-10.391-2.344-16.875-12.735-14.531-23.125s12.734-16.875 23.125-14.532 16.875 12.735 14.531 23.125-12.734 16.875-23.125 14.532m7.031-30.782c-6.562-1.484-13.125 2.657-14.687 9.219-1.485 6.563 2.656 13.125 9.218 14.688 6.563 1.484 13.125-2.657 14.688-9.219 1.484-6.563-2.656-13.125-9.219-14.688m39.922 57.266c-7.031-1.562-11.406-8.594-9.766-15.547 1.563-7.031 8.594-11.406 15.547-9.765 7.032 1.562 11.407 8.593 9.766 15.546-1.563 6.954-8.594 11.407-15.547 9.766m4.688-20.703c-4.454-1.016-8.907 1.797-9.844 6.25-1.016 4.453 1.797 8.906 6.25 9.844 4.453 1.015 8.906-1.797 9.844-6.172a8.27 8.27 0 0 0-6.25-9.922m-107.11 206.484c-7.734-1.796-12.578-9.531-10.859-17.265 1.797-7.735 9.531-12.578 17.265-10.86 7.735 1.797 12.579 9.532 10.86 17.266-1.797 7.734-9.531 12.578-17.266 10.859"/><path fill="orange" d="M373.516 365.391c-4.922-1.094-9.844 1.953-10.938 6.875s1.953 9.843 6.875 10.937 9.844-1.953 10.938-6.875c1.172-4.922-1.953-9.844-6.875-10.937"/><path fill="#29293B" d="M431.953 556.953c-9.766-2.266-15.937-11.953-13.672-21.797 2.266-9.765 12.031-15.937 21.797-13.672 9.766 2.266 15.938 12.032 13.672 21.797s-12.031 15.86-21.797 13.672m6.328-27.969c-5.625-1.25-11.25 2.266-12.578 7.891-1.25 5.625 2.266 11.25 7.891 12.578 5.625 1.25 11.25-2.266 12.578-7.891s-2.266-11.25-7.891-12.578m-84.531-34.609c-10.078-2.266-16.406-12.344-14.141-22.422 2.266-10.078 12.344-16.406 22.422-14.14s16.407 12.343 14.063 22.421c-2.188 10.079-12.266 16.407-22.344 14.141"/><path fill="orange" d="M360.078 466.875c-5.078-1.172-10.156 2.031-11.25 7.109-1.172 5.079 2.031 10.157 7.11 11.25 5.078 1.172 10.156-2.031 11.25-7.109 1.093-5-2.11-10.078-7.11-11.25"/><path fill="#2B2B3E" d="m399.453 415.078-.312 1.172v-1.172z"/><path fill="#2A2A3D" d="m399.922 415.078-.781 3.125v-1.953l.312-1.172z"/><path fill="#2A2A3C" d="m400.313 415.078-1.172 5.156v-2.031l.781-3.125z"/><path fill="#29293B" d="m400.781 415.078-1.406 6.328h-.234v-1.172l1.172-5.156z"/><path fill="#28283A" d="m401.25 415.078-1.406 6.328h-.469l1.406-6.328z"/><path fill="#282839" d="m401.719 415.078-1.485 6.328h-.39l1.406-6.328z"/><path fill="#272738" d="m402.109 415.078-1.406 6.328h-.469l1.485-6.328z"/><path fill="#262637" d="m402.578 415.078-1.406 6.328h-.469l1.406-6.328z"/><path fill="#252536" d="m403.047 415.078-1.406 6.328h-.469l1.406-6.328z"/><path fill="#252534" d="m403.516 415.078-1.485 6.328h-.39l1.406-6.328z"/><path fill="#242433" d="m403.984 415.078-1.484 6.328h-.469l1.485-6.328z"/><path fill="#232332" d="m404.375 415.078-1.406 6.328h-.469l1.484-6.328z"/><path fill="#222231" d="m404.844 415.078-1.406 6.328h-.469l1.406-6.328z"/><path fill="#222230" d="m405.312 415.078-1.484 6.328h-.39l1.406-6.328z"/><path fill="#21212F" d="m405.469 416.328-1.172 5.078h-.469l1.484-6.328h.157z"/><path fill="#20202E" d="m405.469 418.281-.703 3.125h-.469l1.172-5.078z"/><path fill="#20202D" d="m405.469 420.234-.235 1.172h-.468l.703-3.125z"/><path fill="#1F1F2C" d="m405.234 421.406.235-1.172v1.172z"/><path fill="#2E2E42" d="m397.891 411.953-1.797 8.125v-8.125z"/><path fill="#2E2E42" d="m398.359 411.953-2.265 10.078v-1.953l1.797-8.125z"/><path fill="#2D2D41" d="m398.828 411.953-2.734 12.031v-1.953l2.265-10.078z"/><path fill="#2D2D40" d="m399.219 411.953-2.813 12.578-.312-.078v-.469l2.734-12.031z"/><path fill="#2C2C3F" d="m399.688 411.953-2.813 12.578h-.469l2.813-12.578z"/><path fill="#2B2B3E" d="m400.156 411.953-2.89 12.578h-.391l2.813-12.578z"/><path fill="#2A2A3D" d="m400.625 411.953-2.891 12.578h-.468l2.89-12.578z"/><path fill="#2A2A3C" d="m401.094 411.953-2.891 12.578h-.469l2.891-12.578z"/><path fill="#29293B" d="m401.484 411.953-2.812 12.578h-.469l2.891-12.578z"/><path fill="#28283A" d="m401.953 411.953-2.891 12.578h-.39l2.812-12.578z"/><path fill="#282839" d="m402.422 411.953-2.891 12.578h-.469l2.891-12.578z"/><path fill="#272738" d="M402.891 411.953 400 424.531h-.469l2.891-12.578z"/><path fill="#262637" d="m403.281 411.953-2.812 12.578H400l2.891-12.578z"/><path fill="#252536" d="m403.75 411.953-2.812 12.578h-.469l2.812-12.578z"/><path fill="#252534" d="m404.219 411.953-2.891 12.578h-.39l2.812-12.578z"/><path fill="#242433" d="m404.687 411.953-2.89 12.578h-.469l2.891-12.578z"/><path fill="#232332" d="m405.078 411.953-2.812 12.578h-.469l2.891-12.578z"/><path fill="#222231" d="m405.547 411.953-2.813 12.578h-.468l2.812-12.578z"/><path fill="#222230" d="m406.016 411.953-2.891 12.578h-.391l2.813-12.578z"/><path fill="#21212F" d="m406.484 411.953-2.89 12.578h-.469l2.891-12.578z"/><path fill="#20202E" d="m406.875 411.953-2.812 12.578h-.469l2.89-12.578z"/><path fill="#20202D" d="m407.344 411.953-2.813 12.578h-.469l2.813-12.578z"/><path fill="#1F1F2C" d="m407.813 411.953-2.891 12.578h-.391l2.813-12.578z"/><path fill="#1E1E2B" d="m408.281 411.953-2.89 12.578h-.469l2.891-12.578z"/><path fill="#1D1D2A" d="m408.281 411.953.313.078v.469l-2.735 12.031h-.468z"/><path fill="#1D1D29" d="m408.594 414.453-2.266 10.078h-.469l2.735-12.031z"/><path fill="#1C1C28" d="m408.594 416.484-1.875 8.047h-.391l2.266-10.078z"/><path fill="#1C1C28" d="m406.719 424.531 1.875-8.047v8.047z"/><path fill="#2E2E42" d="m435.547 258.438-15.938 69.687v-69.687z"/><path fill="#2E2E42" d="m436.016 258.438-16.407 71.718v-2.031l15.938-69.687z"/><path fill="#2D2D41" d="m436.484 258.438-16.875 73.671v-1.953l16.407-71.718z"/><path fill="#2D2D40" d="M436.875 258.438 420 332.578l-.391-.078v-.391l16.875-73.671z"/><path fill="#2C2C3F" d="m437.344 258.438-16.875 74.218H420v-.078l16.875-74.14z"/><path fill="#2B2B3E" d="m437.813 258.438-16.954 74.218h-.39l16.875-74.218z"/><path fill="#2A2A3D" d="m438.281 258.438-16.953 74.218h-.469l16.954-74.218z"/><path fill="#2A2A3C" d="m438.75 258.438-16.953 74.218h-.469l16.953-74.218z"/><path fill="#29293B" d="m439.141 258.438-16.875 74.218h-.469l16.953-74.218z"/><path fill="#28283A" d="m439.609 258.438-16.875 74.218h-.468l16.875-74.218z"/><path fill="#282839" d="m440.078 258.438-16.953 74.218h-.391l16.875-74.218z"/><path fill="#272738" d="m440.547 258.438-16.953 74.218h-.469l16.953-74.218z"/><path fill="#262637" d="m441.016 258.438-16.954 74.218h-.468l16.953-74.218z"/><path fill="#252536" d="m441.406 258.438-16.875 74.218h-.469l16.954-74.218z"/><path fill="#252534" d="M441.875 258.438 425 332.656h-.469l16.875-74.218z"/><path fill="#242433" d="m442.344 258.438-16.953 74.218H425l16.875-74.218z"/><path fill="#232332" d="m442.812 258.438-16.953 74.218h-.468l16.953-74.218z"/><path fill="#222231" d="m443.203 258.438-16.875 74.218h-.469l16.954-74.218z"/><path fill="#222230" d="m443.672 258.438-16.875 74.218h-.469l16.875-74.218z"/><path fill="#21212F" d="m444.141 258.438-16.875 74.218h-.469l16.875-74.218z"/><path fill="#20202E" d="m444.609 258.438-16.953 74.218h-.39l16.875-74.218z"/><path fill="#20202D" d="m445.078 258.438-16.953 74.218h-.469l16.953-74.218z"/><path fill="#1F1F2C" d="m445.469 258.438-16.875 74.218h-.469l16.953-74.218z"/><path fill="#1E1E2B" d="m445.938 258.438-16.875 74.218h-.469l16.875-74.218z"/><path fill="#1D1D2A" d="m445.937 258.438.391.078v.468l-16.797 73.672h-.469z"/><path fill="#1D1D29" d="m446.328 260.938-16.406 71.718h-.391l16.797-73.672z"/><path fill="#1C1C28" d="m446.328 262.969-15.937 69.687h-.469l16.406-71.718zm-15.937 69.687 15.937-69.687v69.687z"/><path fill="#2E2E42" d="m416.406 342.422-3.125 13.672v-13.672z"/><path fill="#2E2E42" d="m416.875 342.422-3.594 15.703v-2.031l3.125-13.672z"/><path fill="#2D2D41" d="m417.266 342.422-3.985 17.656v-1.953l3.594-15.703z"/><path fill="#2D2D40" d="m417.734 342.422-4.14 18.203-.313-.078v-.469l3.985-17.656z"/><path fill="#2C2C3F" d="m418.203 342.422-4.141 18.203h-.468l4.14-18.203z"/><path fill="#2B2B3E" d="m418.672 342.422-4.141 18.203h-.469l4.141-18.203z"/><path fill="#2A2A3D" d="m419.141 342.422-4.219 18.203h-.391l4.141-18.203z"/><path fill="#2A2A3C" d="m419.531 342.422-4.14 18.203h-.469l4.219-18.203z"/><path fill="#29293B" d="m420 342.422-4.141 18.203h-.468l4.14-18.203z"/><path fill="#28283A" d="m420.469 342.422-4.141 18.203h-.469L420 342.422z"/><path fill="#282839" d="m420.937 342.422-4.14 18.203h-.469l4.141-18.203z"/><path fill="#272738" d="m421.406 342.422-4.218 18.203h-.391l4.14-18.203z"/><path fill="#262637" d="m421.797 342.422-4.141 18.203h-.468l4.218-18.203z"/><path fill="#252536" d="m422.266 342.422-4.141 18.203h-.469l4.141-18.203z"/><path fill="#252534" d="m422.734 342.422-4.14 18.203h-.469l4.141-18.203z"/><path fill="#242433" d="m423.203 342.422-4.14 18.203h-.469l4.14-18.203z"/><path fill="#232332" d="m423.672 342.422-4.219 18.203h-.391l4.141-18.203z"/><path fill="#222231" d="m424.062 342.422-4.14 18.203h-.469l4.219-18.203z"/><path fill="#222230" d="m424.531 342.422-4.14 18.203h-.469l4.14-18.203z"/><path fill="#21212F" d="m425 342.422-4.141 18.203h-.468l4.14-18.203z"/><path fill="#20202E" d="m425.469 342.422-4.141 18.203h-.469L425 342.422z"/><path fill="#20202D" d="m425.938 342.422-4.219 18.203h-.391l4.141-18.203z"/><path fill="#1F1F2C" d="m426.328 342.422-4.14 18.203h-.469l4.219-18.203z"/><path fill="#1E1E2B" d="m426.797 342.422-4.141 18.203h-.468l4.14-18.203z"/><path fill="#1D1D2A" d="m426.797 342.422.312.078v.391l-3.984 17.734h-.469z"/><path fill="#1D1D29" d="m427.109 344.922-3.515 15.703h-.469l3.984-17.734z"/><path fill="#1C1C28" d="m427.109 346.875-3.125 13.75h-.39l3.515-15.703z"/><path fill="#1C1C28" d="m423.984 360.625 3.125-13.75v13.75z"/></svg>