<svg xmlns="http://www.w3.org/2000/svg" width="800" height="800" fill="none" viewBox="0 0 800 800"><path fill="orange" d="M572.031 283.516C417.734 249.688 544.219 35.703 332.813 53.438 121.406 71.172-79.062 557.969 296.25 671.953 671.563 785.938 865 347.813 572.031 283.516"/><path fill="#2D2D40" d="m323.359 545.078 70.391-70.391c7.031-7.031 10.938-16.406 10.938-26.328 0-8.906-3.125-17.265-8.829-24.062l22.891-22.891c25 20 55.859 30.938 88.359 30.938 37.891 0 73.516-14.766 100.235-41.485 26.797-26.797 41.484-62.343 41.484-100.234s-14.765-73.516-41.484-100.234c-26.797-26.797-62.344-41.485-100.235-41.485s-73.515 14.766-100.234 41.485c-26.797 26.796-41.484 62.343-41.484 100.234 0 32.5 10.859 63.359 30.937 88.359l-22.89 22.891c-6.719-5.703-15.157-8.828-24.063-8.828-9.922 0-19.297 3.906-26.328 10.937l-70.469 70.235c-7.031 7.031-10.937 16.406-10.937 26.328s3.906 19.297 10.937 26.328L270.703 545c7.031 7.031 16.406 10.938 26.328 10.938 10 0 19.375-3.907 26.328-10.86"/><path fill="#fff" d="M421.094 204.375c22.968-22.969 53.515-35.703 86.094-35.703 32.499 0 63.046 12.656 86.093 35.703 22.969 22.969 35.625 53.516 35.625 86.094 0 32.5-12.656 63.047-35.703 86.094-22.969 22.968-53.516 35.703-86.094 35.703-32.5 0-63.046-12.657-86.093-35.703-22.969-22.969-35.704-53.516-35.704-86.094.157-32.578 12.813-63.125 35.782-86.094"/><path fill="#2AEFC8" d="M526.016 205.469c-29.375 0-56.953 11.406-77.735 32.187-20.781 20.782-32.187 48.36-32.187 77.735 0 19.14 4.844 37.5 13.984 53.75 20.703 20.468 48.125 31.718 77.266 31.718 29.375 0 56.953-11.406 77.734-32.187s32.188-48.36 32.188-77.735c0-19.14-4.844-37.499-13.985-53.749-20.781-20.469-48.125-31.719-77.265-31.719"/><path fill="#fff" d="m293.281 536.563-35.156-34.375a6.28 6.28 0 0 1-1.875-4.454c0-.937.234-2.89 1.875-4.453l83.125-83.125a6.3 6.3 0 0 1 4.453-1.875c.938 0 2.891.235 4.453 1.875l35.157 34.375a6.3 6.3 0 0 1 1.875 4.453c0 .938-.235 2.891-1.875 4.454l-83.126 83.125a6.3 6.3 0 0 1-4.453 1.875c-1.015 0-2.89-.235-4.453-1.875"/><path fill="orange" d="M344.063 422.891a6.28 6.28 0 0 0-4.454 1.875L264.297 500l28.906 28.125c1.563 1.641 3.438 1.875 4.453 1.875.938 0 2.813-.234 4.453-1.875l75.235-75.234-28.906-28.125c-1.485-1.641-3.438-1.875-4.375-1.875"/></svg>