<svg xmlns="http://www.w3.org/2000/svg" width="800" height="800" fill="none" viewBox="0 0 800 800"><path fill="orange" d="M571.953 311.953C417.656 278.125 544.141 64.141 332.734 81.875S-79.14 586.406 296.172 700.39s568.75-324.219 275.781-388.438"/><path fill="#151B28" d="M562.656 600.781H375a7.25 7.25 0 0 1-7.266-7.265c0-4.063 3.203-7.266 7.266-7.266h187.578a7.25 7.25 0 0 1 7.266 7.266c0 4.062-3.203 7.265-7.188 7.265"/><path fill="#fff" d="M375 600.781c-52.031 0-101.016-20.234-137.812-57.031s-57.032-85.703-57.032-137.813S200.391 305 237.188 268.125c36.796-36.797 85.703-57.031 137.812-57.031s100.938 20.234 137.813 57.031c36.796 36.797 57.031 85.703 57.031 137.812s-20.235 100.938-57.031 137.813c-36.797 36.797-85.704 57.031-137.813 57.031"/><path fill="#151B28" d="M375 218.359c103.594 0 187.578 83.985 187.578 187.578S478.672 593.516 375 593.516c-103.594 0-187.578-83.985-187.578-187.579 0-103.593 83.984-187.578 187.578-187.578m0-14.531c-27.266 0-53.75 5.313-78.672 15.86-24.062 10.156-45.703 24.765-64.219 43.281-18.593 18.594-33.125 40.156-43.281 64.218-10.547 24.922-15.859 51.407-15.859 78.672s5.312 53.75 15.859 78.672c10.156 24.063 24.766 45.703 43.281 64.219 18.594 18.594 40.157 33.125 64.219 43.281 24.922 10.547 51.406 15.86 78.672 15.86s53.75-5.313 78.672-15.86c24.062-10.156 45.703-24.765 64.219-43.281 18.593-18.594 33.125-40.156 43.281-64.219 10.547-24.922 15.859-51.406 15.859-78.672s-5.312-53.75-15.859-78.672c-10.156-24.062-24.766-45.703-43.281-64.218-18.594-18.594-40.157-33.125-64.219-43.281-24.922-10.469-51.328-15.86-78.672-15.86"/><path fill="#2AEFC8" d="M224.453 415.938a167.5 167.5 0 0 0 49.06 118.44 167.5 167.5 0 0 0 118.44 49.059 167.49 167.49 0 0 0 154.75-103.4 167.501 167.501 0 0 0-273.19-182.54 167.5 167.5 0 0 0-49.06 118.441"/><path fill="#fff" d="M331.328 314.609a43.68 43.68 0 0 0 26.959 40.348 43.67 43.67 0 0 0 47.594-9.467 43.68 43.68 0 0 0 12.791-30.881 43.671 43.671 0 0 0-87.344 0"/><path fill="#151B28" d="M375 278.125c20.156 0 36.484 16.328 36.484 36.484S395.156 351.094 375 351.094s-36.484-16.328-36.484-36.485c0-20.156 16.406-36.484 36.484-36.484m0-14.453c-28.125 0-50.938 22.891-50.938 50.937 0 28.047 22.891 50.938 50.938 50.938 28.125 0 50.938-22.891 50.938-50.938 0-28.046-22.813-50.937-50.938-50.937"/><path fill="#fff" d="M252.793 436.841a43.67 43.67 0 0 0 71.23-14.167 43.67 43.67 0 0 0-23.637-57.062 43.67 43.67 0 0 0-47.595 9.466A43.7 43.7 0 0 0 240 405.96a43.67 43.67 0 0 0 12.793 30.881"/><path fill="#151B28" d="M283.672 369.453c20.156 0 36.484 16.328 36.484 36.484s-16.328 36.485-36.484 36.485-36.484-16.328-36.484-36.485c.078-20.156 16.406-36.484 36.484-36.484m0-14.453c-28.125 0-50.938 22.891-50.938 50.937 0 28.047 22.891 50.938 50.938 50.938 28.125 0 50.937-22.891 50.937-50.938 0-28.046-22.812-50.937-50.937-50.937"/><path fill="#fff" d="M375 540.938c-24.063 0-43.672-19.61-43.672-43.672 0-24.063 19.609-43.672 43.672-43.672s43.672 19.609 43.672 43.672-19.531 43.672-43.672 43.672"/><path fill="#151B28" d="M375 460.781c20.156 0 36.484 16.328 36.484 36.485 0 20.156-16.328 36.484-36.484 36.484s-36.484-16.328-36.484-36.484 16.406-36.485 36.484-36.485m0-14.453c-28.125 0-50.938 22.891-50.938 50.938s22.891 50.937 50.938 50.937c28.125 0 50.938-22.89 50.938-50.937S403.125 446.328 375 446.328"/><path fill="#fff" d="M466.406 449.609c-24.062 0-43.672-19.609-43.672-43.672s19.61-43.671 43.672-43.671c24.063 0 43.672 19.609 43.672 43.671 0 24.063-19.609 43.672-43.672 43.672"/><path fill="#151B28" d="M466.406 369.453c20.157 0 36.485 16.328 36.485 36.484s-16.328 36.485-36.485 36.485c-20.156 0-36.484-16.328-36.484-36.485 0-20.156 16.328-36.484 36.484-36.484m0-14.453c-28.125 0-50.937 22.891-50.937 50.937 0 28.047 22.89 50.938 50.937 50.938 28.125 0 50.938-22.891 50.938-50.938 0-28.046-22.891-50.937-50.938-50.937"/><path fill="orange" d="M358.125 405.937a16.87 16.87 0 0 0 10.417 15.591 16.88 16.88 0 0 0 12.916 0 16.875 16.875 0 1 0-23.333-15.591"/><path fill="#151B28" d="M375 389.062c9.297 0 16.875 7.579 16.875 16.875 0 9.297-7.578 16.876-16.875 16.876s-16.875-7.579-16.875-16.876c0-9.296 7.578-16.875 16.875-16.875m0-14.453c-17.266 0-31.406 14.063-31.406 31.407 0 17.265 14.062 31.406 31.406 31.406 17.266 0 31.406-14.063 31.406-31.406 0-17.344-14.062-31.407-31.406-31.407"/></svg>