<svg xmlns="http://www.w3.org/2000/svg" width="800" height="800" fill="none" viewBox="0 0 800 800"><path fill="orange" d="M543.906 321.562C389.609 287.734 516.094 73.75 304.688 91.484 93.281 109.22-107.187 596.016 268.125 710s568.672-324.141 275.781-388.438"/><path fill="#2E2E42" d="m305.781 184.062-77.031 392.11v-392.11zm12.188 0-80.625 410.469-8.594-1.719v-16.64l77.031-392.11z"/><path fill="#2D2D41" d="m328.984 184.062 1.094.235-81.016 412.578-11.718-2.344 80.625-410.469z"/><path fill="#2D2D40" d="m249.087 596.878 81.057-412.502 11.729 2.305-81.057 412.502z"/><path fill="#2C2C3F" d="m260.773 599.181 81.057-412.502 11.729 2.305-81.057 412.502z"/><path fill="#2B2B3E" d="m272.536 601.497 81.057-412.502 11.729 2.305-81.057 412.502z"/><path fill="#2A2A3D" d="m284.223 603.799 81.057-412.502 11.729 2.305-81.057 412.502z"/><path fill="#2A2A3C" d="m295.986 606.117 81.057-412.502 11.729 2.305-81.057 412.502z"/><path fill="#29293B" d="m307.672 608.418 81.057-412.502 11.729 2.305-81.057 412.502z"/><path fill="#28283A" d="m319.359 610.72 81.057-412.502 11.729 2.305-81.057 412.502z"/><path fill="#282839" d="m331.137 612.961 81.057-412.503 11.728 2.305-81.056 412.502z"/><path fill="#272738" d="m342.824 615.263 81.057-412.503 11.728 2.305-81.056 412.502z"/><path fill="#262637" d="m354.587 617.58 81.057-412.502 11.729 2.304-81.057 412.503z"/><path fill="#252536" d="m366.272 619.882 81.057-412.502 11.729 2.305-81.057 412.502z"/><path fill="#252534" d="m378.036 622.199 81.057-412.502 11.729 2.305-81.057 412.502z"/><path fill="#242433" d="m389.722 624.501 81.057-412.503 11.729 2.305-81.057 412.502z"/><path fill="#232332" d="m401.486 626.818 81.057-412.502 11.729 2.304-81.057 412.502z"/><path fill="#222231" d="m413.172 629.12 81.057-412.502 11.729 2.305-81.057 412.502z"/><path fill="#222230" d="m424.935 631.437 81.057-412.502 11.729 2.304-81.057 412.502z"/><path fill="#21212F" d="m436.622 633.739 81.056-412.502 11.729 2.305-81.057 412.502z"/><path fill="#20202E" d="m448.385 636.057 81.057-412.503 11.729 2.305-81.057 412.502z"/><path fill="#20202D" d="m460.071 638.358 81.057-412.502 11.729 2.304L471.8 640.663z"/><path fill="#1F1F2C" d="m471.834 640.675 81.057-412.502 11.729 2.305-81.057 412.502z"/><path fill="#1E1E2B" d="m483.521 642.978 81.057-412.503 11.729 2.305-81.057 412.502z"/><path fill="#1D1D2A" d="m495.285 645.295 81.057-412.503 11.729 2.305-81.057 412.502z"/><path fill="#1D1D29" d="m588.047 235 11.719 2.266-80.625 410.468h-11.016l-1.172-.234z"/><path fill="#1C1C28" d="m599.766 237.266 8.593 1.718v16.641l-77.031 392.109h-12.187zm-68.438 410.468 77.031-392.109v392.109z"/><path fill="#fff" d="M504.687 630.859c-1.25 0-2.5-.156-3.75-.39l-239.843-47.11c-5-1.015-9.375-3.828-12.188-8.125-2.812-4.218-3.906-9.375-2.891-14.375l67.657-344.531c1.797-8.984 9.609-15.469 18.75-15.469 1.25 0 2.5.157 3.75.391l239.843 47.109c10.391 2.032 17.11 12.11 15.079 22.422l-67.657 344.531c-1.797 9.063-9.687 15.547-18.75 15.547"/><path fill="#fff" d="M504.687 630.859c-1.25 0-2.5-.156-3.75-.39l-239.843-47.11c-5-1.015-9.375-3.828-12.188-8.125-2.812-4.218-3.906-9.375-2.891-14.375l67.657-344.531c1.797-8.984 9.609-15.469 18.75-15.469 1.25 0 2.5.157 3.75.391l239.843 47.109c10.391 2.032 17.11 12.11 15.079 22.422l-67.657 344.531c-1.797 9.063-9.687 15.547-18.75 15.547"/><path fill="#2AEFC8" d="M500.156 620.078c-1.093 0-2.187-.078-3.281-.312l-210.781-41.407c-4.375-.859-8.203-3.359-10.703-7.109s-3.438-8.203-2.5-12.656l59.453-302.735c1.562-7.89 8.437-13.593 16.484-13.593 1.094 0 2.188.078 3.282.312l210.781 41.406c9.062 1.797 15.078 10.625 13.281 19.766l-59.453 302.734c-1.641 7.891-8.516 13.594-16.563 13.594"/><path fill="orange" d="M526.875 214.453c1.094-2.109 2.031-4.375 2.5-6.875 2.812-13.906-6.328-27.422-20.234-30.156l-70.625-13.906c-13.907-2.735-27.422 6.328-30.157 20.234-.468 2.422-.468 4.766-.312 7.109-19.063-2.343-35.313 3.516-37.813 16.563l182.969 37.187c2.5-12.5-9.062-24.687-26.328-30.156"/><path fill="#29293A" d="M553.203 251.641c-.468 0-.937-.079-1.406-.157l-182.891-37.187c-3.75-.781-6.171-4.453-5.468-8.203 2.812-14.532 17.656-23.438 37.968-22.735.079-.312.079-.625.157-1.015 3.437-17.657 20.703-29.219 38.359-25.782l70.625 13.907c8.594 1.718 16.016 6.64 20.859 13.906s6.563 15.937 4.844 24.453c-.078.469-.234.938-.312 1.484 17.109 7.735 26.875 21.719 24.14 35.625-.39 1.797-1.406 3.438-2.968 4.454-1.172.859-2.579 1.25-3.907 1.25m-172.187-49.063 164.219 33.359c-2.891-6.015-10.391-11.64-20.469-14.843-1.953-.625-3.516-2.11-4.375-3.985-.781-1.875-.703-4.062.234-5.859.938-1.875 1.563-3.438 1.875-4.922 1.016-4.922 0-9.844-2.812-13.984-2.813-4.141-7.031-7.032-11.953-7.969l-70.625-13.906a18.733 18.733 0 0 0-21.953 14.765c-.313 1.485-.313 3.125-.157 5.157.156 2.109-.625 4.14-2.109 5.625-1.485 1.484-3.594 2.109-5.703 1.875-11.328-1.485-20.938.39-26.172 4.687"/><path fill="#fff" d="M470.312 210.547c-6.484-1.25-10.625-7.5-9.375-13.985s7.5-10.625 13.985-9.375 10.625 7.5 9.375 13.985c-1.328 6.484-7.579 10.625-13.985 9.375"/><path fill="orange" d="m430.09 328.285 117.846 24.242-2.047 9.949-117.846-24.242zm-95.263 19.914 205.313 42.236-2.047 9.949-205.313-42.237zm-7.814 37.887 205.313 42.237-2.047 9.948-205.313-42.237zm-7.797 37.812 205.312 42.236-2.047 9.948-205.312-42.237zm-7.814 37.887 205.313 42.236-2.047 9.949-205.313-42.237zm-8.27 40.344 147.384 30.32-2.047 9.948-147.383-30.32z"/></svg>