<svg xmlns="http://www.w3.org/2000/svg" width="800" height="800" fill="none" viewBox="0 0 800 800"><path fill="orange" d="M571.953 311.953C417.656 278.125 544.141 64.141 332.734 81.875S-79.14 586.406 296.172 700.39s568.75-324.219 275.781-388.438"/><path fill="#2AEFC8" d="M332.188 515.312c-3.829 0-6.954-3.124-6.954-6.953v-8.75c0-3.828 3.125-6.953 6.954-6.953h174.843c3.828 0 6.953 3.125 6.953 6.953v8.75c0 3.829-3.125 6.953-6.953 6.953z"/><path fill="#151B28" d="M506.953 499.531v8.75H332.188v-8.75zm0-13.984H332.188c-7.735 0-13.985 6.25-13.985 13.984v8.75a13.97 13.97 0 0 0 13.985 13.985h174.843a13.97 13.97 0 0 0 13.985-13.985v-8.75c-.078-7.656-6.328-13.984-14.063-13.984"/><path fill="orange" d="M298.125 590.156a6.89 6.89 0 0 1-5.39-2.578c-1.329-1.641-1.875-3.75-1.407-5.781l26.875-131.641c.625-3.281 3.516-5.625 6.875-5.625h12.657c2.109 0 4.062.938 5.39 2.578 1.328 1.641 1.875 3.75 1.406 5.782l-26.875 131.64c-.625 3.282-3.515 5.625-6.875 5.625z"/><path fill="#151B28" d="m337.578 451.563-26.875 131.64h-12.656l26.875-131.64zm0-13.985h-12.656c-6.641 0-12.344 4.688-13.672 11.172l-26.875 131.641c-.86 4.14.234 8.359 2.89 11.64s6.641 5.157 10.86 5.157h12.656c6.641 0 12.344-4.688 13.672-11.172l26.875-131.641c.859-4.141-.234-8.359-2.891-11.641s-6.64-5.156-10.859-5.156"/><path fill="orange" d="M528.359 590.156c-3.359 0-6.172-2.343-6.875-5.625l-26.875-131.64c-.39-2.032.078-4.219 1.407-5.782a6.9 6.9 0 0 1 5.39-2.578h12.656c3.36 0 6.172 2.344 6.875 5.625l26.875 131.641c.391 2.031-.078 4.219-1.406 5.781a6.88 6.88 0 0 1-5.39 2.578z"/><path fill="#151B28" d="m514.219 451.562 26.875 131.641h-12.656l-26.876-131.641zm0-13.984h-12.657c-4.218 0-8.203 1.875-10.859 5.156-2.656 3.282-3.672 7.5-2.89 11.641l26.874 131.641c1.329 6.484 7.032 11.172 13.672 11.172h12.657c4.218 0 8.203-1.876 10.859-5.157s3.672-7.5 2.891-11.64L527.891 448.75c-1.328-6.484-7.032-11.172-13.672-11.172m-94.688-18.281a7.25 7.25 0 0 1-7.265-7.266v-61.25a7.25 7.25 0 0 1 7.265-7.265c4.063 0 7.266 3.203 7.266 7.265v61.328c0 3.985-3.203 7.188-7.266 7.188m-59.14 0a7.25 7.25 0 0 1-7.266-7.266v-61.25a7.25 7.25 0 0 1 7.266-7.265c4.062 0 7.265 3.203 7.265 7.265v61.328c0 3.985-3.203 7.188-7.265 7.188m118.359 0a7.25 7.25 0 0 1-7.266-7.266v-61.25a7.25 7.25 0 0 1 7.266-7.265c4.062 0 7.266 3.203 7.266 7.265v61.328c-.079 3.985-3.282 7.188-7.266 7.188"/><path fill="#fff" d="M337.188 357.969c-28.047 0-50.86-22.813-50.86-50.86v-46.718c0-28.047 22.813-50.86 50.86-50.86h164.687c28.047 0 50.859 22.813 50.859 50.86v46.718c0 28.047-22.812 50.86-50.859 50.86z"/><path fill="#151B28" d="M501.875 216.797c24.063 0 43.594 19.531 43.594 43.594v46.718c0 24.063-19.531 43.594-43.594 43.594H337.188c-24.063 0-43.594-19.531-43.594-43.594v-46.718c0-24.063 19.531-43.594 43.594-43.594zm0-14.453H337.188c-32.032 0-58.047 26.015-58.047 58.047v46.718c0 32.032 26.015 58.047 58.047 58.047h164.687c32.031 0 58.047-26.015 58.047-58.047v-46.718c.078-32.032-26.016-58.047-58.047-58.047"/><path fill="#2AEFC8" d="M489.531 339.531H367.656c-21.64 0-39.218-17.578-39.218-39.219v-13.124c0-21.641 17.578-39.219 39.218-39.219h121.875c21.641 0 39.219 17.578 39.219 39.219v13.124c-.078 21.719-17.578 39.219-39.219 39.219"/><path fill="#151B28" d="M485.938 242.734c16.484 0 29.843 13.36 29.843 29.844V295c0 16.484-13.359 29.844-29.843 29.844H353.203c-16.484 0-29.844-13.36-29.844-29.844v-22.422c0-16.484 13.36-29.844 29.844-29.844zm0-7.343H353.203c-20.469 0-37.187 16.64-37.187 37.187V295c0 20.469 16.64 37.188 37.187 37.188h132.735c20.468 0 37.187-16.641 37.187-37.188v-22.422c0-20.547-16.719-37.187-37.187-37.187"/><path fill="#fff" d="M464.375 294.219h-89.609c-5.782 0-10.391-4.688-10.391-10.391 0-5.781 4.688-10.39 10.391-10.39h89.687c5.781 0 10.391 4.687 10.391 10.39-.078 5.703-4.688 10.391-10.469 10.391M284.063 458.828c-13.047 0-23.672-10.625-23.672-23.672v-3.75c0-13.047 10.625-23.672 23.672-23.672h271.015c13.047 0 23.672 10.625 23.672 23.672v3.75c0 13.047-10.625 23.672-23.672 23.672z"/><path fill="#151B28" d="M555.078 414.844c9.063 0 16.484 7.343 16.484 16.484v3.75c0 9.063-7.343 16.484-16.484 16.484H284.063c-9.063 0-16.485-7.343-16.485-16.484v-3.75c0-9.062 7.344-16.484 16.485-16.484zm0-14.453H284.063c-17.032 0-30.938 13.906-30.938 30.937v3.75c0 17.031 13.906 30.938 30.938 30.938h271.015c17.031 0 30.938-13.907 30.938-30.938v-3.75c0-17.031-13.907-30.937-30.938-30.937"/><path fill="#2AEFC8" d="M544.453 439.687H294.688c-3.516 0-6.407-2.89-6.407-6.406s2.891-6.406 6.407-6.406h249.687c3.516 0 6.406 2.891 6.406 6.406.078 3.516-2.812 6.406-6.328 6.406"/></svg>