<svg xmlns="http://www.w3.org/2000/svg" width="800" height="800" fill="none" viewBox="0 0 800 800"><path fill="orange" d="M571.953 311.953C417.656 278.125 544.141 64.141 332.734 81.875S-79.14 586.406 296.172 700.39s568.75-324.219 275.781-388.438"/><path fill="#151B28" d="M459.922 241.797c9.922 0 17.969 8.047 17.969 17.969v43.281c0 9.922-8.047 17.969-17.969 17.969h-65.156c-9.922 0-17.969-8.047-17.969-17.969v-43.281c0-9.922 8.047-17.969 17.969-17.969zm0-14.453h-65.156c-17.891 0-32.5 14.531-32.5 32.5v43.281c0 17.891 14.531 32.5 32.5 32.5h65.156c17.89 0 32.5-14.531 32.5-32.5v-43.281c-.078-17.969-14.61-32.5-32.5-32.5"/><path fill="#fff" d="M256.484 534.766c-13.828 0-25.078-11.25-25.078-25.078V295.313c0-13.829 11.25-25.079 25.078-25.079h341.719c13.828 0 25.078 11.25 25.078 25.079v214.375c0 13.828-11.25 25.078-25.078 25.078z"/><path fill="#151B28" d="M598.203 277.422c9.844 0 17.891 7.969 17.891 17.89v214.376c0 9.921-8.047 17.89-17.891 17.89H256.484c-9.843 0-17.89-7.969-17.89-17.89V295.312c0-9.921 8.047-17.89 17.89-17.89zm0-14.453H256.484c-17.812 0-32.343 14.531-32.343 32.343v214.376c0 17.812 14.531 32.343 32.343 32.343h341.719c17.813 0 32.344-14.531 32.344-32.343V295.312c0-17.812-14.531-32.343-32.344-32.343"/><path fill="#2AEFC8" d="M618.203 312.578v200.391c0 9.297-7.5 16.718-16.719 16.718H281.953c-9.219 0-16.719-7.421-16.719-16.718V312.578c0-9.297 7.5-16.719 16.719-16.719h319.453c9.297 0 16.797 7.422 16.797 16.719"/><path fill="#151B28" d="M238.594 477.656c27.578 0 49.844 22.344 49.844 49.844h-32.032c-9.843 0-17.89-7.969-17.89-17.891v-31.953m.078-7.343a7.335 7.335 0 0 0-7.344 7.343v32.032c0 13.906 11.328 25.234 25.234 25.234h32.032a7.335 7.335 0 0 0 7.343-7.344c-.078-31.64-25.703-57.265-57.265-57.265m377.422 7.343v32.032c0 9.921-8.047 17.89-17.891 17.89h-32.031c.078-27.656 22.422-49.922 49.922-49.922m0-7.343c-31.563 0-57.266 25.703-57.266 57.265a7.335 7.335 0 0 0 7.344 7.344h32.031c13.906 0 25.234-11.328 25.234-25.234v-32.032c.079-4.062-3.281-7.343-7.343-7.343M288.438 277.891c0 27.578-22.344 49.843-49.844 49.843v-32.031c0-9.922 8.047-17.89 17.89-17.89h31.954m0-7.266h-32.032c-13.906 0-25.234 11.328-25.234 25.234v32.032a7.335 7.335 0 0 0 7.344 7.343c31.484 0 57.109-25.547 57.265-57.031v-.156c0-4.141-3.281-7.422-7.343-7.422m309.765 7.344c9.844 0 17.891 7.968 17.891 17.89v32.032c-27.578 0-49.844-22.344-49.844-49.844h31.953m0-7.422h-32.031a7.335 7.335 0 0 0-7.344 7.344c0 31.562 25.703 57.265 57.266 57.265a7.335 7.335 0 0 0 7.344-7.343v-32.032c0-13.906-11.329-25.234-25.235-25.234"/><path fill="orange" d="M351.016 492.656c-5.079 0-9.219-4.14-9.219-9.219V328.516c0-5.079 4.14-9.219 9.219-9.219s9.218 4.14 9.218 9.219v154.921c0 5.079-4.14 9.219-9.218 9.219"/><path fill="#151B28" d="M351.016 322.969c3.047 0 5.547 2.5 5.547 5.547v154.921c0 3.047-2.5 5.547-5.547 5.547s-5.547-2.5-5.547-5.547V328.516a5.52 5.52 0 0 1 5.547-5.547m0-7.344c-7.11 0-12.891 5.781-12.891 12.891v154.921c0 7.11 5.781 12.891 12.891 12.891 7.109 0 12.89-5.781 12.89-12.891V328.516c0-7.11-5.781-12.891-12.89-12.891"/><path fill="orange" d="M427.344 492.656c-5.078 0-9.219-4.14-9.219-9.219V328.516c0-5.079 4.141-9.219 9.219-9.219s9.218 4.14 9.218 9.219v154.921c0 5.079-4.14 9.219-9.218 9.219"/><path fill="#151B28" d="M427.344 322.969c3.047 0 5.547 2.5 5.547 5.547v154.921c0 3.047-2.5 5.547-5.547 5.547s-5.547-2.5-5.547-5.547V328.516a5.52 5.52 0 0 1 5.547-5.547m0-7.344c-7.11 0-12.891 5.781-12.891 12.891v154.921c0 7.11 5.781 12.891 12.891 12.891 7.109 0 12.89-5.781 12.89-12.891V328.516c0-7.11-5.781-12.891-12.89-12.891"/><path fill="orange" d="M503.672 492.656c-5.078 0-9.219-4.14-9.219-9.219V328.516c0-5.079 4.141-9.219 9.219-9.219s9.219 4.14 9.219 9.219v154.921c0 5.079-4.141 9.219-9.219 9.219"/><path fill="#151B28" d="M503.672 322.969c3.047 0 5.547 2.5 5.547 5.547v154.921c0 3.047-2.5 5.547-5.547 5.547s-5.547-2.5-5.547-5.547V328.516c-.078-3.047 2.422-5.547 5.547-5.547m0-7.344c-7.11 0-12.891 5.781-12.891 12.891v154.921c0 7.11 5.781 12.891 12.891 12.891 7.109 0 12.89-5.781 12.89-12.891V328.516c0-7.11-5.781-12.891-12.89-12.891"/></svg>