<svg xmlns="http://www.w3.org/2000/svg" width="800" height="800" fill="none" viewBox="0 0 800 800"><path fill="orange" d="M571.953 311.953C417.656 278.125 544.141 64.141 332.734 81.875S-79.14 586.406 296.172 700.391s568.75-324.219 275.781-388.438"/><path fill="#000" d="M325.86 653.359c-16.797 0-33.047-5-47.032-14.375l-18.125-12.109c-38.672-26.016-49.062-78.672-23.047-117.344l144.219-214.843 31.953 21.484c.625.391 1.328.625 2.032.625.234 0 .468 0 .703-.078.937-.157 1.797-.782 2.343-1.563l35.313-52.656 87.031 58.437-35.312 52.657c-.547.781-.782 1.797-.547 2.734.156.938.781 1.797 1.562 2.344l33.36 22.344S395.938 616.094 395.938 616.172a84.36 84.36 0 0 1-70.078 37.187"/><path fill="#fff" d="m432.469 323.546 26.081-38.856 60.586 40.666-26.081 38.856z"/><path fill="orange" d="m445.771 332.369 19.326-28.805 47.294 31.732-19.327 28.805z"/><path fill="#fff" d="M301.406 632.891c.86-3.828 2.344-7.578 4.688-11.094a34.32 34.32 0 0 1 47.578-9.375c5 3.359 8.594 7.812 11.172 12.812a68.78 68.78 0 0 1-63.438 7.657"/><path fill="#fff" d="M382.89 607.031c-1.015 1.485-2.109 2.891-3.203 4.297a53.5 53.5 0 0 0-15-15.234 54.006 54.006 0 0 0-74.843 14.687c-2.657 3.907-4.61 8.047-6.094 12.266l-14.141-9.453c-31.406-21.172-39.844-63.75-18.75-95.235L386.25 316.641l132.031 88.593z"/><path fill="#2AEFC8" d="M373.984 594.453c-.781 1.172-1.719 2.344-2.578 3.438-3.047-4.688-7.109-8.828-12.031-12.188a43.22 43.22 0 0 0-59.922 11.797c-2.109 3.125-3.672 6.484-4.844 9.844l-11.328-7.578a55.024 55.024 0 0 1-15-76.25l108.438-161.563L482.5 432.969z"/><path fill="#000" d="M572.734 321.25c-.156-.156-.312-.312-.546-.391l-132.032-88.593c-.156-.157-.39-.235-.547-.313l-12.734-8.515 18.047-26.875c15.781-23.438 42.031-37.422 70.312-37.422 16.797 0 33.047 5 47.032 14.375l18.125 12.109c38.671 26.016 49.062 78.594 23.047 117.344l-18.047 26.875z"/><path fill="#fff" d="M458.125 205.391c21.172-31.407 63.75-39.844 95.234-18.75l18.125 12.109c31.407 21.172 39.766 63.75 18.75 95.234l-9.14 13.594-132.032-88.594z"/><path fill="#2AEFC8" d="M558.672 207.188a68.655 68.655 0 0 0-95.234 18.75l-1.25 1.953 118.906 79.843 9.14-13.593a67.87 67.87 0 0 0 11.25-44.844 68.56 68.56 0 0 0-24.687-29.922z"/></svg>