<svg xmlns="http://www.w3.org/2000/svg" width="800" height="800" fill="none" viewBox="0 0 800 800"><path fill="orange" d="M571.953 311.953C417.656 278.125 544.141 64.141 332.734 81.875S-79.14 586.406 296.172 700.391s568.75-324.219 275.781-388.438"/><path fill="orange" d="M289.063 591.328c-6.485 0-12.188-4.453-13.672-10.781l-6.485-26.484c-.546-2.11 0-4.297 1.25-6.016a6.88 6.88 0 0 1 5.469-2.656h248.672c2.109 0 4.141 1.015 5.469 2.656 1.328 1.719 1.797 3.906 1.25 6.016l-6.485 26.484c-1.562 6.328-7.187 10.781-13.671 10.781z"/><path fill="#151B28" d="m524.375 552.422-6.484 26.484a7.11 7.11 0 0 1-6.954 5.391H289.062c-3.281 0-6.171-2.266-6.953-5.391l-6.484-26.484zm0-13.984h-248.75c-4.297 0-8.359 1.953-11.016 5.39-2.656 3.359-3.593 7.813-2.578 11.953l6.485 26.485c2.343 9.453 10.781 16.093 20.468 16.093h221.953c9.766 0 18.204-6.64 20.469-16.093l6.485-26.485c1.015-4.14.078-8.594-2.579-11.953s-6.64-5.39-10.937-5.39"/><path fill="#fff" d="M528.516 565.547H271.484c-10 0-18.046-8.047-18.046-18.047V226.953c0-10 8.046-18.047 18.046-18.047h257.032c10 0 18.047 8.047 18.047 18.047V547.5c0 10-8.125 18.047-18.047 18.047"/><path fill="#151B28" d="M528.516 572.813H271.484c-13.906 0-25.312-11.329-25.312-25.313V226.953c0-13.906 11.328-25.312 25.312-25.312h257.032c13.906 0 25.312 11.328 25.312 25.312V547.5c-.078 13.984-11.406 25.313-25.312 25.313M271.484 216.094c-5.937 0-10.781 4.843-10.781 10.781v320.547c0 5.937 4.844 10.781 10.781 10.781h257.032c5.937 0 10.781-4.844 10.781-10.781V226.953c0-5.937-4.844-10.781-10.781-10.781H271.484z"/><path fill="#2AEFC8" d="M523.75 549.609H305.625a6.72 6.72 0 0 1-6.719-6.718V263.672c0-3.75 3.047-6.719 6.719-6.719H523.75c3.75 0 6.719 3.047 6.719 6.719v279.219a6.67 6.67 0 0 1-6.719 6.718"/><path fill="#151B28" d="M510.859 238.75a6.8 6.8 0 0 1 6.797 6.797v283.281a6.8 6.8 0 0 1-6.797 6.797H289.141a6.794 6.794 0 0 1-6.797-6.797V245.547a6.8 6.8 0 0 1 6.797-6.797zm0-7.344H289.141c-7.813 0-14.141 6.328-14.141 14.141v283.281c0 7.813 6.328 14.141 14.141 14.141h221.718c7.813 0 14.141-6.328 14.141-14.141V245.547c.078-7.813-6.328-14.141-14.141-14.141"/><path fill="#151B28" d="M400 539.922a3.67 3.67 0 0 1-2.596-1.076 3.67 3.67 0 0 1-1.076-2.596v-297.5c0-.974.387-1.908 1.076-2.596a3.67 3.67 0 0 1 5.192 0 3.67 3.67 0 0 1 1.076 2.596v297.5a3.67 3.67 0 0 1-3.672 3.672"/><path fill="orange" d="M365.938 391.875a11.003 11.003 0 0 1-11.016-11.016 11.003 11.003 0 0 1 11.016-11.015 11.003 11.003 0 0 1 11.015 11.015c0 6.094-5 11.016-11.015 11.016"/><path fill="#151B28" d="M365.937 373.516a7.34 7.34 0 0 1 7.344 7.343 7.34 7.34 0 0 1-7.344 7.344 7.344 7.344 0 0 1 0-14.687m0-7.344c-8.046 0-14.687 6.562-14.687 14.687s6.562 14.688 14.687 14.688a14.67 14.67 0 0 0 14.688-14.688c0-8.125-6.641-14.687-14.688-14.687"/><path fill="orange" d="M434.062 391.875a11.003 11.003 0 0 1-11.015-11.016 11.003 11.003 0 0 1 11.015-11.015 11.003 11.003 0 0 1 11.016 11.015 11.003 11.003 0 0 1-11.016 11.016"/><path fill="#151B28" d="M434.062 373.516a7.34 7.34 0 0 1 7.344 7.343 7.34 7.34 0 0 1-7.344 7.344 7.335 7.335 0 0 1-7.343-7.344c.078-4.062 3.359-7.343 7.343-7.343m0-7.344c-8.046 0-14.687 6.562-14.687 14.687s6.562 14.688 14.687 14.688c8.047 0 14.688-6.563 14.688-14.688s-6.563-14.687-14.688-14.687"/></svg>