<svg width="148" height="151" viewBox="0 0 148 151" fill="none" xmlns="http://www.w3.org/2000/svg">
<path d="M20.2 132.9C19.8 132.9 19.4 132.8 19.1 132.8C16.8 133.1 14.5 133.4 12.2 133.6C11.9 133.6 11.6 133.6 11.4 133.5C13.8 133.2 16.1 132.9 18.5 132.6C22 132.2 25.4 131.8 28.9 131.4C31.4 131.1 34 130.9 36.5 130.6C37.5 130.5 38.6 130.2 39.6 129.8C39.2 129.8 38.9 129.7 38.5 129.7C37.8 129.8 37.1 129.9 36.5 130C32.2 130.4 28 130.9 23.7 131.3C21.2 131.5 18.7 131.6 16.2 131.8C14.6 131.9 12.9 132.2 11.3 132.3C11.3 132.2 11.2 132.1 11.2 132C11.6 131.8 12.1 131.4 12.5 131.3C14.9 131.1 17.4 131 19.8 130.8C23.5 130.5 27.2 130.3 30.9 129.9C33.1 129.7 35.2 129.2 37.4 128.8C37.4 128.7 37.4 128.5 37.4 128.4C33.2 128.7 29.1 128.9 24.9 129.2C20.7 129.5 16.5 129.9 12.3 130.1C19.8 129.1 27.4 128.3 35 127.2C34.4 127.1 33.8 126.8 33.3 126.9C29.1 127.1 24.9 127.3 20.7 127.6C19.8 127.7 18.8 127.9 17.9 128C18.8 127.8 19.7 127.5 20.6 127.4C24 127 27.3 126.6 30.7 126.2C31.4 126.1 32.1 126 32.7 126C31.1 124.8 29.3 123.7 27.7 122.3C20.9 116.4 14.9 109.9 10.7 101.8C8.9 98.3 7.8 94.5 6.2 90.8C3.4 84.8 1.9 78.5 0.9 72.1C0.5 69.8 0 67.5 0 65.1C0.1 57.7 3.4 52.1 9.6 48.2C15.1 44.8 21.2 42.8 27.4 41.2C27.8 41.1 28.2 41 28.6 40.9C28.8 40.8 29 40.7 29.1 40.5C29.8 39 30.1 38.8 31.6 39.1C32.1 38.5 32.4 37.8 32.9 37.6C33.4 37.4 34.1 37.7 34.8 37.8C34.9 37.4 35.1 36.9 35.2 36.3C35.4 35.5 35.9 35.3 36.5 35.9C37 36.4 37.3 37 37.6 37.6C37.8 37.9 37.8 38.3 38 38.7C38.3 37.9 38.5 37 38.8 36.2C39.3 34.8 39.7 34.4 41.2 34.4C41.7 34.4 41.9 34.1 42.3 33.9C42.9 33.4 43.6 33.1 44.4 33C45.1 32.9 45.8 33.1 46.5 33C47.1 32.9 47.8 32.6 48.2 32.2C49.1 31.1 49.7 30.9 50.9 31.7C51 31.8 51.1 31.8 51.2 31.9C53 30.7 53 30.7 54.3 31.4C54.3 30.6 53.1 29.9 54.2 29.1C54.9 30 55.6 30.9 56.3 31.9C56.4 32.1 56.4 32.5 56.2 32.6C56 32.8 55.6 32.9 55.4 32.8C54.8 32.6 54.3 32.4 53.8 32.1C53.3 31.8 52.9 31.9 52.6 32.3C52.5 32.4 52.4 32.5 52.4 32.6C51.5 33.6 51.4 33.6 50.4 32.7C49.4 31.8 49.4 31.8 48.5 32.8C47.5 33.9 46.2 34.2 44.8 34C44.4 34 44.1 33.9 43.7 33.9C43.1 33.9 42.9 34.1 43 34.8C43.2 35.7 42.9 35.9 42 35.6C41.8 35.5 41.5 35.4 41.3 35.4C40.2 35.2 40 35.3 40 36.4C40 37.2 39.9 38 39.8 38.7C39.6 39.5 39.1 40.2 38.2 40.2C37.3 40.2 37.1 39.4 36.9 38.7C36.8 38.3 36.7 37.8 36.5 37.2C35.9 38.3 36.6 39.6 35.4 40.3C35.1 40 34.9 39.7 34.6 39.4C34.3 39.1 34.1 38.8 33.8 38.7C33.6 38.6 33.2 38.8 33 38.8C33.1 39 33.1 39.3 33.2 39.5C33.5 39.8 33.9 40.1 34.1 40.4C34.3 40.6 34.2 41 34.3 41.3C34 41.3 33.6 41.5 33.4 41.4C32.7 41.1 32.1 40.6 31.4 40.2C31.1 40 30.7 39.9 30.2 39.8C30.3 41 30.8 41.7 31.7 42.2C32.5 42.6 32.6 43 31.9 43.6C31 44.3 29.9 44.8 29 45.4C28.7 45.6 28.5 45.9 28.3 46.2C28.1 46.5 28 47 27.8 47.1C26.8 47.5 26.7 48.2 27.1 49C27.2 49.1 27 49.3 26.9 49.8C26.3 49.1 25.8 48.6 25.5 48C25.1 47.1 24.6 47.2 23.8 47.5C24 48.2 24.2 48.8 24.4 49.5C24.6 50.1 24.8 50.7 25 51.4C23.1 51.9 21.1 50.5 19.5 52.4C19.9 52.6 20.3 52.8 20.6 52.9C21 53 21.4 53 21.8 53.1C22.2 53.2 22.6 53.4 23 53.6C22.7 53.9 22.4 54.3 22.1 54.6C21.8 54.9 21.4 55.1 21.3 55.4C21 56.3 20.4 56.7 19.4 56.8C18.5 56.9 18 57.5 17.9 58.6C16 58.2 14.3 56.9 12.1 58C13.4 58.6 14.6 59.2 15.9 59.9C13.7 61.3 11.2 62.2 10 64.8C11.3 64.1 12.5 63.4 13.7 62.8C13.8 62.9 13.8 62.9 13.9 63C13.5 63.6 13.1 64.3 12.6 64.8C12 65.4 11.7 66 11.7 66.9C11.7 67.9 11.2 68.8 10.4 69.3C9.5 69.9 9.7 70.5 10.3 71C11.2 71.7 12.2 72.4 13.1 73C13.5 73.2 13.9 73.3 14.3 73.6C14.5 73.7 14.6 74 14.7 74.2C14.5 74.3 14.2 74.5 14 74.4C13.1 74 12.1 73.6 11.3 73.1C7.5 70.9 5.2 67.8 4.7 63.4C4.7 63.2 4.7 63.1 4.7 62.9C4.7 62.3 4.7 61.7 5.4 61.6C6.2 61.5 6.2 62.3 6.2 62.7C6.4 64.3 6.9 65.7 7.7 67C6.5 61.4 9.5 57.4 12.5 53.4C12.6 53.4 12.7 53.5 12.8 53.5C11.6 55.7 10.4 57.9 9.1 60.3C10.9 58.9 11.2 58.4 11.9 56.8C12.6 54.9 14.1 53.6 15.3 52C15.4 52.1 15.5 52.1 15.6 52.2C14.6 53.7 13.7 55.2 12.6 56.8C13.3 56.8 13.7 56.7 14 56.1C14.5 55.1 15.1 54.3 15.7 53.4C15.9 53.1 16.2 53 16.4 52.7C16.5 52.7 16.5 52.8 16.6 52.8C16.1 53.8 15.7 54.8 15.2 55.8C15.3 55.8 15.3 55.9 15.4 55.9C15.6 55.6 15.8 55.4 15.9 55.1C17.8 52.1 20.3 49.6 22.8 47.1C23.8 46.1 25.4 46.3 26.4 47.6C26.8 47.2 27.3 46.8 27.5 46.3C27.8 45.2 28.7 44.7 29.6 44.3C30.1 44 30.6 43.7 31.1 43.4C30.2 42 30.1 41.9 28.6 42.5C24.4 44 20.1 45.3 16 47.1C13.4 48.2 11 49.8 8.8 51.6C2.7 55.7 0.6 61.4 2.9 68C3.7 70.2 5.1 72.3 6.8 74C8.9 76.1 11.3 77.8 14 79.2C19.2 81.8 24.7 83.2 30.3 84.4C31.8 84.7 32.1 84.9 32.6 85.6C30.5 85.5 28.5 85.3 26.4 85.2C26.5 87 26.6 88.7 26.8 90.5C26.7 90.5 26.7 90.5 26.6 90.5C26.4 89.2 26.2 87.9 26 86.6C25.8 84.9 25.8 84.9 24.2 84.6C23.7 84.5 23.2 84.4 22.8 84.2C23.1 86.9 23.4 89.6 23.8 92.3C23.7 92.3 23.5 92.3 23.4 92.4C23.3 92.1 23.3 91.9 23.2 91.6C22.9 89.4 22.6 87.1 22.4 84.9C22.3 84.3 22.1 83.9 21.4 83.7C20.6 83.5 19.9 83.2 19 82.9C19.3 84.3 19.7 85.7 20 87H19.9C19.5 85.7 19.2 84.5 18.8 83.3C18.7 83 18.4 82.6 18.1 82.5C17.2 82 16.3 81.6 15.2 81.2C16.5 90.3 17.7 99.4 23.2 107.1C23 107.2 22.8 107.3 22.4 107.5C23.5 109.6 24.6 111.8 25.7 113.9C25.9 114.3 26.4 114.5 26.7 114.8C27.2 115.3 27.7 115.9 28.1 116.4C28 116.5 28 116.5 27.9 116.6C27.7 116.5 27.4 116.3 27.2 116.2C27.1 116.2 27.1 116.3 27 116.3C27.9 117.5 28.8 118.7 29.7 119.9L29.6 120C29.3 119.8 28.9 119.6 28.7 119.3C27.8 118 26.9 116.7 26 115.5C25.6 114.9 25.1 114.2 24.5 113.9C21.4 112.2 19.3 109.5 17.5 106.6C15.1 102.6 13.6 98.2 12.3 93.7C11.3 90.6 10.6 87.4 9.7 84.2C9.6 84 9.6 83.8 9.7 83.5C10.4 86 11.1 88.4 11.9 90.9C13.3 95.3 14.4 99.7 16.5 103.8C17.9 106.4 19.3 109.1 21.7 110.9C20 107.4 18.1 104 16.6 100.4C15.2 96.7 14.2 92.8 13.1 89C13.2 89 13.2 89 13.3 88.9C13.8 90.6 14.4 92.3 14.8 94C16.4 100.1 19.4 105.6 22.5 111C22.9 111.7 23.5 112.2 24.2 112.7C24.2 112.5 24.1 112.4 24.1 112.2C22.7 109.4 21.2 106.6 19.8 103.8C17.8 99.9 16.6 95.6 15.6 91.3C14.9 87.9 14.3 84.5 13.7 81.1C13.6 80.4 13.3 80.1 12.7 79.8C10 78.3 7.3 76.7 5.2 74.3C4.3 73.3 3.7 72.2 3 71.2C4.5 78 5.5 85.2 9.2 91.5C7.9 86.4 6.7 81.3 5.4 76.2C5.5 76.2 5.5 76.2 5.6 76.1C6.1 78.1 6.6 80.1 7.2 82.1C8.2 85.5 9 88.9 10.2 92.3C10.8 94 11.8 95.5 12.6 97.2C12.8 97.6 13 98 13.3 98.6C12.9 98.5 12.7 98.5 12.3 98.4C14.1 101.6 15.9 104.6 17.6 107.7C14.2 103.3 11.9 98.2 8.9 93.6C9 93.8 9 94 9.1 94.2C10.6 98.7 13.1 102.7 16 106.4C21.3 113.1 27.1 119.4 34 124.4C39.3 128.2 45 131.2 51.2 133.5H51.3C49.4 131.6 47.4 129.6 45.4 127.7C45.5 127.6 45.6 127.5 45.6 127.4C45.7 127.5 45.9 127.5 46 127.6C48.4 129.7 50.7 131.9 53.2 133.8C54 134.4 55.2 134.5 56.2 134.7C54.8 133 53.4 131.4 52 129.7C52.1 129.6 52.1 129.6 52.2 129.5C52.3 129.6 52.5 129.6 52.6 129.7C54.3 131.4 55.9 133.1 57.6 134.7C57.9 135 58.5 135.2 59 135.3C59.5 135.4 60 135.4 60.6 135.5C59.3 133.8 58.1 132.2 56.8 130.6C57 130.4 57.1 130.3 57.3 130.1C57.4 130.4 57.5 130.7 57.7 130.9C58.7 132.1 59.9 133.1 60.9 134.4C61.8 135.5 62.9 135.7 64.2 135.5C63.3 133.8 62.4 132.2 61.5 130.6C61.6 130.5 61.8 130.3 61.9 130.2C62 130.4 62 130.7 62.1 130.9C63 132.2 63.9 133.5 64.7 134.8C65.1 135.4 65.5 135.6 66.2 135.6C66.8 135.5 67.4 135.6 68.1 135.6C67.5 133.9 66.9 132.3 66.3 130.7C66.4 130.7 66.5 130.6 66.6 130.6C66.7 130.8 66.9 131 67 131.2C67.5 132.3 68.1 133.4 68.6 134.6C68.9 135.4 69.4 135.7 70.2 135.5C70.6 135.4 70.9 135.5 71.4 135.5C71 133.8 70.6 132.2 70.1 130.7C70.2 130.7 70.3 130.6 70.4 130.6C70.6 130.9 70.7 131.2 70.9 131.5C71.3 132.5 71.7 133.5 72 134.6C72.2 135.3 72.5 135.6 73.3 135.5C73.8 135.4 74.4 135.4 74.6 135.4C75.7 132.8 76.8 130.3 77.8 127.9C77.9 127.9 78 127.9 78.1 127.9C78.1 128.2 78.2 128.5 78.2 128.7C77.3 130.9 76.4 133.2 75.5 135.4C76.4 135.3 77.3 135.3 78.3 135.2C78.6 135.2 78.8 134.9 79 134.7C80.1 133.3 81.2 131.8 82.3 130.3C82.4 130.1 82.6 130 82.8 129.9C82.9 130 83 130.1 83.1 130.1C82.1 131.7 81 133.3 80 135C80.7 135.2 81.2 135 81.7 134.5C83.3 132.8 84.9 131.1 86.5 129.5C86.6 129.4 86.7 129.4 86.9 129.4C86 130.6 85.2 131.9 84.3 133.2C85 133.2 85.6 133.2 86.4 133.2C87.8 132 89.3 130.6 90.8 129.2C90.9 129.2 90.9 129.3 91 129.3C90.1 130.4 89.2 131.5 88.3 132.5C90.3 131.9 91.6 130.4 93.2 129.1C92.2 130.2 91.3 131.3 90.3 132.4C90.6 132.4 90.8 132.4 91.3 132.4C90.1 133 89.2 133.6 88.2 134.1C91.1 134.4 93 132.7 94.7 130.7C94.8 130.8 94.9 130.9 95 131C94.5 131.6 93.9 132.3 93.4 132.9C99 130.7 104.8 129 109.4 124.9C116 119.1 122.3 113.2 128.3 106.7C131.7 103 134.4 98.9 136.3 94.3C136.4 94.1 136.5 93.8 136.6 93.6V93.5C134.8 96.1 133 98.8 131.2 101.4C131 101.7 130.7 102.1 130.5 102.4C130.3 102.6 130.1 102.6 129.9 102.7C129.9 102.5 129.9 102.2 130 102C130.1 101.8 130.2 101.6 130.4 101.4C134.4 95.9 136.5 89.6 138.7 83.3C139.4 81.1 140.2 78.8 140.9 76.6C141 76.4 141 76.3 141.3 76.2C139.6 81.5 138 86.8 136.3 92.1C140.4 85.8 141.8 78.5 143.6 71C141.5 74.3 138.5 76.2 135.4 77.9C135.2 78 135 78.1 135 78.2C134.8 79.6 134 80.8 133.8 82.4C134.2 82 134.5 81.8 134.8 81.5L134.9 81.6C134.6 82 134.5 82.6 134.1 82.9C133.2 83.6 132.9 84.6 132.6 85.5C131.1 89.7 129.7 94 127.5 97.9C126.4 99.8 125.1 101.6 123.9 103.5C123.8 103.5 123.7 103.4 123.6 103.4C123.7 103.1 123.7 102.7 123.9 102.5C124.6 101.3 125.5 100.2 126.1 99C127.3 96.8 128.3 94.6 129.4 92.4C129.3 92.3 129.2 92.3 129.2 92.2C128.9 92.3 128.7 92.5 128.4 92.6C128.4 92.5 128.3 92.4 128.3 92.4C129.9 91.3 130.5 89.5 131.1 87.9C131.6 86.7 132 85.5 132.5 84.3C129.9 85.2 128.4 87 128.1 89.7C128.5 89.5 128.9 89.2 129.4 89L129.5 89.1C129.4 89.2 129.3 89.3 129.1 89.4C128 90.1 127.5 91.1 127 92.3C124.7 98.9 121.9 105.3 118.1 111.2C116.9 113 115.6 114.6 114.2 116.3C114.1 116.5 113.7 116.5 113.5 116.6C113.4 116.5 113.3 116.4 113.3 116.3C113.9 115.5 114.5 114.7 115.1 113.9C118.2 110.2 120.7 106.1 122.7 101.7C122.8 101.5 122.8 101.4 122.9 101.1C121.8 102.1 120.8 102.9 119.8 103.8C119.9 103.8 120 103.9 120.2 104C119.9 104.4 119.6 104.8 119.2 105.2C119 104.8 119 104.5 118.8 103.9C117.3 107.6 116.2 111.2 113.5 114C116.4 109.1 117.9 103.6 119.9 98.3C119.8 98.2 119.7 98.2 119.6 98.1C119.4 98.4 119 98.8 118.9 99.1C117.9 101.9 117 104.7 116 107.6C114.5 111.9 111.9 115.5 109 118.9C107.3 120.8 105.7 122.7 104.1 124.6C103.9 124.3 103.6 123.9 103.3 123.6C106.1 119.8 110.5 117.4 112.7 112.8C110.6 114.9 108.6 116.9 106.7 119C104.7 121.1 102.7 123.3 100.7 125.5C100.1 126.2 99.6 126.9 99 127.6C98.8 127.8 98.6 127.9 98.3 128C98.3 127.7 98.1 127.3 98.2 127.1C98.7 126.3 99.2 125.5 99.9 124.8C102.5 122 105.1 119.3 107.8 116.5C108.1 116.2 108.4 115.8 108.8 115.5C112.4 112.7 114 108.8 114.8 104.4C114.9 104 115 103.6 115.1 103.2C115.1 103.2 115.2 103.2 115.4 103.2C114.9 105.5 114.5 107.8 114 110.3C115 107.9 116 105.8 116.8 103.6C117.6 101.4 118.3 99.1 119.1 96.8C120 97 120.6 96.5 121 95.6C121.3 94.9 121.6 94.2 121.9 93.4C121.2 93.6 120.5 93.8 119.9 94.1C119.6 94.2 119.3 94.6 119.2 94.9C118.6 96.7 117.2 97.7 115.4 98.1C114.7 98.3 113.8 98.4 113.8 99.5C113.8 99.6 113.4 99.8 113.4 99.8C113.2 99.6 113 99.4 112.7 99C111.9 99.4 111.1 100 110.2 100.4C110 100.5 109.6 100.3 109.2 100.1C110.6 99.6 111.1 98.4 111.6 97.3C112.1 96.2 112.4 95 112.7 93.9C112.8 95.6 112 97.1 111.3 98.8C113.2 98.5 114.6 97.7 115 95.7C114.6 95.7 114.2 95.8 113.7 95.8C113.7 95.7 113.6 95.6 113.6 95.5C114 95.3 114.3 95.1 114.7 95C115.4 94.9 115.8 94.4 116.1 93.8C116.7 92.5 117.4 91.3 118 90.1C118.1 90.1 118.1 90.2 118.2 90.2C117.6 91.5 117 92.8 116.5 94.1C119.3 93.7 120.3 92.9 120.9 90.4C120.5 90.4 120.1 90.5 119.8 90.5C119.7 90.5 119.5 90.3 119.4 90.3C119.5 90.2 119.6 90 119.7 89.9C119.8 89.8 119.9 89.8 120 89.8C120.9 89.7 121.9 89.7 122.2 88.5C122.2 88.7 122.2 89 122.1 89.2C124.7 89.2 124.7 86.7 125.8 85.2C125.9 85.2 126 85.3 126.1 85.3C125.8 86.1 125.4 87 125.1 87.8C125.2 87.9 125.2 87.9 125.3 88C125.6 87.6 126 87.3 126.3 86.9C127.4 84.9 128.4 82.8 129.6 80.5C127.5 81.1 125.6 81.6 123.6 82C123.3 82.1 123 82 122.7 82C122.7 81.9 122.7 81.8 122.6 81.7C122.9 81.5 123.2 81.3 123.5 81.2C124.8 80.8 126.1 80.3 127.3 79.9C128 79.6 128.8 79.4 129 78.5C129 78.3 129.2 78.2 129.2 78C129.3 78.1 129.4 78.1 129.4 78.2C129.4 78.5 129.4 78.7 129.4 79C129.7 78.8 130 78.7 130.4 78.6C130.3 78.5 130.2 78.4 130.1 78.4C132.1 77.3 134.2 76.3 136 75C138.2 73.4 140.9 72.5 142.3 69.9C142.8 69 143.3 68 143.9 67.2C144.1 66.9 144.6 66.7 145 66.5C146.4 62.9 146.7 59.2 144.5 55.7C143.2 53.6 141.3 52 139.1 50.8C137.2 49.8 135.3 48.9 133.3 48.2C129.3 46.6 125.2 45.1 121.1 43.5C120.8 43.4 120.4 43.2 120 43.1C120 43.9 120 44.6 120 45.3C122.4 46.8 124.8 48.4 125.3 51.6C125.9 50.8 125.8 50.9 125.5 50.1C124.8 48.3 123.6 47 122 45.8C122.3 45.6 122.6 45.3 122.8 45.3C123 45.3 123.1 45.7 123.3 45.9C123.6 46.1 124 46.5 124.1 46.5C124.6 46.2 124.9 46.5 125.3 46.8C126 47.3 126.9 47.3 127.4 48.1C127.5 48.3 128.1 48.2 128.6 48.2C128.8 48.5 129 48.9 129.3 49.3C129.6 49 129.9 48.8 130.1 48.6C130.9 49.3 131.7 50.1 132.6 50.9C132.6 50.3 132.6 50 132.5 49.6C132.6 49.6 132.7 49.5 132.8 49.5C133.3 50.2 133.7 50.8 134.2 51.5C134.3 51.5 134.3 51.4 134.4 51.4C134.3 51.2 134.1 50.9 134 50.6C134.5 50.3 134.9 50.3 135.2 51C135.4 51.5 136 51.7 136.6 51.4C137.1 52.7 137.7 54 138.3 55.5C138.3 55 138.4 54.7 138.4 54.2C139.3 55.2 139.3 56.4 139.6 57.4C139.6 56.6 139.6 55.7 139.6 54.9C139.7 54.9 139.8 54.9 139.9 54.8C140.2 56.5 140.4 58.1 140.8 59.8C141.2 61.6 140.1 63.1 139.9 64.8C140 64.8 140.1 64.9 140.2 64.9C140.5 63.8 141 62.8 141.1 61.7C141.2 60.7 141.1 59.6 141 58.5C141 58.3 140.9 58 140.9 57.8C141 57.5 141.1 57.2 141.2 56.9C141.5 57.1 142 57.2 142.1 57.4C142.4 58.1 142.6 58.9 142.7 59.7C143 63.4 142 66.8 139.8 69.9C138.9 71.2 137.6 72 136.3 72.6C130.5 75.5 124.2 77.2 117.9 78.4C114.2 79.1 110.4 79.8 106.7 80.3C105.2 80.5 103.7 80.3 102.1 80.2C102.9 79.9 103.8 79.6 104.7 79.2C104.3 78.4 104.8 77.7 105.5 77.5C107.5 76.7 109.6 76 111.6 75.5C112.8 75.2 113.6 76.2 113.7 77.7C115.7 77.3 117.7 77 119.9 76.6C118.5 75.6 116.8 75.5 115.3 74.3C115.9 74.2 116.2 74.1 116.6 74C116.4 73.9 116.3 73.8 116.1 73.7C115.3 73.4 114.9 72.8 115.2 71.8C115.4 71 116.1 70.6 116.8 70.9C118.4 71.5 120.1 72.1 121.6 73C122.7 73.6 122.7 74.3 122.4 76C127.9 74.4 133.3 72.8 138.2 69.9C138.1 69.1 138.1 68.5 137.9 67.8C137.7 67 137.4 66.2 137 65.5C136.9 65.3 136.6 65.2 136.4 65.2C136.1 65.2 135.8 65.2 135.5 65.2C135.1 65.2 134.7 65 134.3 65C134.5 64.7 134.6 64.4 134.9 64.1C135.5 63.3 135.4 62.5 135 61.5C134.7 62 134.6 62.5 134.3 62.9C133.8 63.6 133 63.6 132.7 62.8C132.3 61.7 132.1 60.6 132 59.4C131.9 58.1 132 56.7 130.8 55.8C130.7 55.7 130.8 55.2 130.7 54.9C130 55.4 129.2 55.8 128.3 56.4C128.3 54.3 128.7 52.5 127.7 50.6C127.2 51.2 126.9 51.8 126.5 52.3C125.8 53.1 125.3 53 124.8 52.1C124.1 50.9 123.4 49.7 122.6 48.6C122 47.9 121.2 47.3 120.4 46.9C119 46.2 118.7 45.5 119.2 44.1C119.4 43.6 119.9 42.9 119 42.5C118.7 42.9 118.5 43.2 118.2 43.6C117.9 43.9 117.6 44.3 117.3 44.7C116.1 43.3 117 41.6 116.2 40.2C116 41.1 115.8 42 115.5 42.8C115.4 43 115.1 43.4 114.9 43.4C114.7 43.4 114.4 43.1 114.2 42.9C114 42.6 113.9 42.1 113.8 41.8C113.7 41.5 113.5 41.1 113.2 41C112.5 40.7 112 40.5 112.3 39.5C112.3 39.4 111.7 38.9 111.3 38.8C110.7 38.6 110 38.6 109.3 38.6C109.2 38.4 109.1 38.3 109 38.1C109.7 37.7 110.3 37.2 111 36.8C110.9 36.7 110.8 36.5 110.7 36.4C110.3 36.5 109.8 36.6 109.4 36.7C108.9 36.8 108.4 36.9 107.9 36.9C107.1 36.9 106.9 36.4 107.3 35.8C107.7 35.2 108.1 34.6 108.6 34C108.7 34.2 108.9 34.5 108.9 34.7C108.9 35 108.8 35.4 108.7 35.7C109.2 35.7 109.6 35.7 110.1 35.7C111.4 35.7 111.8 36.3 111.1 37.4C111 37.5 111 37.6 110.9 37.8C112.1 37.9 112.9 38.4 113.2 39.6C113.3 40.2 114.2 40.6 114.8 41.2C115 40.6 115.3 39.9 115.5 39.2C116.9 39.4 117 39.4 117.5 42.8C117.9 42.5 118.4 42.6 118.6 41.8C118.7 41.2 119.4 41.3 119.9 41.5C122.4 42.3 124.9 43 127.3 43.9C131.1 45.3 134.8 46.8 138.5 48.2C144.8 50.6 147.3 55.6 147.9 62C148.1 64.1 147.6 66.1 147 68.2C146.1 71.2 145.4 74.2 144.6 77.2C143.5 81.7 142 86 140 90.1C138.4 93.5 136.9 96.9 135.3 100.3C133 105.2 129.5 109.2 125.7 113.1C122.7 116.2 119.4 119.2 116.3 122.2C116.2 122.3 116.2 122.4 116 122.6C117.4 122.4 118 121.3 118.5 120.8C119.9 120.7 121 120.6 122.1 120.5C122.1 120.6 122.1 120.6 122.1 120.7C121.6 120.8 121.1 120.9 120.7 121C120.1 121.1 119.5 121.1 119.1 121.3C118.7 121.5 118.3 122 118 122.6C123.2 122.2 128.4 121.8 133.6 121.4V121.5C132.5 121.7 131.3 121.9 130.2 122C126.9 122.3 123.5 122.6 120.2 123C119 123.1 117.8 123.3 116.7 123.5C116.4 123.6 116.1 123.8 115.8 124C118.8 123.8 121.7 123.5 124.7 123.3C124.7 123.4 124.7 123.4 124.7 123.5C122.7 123.8 120.8 124.1 118.8 124.3C117.1 124.5 116.9 124.6 116.3 125.9C123.1 124.9 129.7 124.3 136.4 124.8C134.8 124.9 133.3 125.1 131.7 125C127.7 124.5 123.7 125.2 119.8 125.7C117.8 126 115.8 126.4 113.8 126.8C113.1 127 112.4 127.3 111.7 127.7C119.6 127 127.6 126.3 135.5 125.6C135.5 125.7 135.5 125.8 135.5 125.9C127 126.9 118.5 127.7 110.1 128.8C110.1 128.9 110.1 129.1 110.1 129.2C110.4 129.2 110.8 129.3 111.1 129.3C114.5 129.1 117.9 128.8 121.3 128.5C124.9 128.2 128.4 127.9 132 127.6C133.3 127.5 134.5 127.2 135.8 126.9C136.5 126.7 137.1 126.8 137.7 127.5C129.1 128.4 120.6 129.4 112.1 130.3C112.1 130.4 112.1 130.4 112.1 130.5C120.4 130 128.7 129.5 137 129C137 129.1 137 129.1 137 129.2C132.9 129.5 128.8 129.8 124.7 130.1C129 131 133.3 130.4 137.6 129.7C134.6 130.9 131.4 131.3 128.2 131.1C126.8 131 125.4 130.8 124 130.6C120.6 130.2 117.2 130.7 113.9 131.1C112.8 131.2 111.7 131.3 110.6 131.4C110 131.5 109.5 131.7 109 132.1C114.1 132.5 119 130.7 123.3 131.2C121.1 131.5 118.2 131.7 115.4 132.2C112.6 132.7 109.7 132.5 107 133.5C107 133.6 107 133.8 107.1 133.9C109 133.7 110.9 133.5 112.7 133.2C118 132.3 123.4 131.9 128.8 131.8C130.9 131.8 133 131.3 135.1 131C135.3 131 135.4 130.9 135.6 130.9C135.8 131 136 131.1 136.2 131.2C136 131.3 135.9 131.6 135.7 131.6C134.1 131.9 132.5 132.1 130.9 132.3C126.5 132.9 122 133.5 117.6 134.1C114.3 134.5 111 134.8 107.7 135.2C106.8 135.3 105.9 135.5 105 135.6C105 135.7 105 135.8 105 135.9C108.6 135.5 112.2 135.1 115.7 134.6C115.7 134.7 115.7 134.8 115.8 134.9C114.7 135.1 113.6 135.3 112.6 135.5C110 135.9 107.3 136.3 104.7 136.7C104.3 136.8 103.8 137 103.4 137.3C103.8 137.3 104.2 137.3 104.7 137.3C107.5 137.4 110.4 137.6 113.2 137.4C117.9 137.1 122.6 136.6 127.3 136C130 135.7 132.6 135.1 135.3 134.7C135.5 134.7 135.7 134.7 136 134.9C126.8 137.6 117.3 138.3 107.9 139.6C107.9 139.5 107.9 139.3 107.8 139.2C110.3 138.8 112.7 138.3 115.2 137.9C112.1 137.3 109.2 138 106.2 138.5C102.8 139 99.4 139.2 96 139.6C93.4 139.9 90.9 140.3 88.3 140.5C84.1 140.9 80 141.3 75.8 141.4C71.1 141.5 66.3 141.3 61.6 141.4C58.5 141.4 55.4 141.8 52.3 141.9C48.9 142 45.6 142.1 42.2 142.2C37.3 142.4 32.3 142.5 27.4 142.7C27.1 142.7 26.8 142.6 26.5 142.5C26.5 142.4 26.5 142.3 26.6 142.2C36.2 141.8 45.9 141.3 55.5 140.9C55.5 140.8 55.5 140.7 55.5 140.6C47 140 38.5 140.3 29.9 140.6C33.3 139.8 36.7 139.9 40.1 139.9C43.6 139.9 47 139.9 50.5 139.8C49.2 139.2 47.9 138.7 46.5 138.8C41.1 139 35.7 139.2 30.3 139.4C28.5 139.5 26.6 139.4 24.8 139.4C24.8 139.3 24.7 139.2 24.7 139.1C25 139 25.3 138.8 25.6 138.8C31 138.7 36.3 138.6 41.7 138.5C43.3 138.5 44.9 138.5 46.5 138.5C46.5 138.4 46.5 138.3 46.5 138.2C45.9 138.1 45.4 137.8 44.8 137.8C42.4 137.7 39.9 137.7 37.5 137.6C37.2 137.6 36.9 137.6 36.6 137.4C39.1 137.4 41.7 137.4 44.2 137.4C44.2 137.3 44.3 137.1 44.3 137C43.8 136.8 43.4 136.4 42.9 136.4C39.9 136.4 36.9 136.4 33.9 136.9C28.7 137.7 23.4 138.1 18.1 138.7C16.7 138.8 15.2 138.9 13.8 139C13.4 139 13 138.9 12.5 138.9C13.2 138 14.1 138 14.9 138C17.7 137.9 20.4 137.8 23.2 137.6C27.6 137.2 32 136.7 36.4 136.2C38.4 136 40.3 136 42.3 135.9C42.5 135.9 42.8 135.9 43 135.8C43 135.7 43 135.6 43 135.5C34.6 135.9 26.2 136.4 17.8 136.8C17.8 136.7 17.8 136.7 17.8 136.6C22 136.2 26.1 135.6 30.3 135.3C34.5 135 38.6 134.8 42.8 134.4C40.8 133.9 38.8 134.3 36.8 134.4C34.8 134.5 32.7 134.6 30.7 134.7C28.6 134.8 26.6 135 24.5 135.2C22.5 135.4 20.5 135.6 18.5 135.5C26.5 134.2 34.5 133.7 42.6 133.1C42.6 132.7 42.6 132.2 42.6 131.8C39 132.1 35.4 132.3 31.8 132.6C35.5 132.3 39.1 131 42.9 131.3C42.3 131 41.8 130.5 40.9 130.8C39.9 131.1 38.7 130.8 37.6 130.9C33.1 131.3 28.5 131.6 24 132C22.2 132.6 21.2 132.7 20.2 132.9ZM94.3 135.8C94.3 135.7 94.2 135.6 94.2 135.4C93.8 135.5 93.5 135.5 93.1 135.6C90.2 136.1 87.4 137 84.5 137.2C76.3 137.6 68.1 137.7 59.9 136.9C54.3 136.3 49 135.1 43.8 132.8C43.6 132.7 43.4 132.6 43.3 132.6C43.5 133.2 43.7 133.7 43.8 134.3C43.9 135.6 44.6 136.4 45.7 137C46.3 137.3 47 137.6 47.7 137.8C51.8 139 56 139.5 60.2 139.6C66.7 139.8 73.2 139.8 79.7 139.8C83 139.8 86.3 139.4 89.6 138.5C92 137.8 94.3 137.1 96.7 136.3C96.7 136.2 96.6 136.1 96.6 135.9C94.2 136.6 91.8 137.2 89.3 137.9C89.2 137.8 89.2 137.7 89.1 137.6C89.3 137.4 89.5 137.1 89.8 137C91.3 136.7 92.8 136.2 94.3 135.8ZM119.6 76.2C120.2 75.9 120.8 75.7 121 75.3C121.2 75.1 121.1 74.4 120.8 74.1C119.7 72.9 118.2 72.2 116.5 72C116.2 72 115.7 72.3 115.6 72.6C115.5 72.9 115.8 73.3 116 73.6C116.2 73.9 116.5 74.2 116.8 74.4C117.7 75.1 118.7 75.6 119.6 76.2ZM104.7 79.2C104.8 79.4 105 79.6 105.1 79.8C107.5 79.3 110 78.8 112.4 78.3C112.6 78.3 112.7 77.8 112.9 77.5C112.6 77.3 112.2 76.9 111.9 77C109.8 77.6 107.7 78.2 105.6 78.8C105.3 78.9 105 79.1 104.7 79.2ZM134.1 78.4C133.2 78.9 132.2 79.2 131.8 79.9C131 81.4 130.4 83.1 129.8 84.7C133 83.9 133.4 81.2 134.1 78.4ZM126.5 87.2C129.7 85.8 130.1 82.8 131.1 80.1C130.5 80.4 129.7 80.6 129.4 81.2C128.4 83.1 127.5 85.1 126.5 87.2ZM125.1 133.1C118.7 132.7 112.5 134.7 106.2 135.1C106.2 135.2 106.2 135.3 106.2 135.4C112.5 134.6 118.8 133.8 125.1 133.1ZM118.7 103.3C118.8 103.3 118.8 103.4 118.9 103.4C119.2 103.1 119.7 102.9 119.8 102.5C120.7 100.3 121.6 98 122.6 95.6C121.8 96.3 121 96.7 120.7 97.4C119.9 99.3 119.4 101.3 118.7 103.3ZM124.2 93.8H124.1C123.1 96.2 122.1 98.6 121.1 100.9C121.2 100.9 121.3 101 121.4 101C122.2 100 123.5 99.5 123.7 98C123.8 96.6 124 95.2 124.2 93.8ZM124.3 92.5C125.1 93.9 124 95.3 124.5 96.6C125.2 94.9 125.9 93.1 126.7 91.4C126.6 91.4 126.5 91.3 126.5 91.3C125.7 91.7 125 92.1 124.3 92.5ZM114.8 97.5C116.3 97 117.8 96.5 118.5 94.8C116.9 95.2 115.1 95.3 114.8 97.5ZM124.8 91.2C126.6 90.5 127.7 89.1 127.9 87.3C127.5 87.8 127.1 88.2 126.8 88.6C126.6 88.6 126.2 88.6 126.1 88.7C125.6 89.4 125.3 90.2 124.8 91.2ZM20.4 53.9C19.8 53.6 19.3 53.4 18.7 53.1C18.3 54 17.9 54.9 17.5 55.8C19.1 56.1 19.6 54.8 20.4 53.9ZM19.2 50.7C21.6 50.4 22.4 48.5 23.3 46.8C23.2 46.7 23.2 46.7 23.1 46.6C21.8 47.9 20.5 49.3 19.2 50.7ZM120.3 93.2C122.2 93.2 122.3 91.7 122.9 90.4C122.3 90.5 121.7 90.6 121.3 90.6C120.9 91.6 120.6 92.4 120.3 93.2ZM8.5 64.7C9.2 62.9 9.8 61.4 10.4 60C9.2 61 8.6 62.3 8.1 63.7C8 63.9 8.3 64.2 8.5 64.7ZM18.4 51.6C17.3 53.3 16.2 54.8 15.1 56.4C16.1 56.2 18.4 52.7 18.4 51.6ZM125 89.5C123.5 90.1 123.1 90.9 123.4 92.1C124.6 91.7 124.5 90.5 125 89.5ZM82.3 135.1C83.4 134.5 84.6 135.3 85.5 134.1C84.3 133.9 83.1 133.5 82.3 135.1ZM122.9 93C121.9 93.7 121.9 94.7 121.4 95.6C122.6 95.2 122.9 94.6 122.9 93ZM21.7 50.4C22.5 50.5 23.1 50.5 23.8 50.6C23.5 50 23.3 49.6 23 49.1C22.6 49.5 22.2 49.9 21.7 50.4ZM104.8 132.5C104.4 132.5 104 132.5 103.7 132.5C103.4 133.3 103.1 134 102.8 134.7C102.9 134.7 102.9 134.8 103 134.8C103.5 134.1 104.1 133.3 104.8 132.5ZM103.2 131.7C104.4 131.4 105.5 131.2 106.6 131C106.6 130.9 106.6 130.8 106.5 130.7C105.5 130.9 104.5 131 103.5 131.2C103.4 131.3 103.3 131.6 103.2 131.7ZM105.9 132.6C105.9 132.7 105.9 132.8 106 132.9C107.1 133.2 107.5 133.1 108.2 132.1C107.4 132.2 106.6 132.4 105.9 132.6ZM102 137.8C99.1 137.8 98.9 137.8 98.1 138.5C99.5 138.3 100.8 138.1 102 137.8ZM139 62.2C139.1 62.2 139.2 62.2 139.4 62.2C139.5 61.4 139.5 60.5 139.6 59.7C139.5 59.7 139.4 59.7 139.3 59.7C139.1 60.5 139.1 61.4 139 62.2ZM134.6 60C135.8 59 134.7 58.3 134.6 57.6C134.6 58.3 134.6 59.1 134.6 60ZM138.3 58.5C138.2 58.5 138 58.4 137.9 58.4C137.8 59.2 137.6 59.9 137.5 60.7C137.6 60.7 137.8 60.7 137.9 60.8C138 60.1 138.1 59.3 138.3 58.5ZM135.7 52.9C135.6 52.9 135.5 53 135.4 53C135.6 53.8 135.8 54.7 136 55.5C136.1 55.5 136.2 55.4 136.3 55.4C136 54.6 135.9 53.7 135.7 52.9ZM12.1 59.1C11.9 59 11.8 59 11.6 58.9C11.4 59.5 11.2 60.1 11 60.7C11.1 60.7 11.3 60.8 11.4 60.8C11.7 60.3 11.9 59.7 12.1 59.1ZM108.4 128.6C108.5 128.7 108.5 128.9 108.6 129C109.2 128.7 109.8 128.4 110.5 128C110.4 127.9 110.4 127.8 110.3 127.6C109.7 128 109 128.3 108.4 128.6ZM134.4 54.5C134.3 54.5 134.1 54.6 134 54.6C134.2 55.4 134.4 56.2 134.5 57C134.6 57 134.7 57 134.8 56.9C134.7 56.1 134.5 55.3 134.4 54.5ZM130.3 53.9C130.4 53.9 130.5 53.8 130.6 53.8C130.8 53 130.1 52.7 129.4 52.3C129.7 52.8 130 53.3 130.3 53.9ZM96.8 134C96.8 134.1 96.8 134.1 96.9 134.2C98 133.8 99 133.4 100.1 133.1C100.1 133 100.1 133 100 132.9C98.9 133.3 97.8 133.7 96.8 134Z" fill="black"/>
<path d="M91.9 76.6C93.8 77.3 95.9 77.7 97.6 79C98.4 79.6 98.5 80.2 98 81.3C98.5 81.4 99 81.6 99.5 81.7C100.1 81.9 100.4 82.3 100.2 82.9C100 83.6 99.4 83.6 98.8 83.5C98.6 83.5 98.4 83.4 98.3 83.3C97.9 83 97.5 83 97 83.4C96.4 83.9 95.7 83.8 95 83.4C94.5 83.1 94 82.7 93.4 83.4C93.4 83.5 93.2 83.5 93.1 83.5C90.6 83.7 88 83.9 85.5 84C80.2 84.2 74.9 84.4 69.7 84.3C63.1 84.2 56.5 83.8 49.9 83.5C48.8 83.5 47.7 83.4 46.6 83.4C41 83.5 35.7 82 30.4 80.4C27.2 79.4 24.1 78.2 21 77.1C20.5 76.9 19.8 76.8 20 75.8C20.7 76 21.4 76.1 22.1 76.3C27.7 77.7 33.2 79.4 38.9 80.6C42.3 81.3 45.7 81.5 49.2 81.7C57.8 82.1 66.4 82.2 74.9 82.6C81 82.9 87 82.4 93.1 82.1C93.5 82.1 93.8 82 94.1 81.8C94.3 81.6 94.6 81.3 94.8 81.2C95.2 81.1 95.7 81.1 96.1 80.9C96.6 80.7 97 80.4 97.4 80.1C97.1 79.7 96.8 79.3 96.4 79.1C95.3 78.5 94.1 78 93 77.5C92.6 77.3 92.1 77.1 91.7 76.8C91.8 76.8 91.8 76.7 91.9 76.6Z" fill="black"/>
<path d="M41.5 87.7C42.5 87.8 43.5 87.9 44.6 87.9C52.6 88.1 60.6 88.3 68.5 88.3C75.1 88.3 81.8 88.1 88.4 87.7C94.2 87.3 100 86.5 105.7 86C106.8 85.9 108 86 109.2 86.1C109.4 86.1 109.5 86.5 109.7 86.7C109.5 86.8 109.3 87.1 109.1 87C106.3 86.7 103.9 88.1 101.2 88.2C99.4 88.2 97.6 88.3 95.8 88.4C93.6 88.6 91.4 89 89.2 89.2C86.9 89.3 84.7 89.2 82.4 89.3C78.2 89.4 73.9 89.5 69.7 89.5C66.1 89.5 62.5 89.5 59 89.3C54.8 89.1 50.7 88.9 46.5 88.6C44.9 88.5 43.3 88.1 41.6 87.8C41.5 87.9 41.5 87.8 41.5 87.7Z" fill="black"/>
<path d="M108.2 34.4C107.1 34.8 106.1 35.2 105 35.5C104.6 35.6 104.3 35.8 103.9 35.8C103.2 35.8 103 35.4 103.3 34.7C103.7 33.8 104 33 104.3 32.1C104.2 32 104.1 32 104 31.9C103.3 32.7 102.7 33.6 102 34.4C100.6 33.6 101 32.2 100.7 30.9C100.3 31.6 100 32.3 99.6 33.1C98 31.8 98.7 29.5 97.4 28.1C97.2 29.5 96.9 30.9 96.7 32.3C96.6 32.6 96.4 33.1 96.1 33.2C95.9 33.3 95.4 33 95.2 32.8C94.7 32.2 94.1 31.9 93.3 32C92.3 32 92.1 31.5 92.6 30.7C92.8 30.4 93 30.2 93 29.9C93 29.7 92.9 29.3 92.8 29.2C92.4 29 92 28.9 91.9 29C91.1 29.8 90 29.7 89 29.9C88.5 30 88.1 30.2 87.5 30.3C87.6 29.2 89 28.2 88.6 26.9C88.5 26.8 88.4 26.8 88.3 26.7C87.8 27.4 87.2 28 86.7 28.7C86.5 29 86.3 29.4 86 29.6C85.7 29.8 85.4 29.9 85.1 30.1C84.9 29.7 84.5 29.3 84.6 28.9C84.9 27.7 84.6 26.9 83.5 26.2C83 27 82.5 27.7 82 28.5C81.9 28.5 81.8 28.5 81.7 28.5C81.6 27.4 81.4 26.4 81.3 25.1C80.1 26.1 80.5 27.5 80 28.5C78.7 28.1 78.5 26.4 77.3 26C77.2 26.1 77.1 26.2 77 26.4C77.3 26.9 77.7 27.4 77.9 28C78 28.2 77.9 28.5 77.9 28.7C77.7 28.6 77.4 28.6 77.3 28.5C76.8 27.8 76.3 27.1 75.9 26.3C75.5 25.5 75 24.8 74 24.8C74 24.4 74 24.1 74 23.7C74.1 23.6 74.2 23.6 74.3 23.5C75.2 24.2 76.1 25 77 25.7C77.7 24.8 78.1 24.8 78.8 25.9C79.1 26.3 79.4 26.7 79.6 27.1C79.9 26.3 80.1 25.6 80.5 24.9C80.7 24.6 81.3 24.2 81.5 24.3C81.8 24.4 82 24.9 82.2 25.3C82.3 25.5 82.4 25.8 82.5 26.3C83.2 25.3 83.9 25.4 84.8 25.9C85.7 26.5 85.8 27.4 85.8 28.3C86.6 27.7 87.3 27 88.1 26.5C88.4 26.3 89 26.2 89.2 26.3C89.5 26.6 89.7 27.2 89.7 27.6C89.7 28 89.4 28.4 89.2 29C90 28.8 90.8 28.8 91.4 28.5C92.1 28.1 92.7 28.1 93.3 28.6C94 29.1 93.9 29.7 93.7 30.4C93.7 30.6 93.6 30.8 93.5 30.9C94.1 31.2 94.7 31.4 95.4 31.8C95.6 31.2 95.8 30.5 96.1 29.8C96.3 29.3 96.5 28.8 96.8 28.3C97.3 27.5 97.7 27.4 98.4 28.1C99 28.8 99.4 29.6 100 30.5C100.3 30.1 100.6 29.7 100.9 29.2C101 29.2 101.1 29.3 101.3 29.3C101.6 30.3 101.9 31.2 102.3 32.2C102.6 32 103 31.7 103.5 31.5C104.5 31.1 105 31.5 105 32.5C105 33 104.9 33.5 104.8 34.1C105.7 34.3 106.9 33.6 108.2 34.4Z" fill="black"/>
<path d="M110.3 121.5C115.8 117.1 119.7 111.6 122.9 105.4C122.9 105.6 122.9 105.7 122.8 105.9C120.4 111.2 117.5 116.2 113.2 120.2C111.3 122.1 109.1 123.7 107 125.4C105.5 126.6 104 127.7 102.4 128.9C102.2 129.1 101.8 129.2 101.6 129.2C100.3 128.9 99.3 129.3 98.6 130.5C98.6 130.6 98.5 130.6 98.3 130.7C97.3 129.7 96.4 131.1 95.2 130.7C96.7 129.5 98.5 129.4 99.8 128.4C101.1 127.4 102.1 126.1 103.2 124.9C103.3 125 103.4 125 103.5 125.1C102.9 125.9 102.4 126.6 101.8 127.4C103 127.1 103.5 126.1 104.2 125.2C104.9 124.3 105.8 123.5 106.5 122.6C107.2 121.8 108 120.9 108.8 120.1C108.6 120.6 108.3 121 108.1 121.5C108.2 121.5 108.3 121.6 108.3 121.6C109.8 119.4 111.3 117.1 112.8 114.9C112.9 114.9 112.9 114.9 113 114.9C112.9 115.2 112.8 115.5 112.7 115.8C110.8 119.1 108.8 122.2 106.1 125C106.2 125.1 106.3 125.2 106.3 125.3C106.8 124.9 107.3 124.5 107.7 123.9C109 122.2 110.3 120.4 111.5 118.7C111.6 118.6 111.8 118.5 112.1 118.5C111.6 119.4 111 120.4 110.3 121.5Z" fill="black"/>
<path d="M120.8 139.3C113.3 140.2 105.9 141.1 98.3 142C98.4 141.7 98.5 141.5 98.7 141.1C97.8 141.2 97 141.2 96.3 141.3C91.4 141.8 86.5 142.2 81.7 143C72.5 144.5 63.2 145.3 53.9 145.3C51.7 145.3 49.6 145.5 47.4 145.5C47.1 145.5 46.7 145.4 46.4 145.3C46.4 145.2 46.4 145.1 46.4 145C46.9 144.9 47.4 144.8 47.8 144.8C49.4 144.8 50.9 144.7 52.5 144.7C58.1 145 63.5 144.3 69.1 143.8C72.4 143.5 75.7 143.2 79 142.8C83.9 142.2 88.7 141.5 93.5 140.8C94.6 140.7 95.8 140.7 96.9 140.7C101.1 140.5 105.2 140.3 109.4 140C112.4 139.8 115.5 139.5 118.5 139.2C119.3 139.1 120 139 120.8 139C120.8 139.2 120.8 139.3 120.8 139.3Z" fill="black"/>
<path d="M89.4 143.8C91 143.6 92.6 143.4 94.2 143.2C94.2 143.1 94.2 143 94.2 142.9C88.4 143.4 82.6 144 76.8 144.5C76.8 144.4 76.8 144.2 76.7 144.1C77.1 144 77.4 143.8 77.8 143.8C82.8 143.4 87.7 143 92.7 142.7C95.1 142.6 97.5 142.8 99.9 142.6C101.8 142.5 103.6 142.1 105.5 141.9C109.4 141.5 113.2 141.2 117.1 140.8C119.5 140.6 122 140.3 124.4 140C125.2 139.9 126.1 140 126.9 140C127.2 140 127.4 140.1 127.7 140.2C127.7 140.3 127.7 140.4 127.7 140.5C127.4 140.5 127.1 140.6 126.8 140.6C120.5 140.2 114.4 141.5 108.2 142.2C103.4 142.7 98.7 143.2 93.9 143.8C92.8 143.9 91.7 144 90.5 144.1C90.1 144.1 89.8 144.1 89.4 144.1C89.4 144.1 89.4 143.9 89.4 143.8Z" fill="black"/>
<path d="M43.4 146.7C44 146.6 44.6 146.5 45.1 146.5C50.4 146.4 55.8 146.3 61.1 146.1C67.5 145.9 73.9 145.6 80.3 145.4C81.3 145.4 82.3 145.4 83.2 145.5C80.5 146.5 49.1 147.4 43.4 146.7Z" fill="black"/>
<path d="M55.9 122.4C55.2 122.4 54.5 122.4 53.6 122.4C54.2 123.6 54.7 124.9 55.4 126C56.1 127.1 56.9 128.1 57.8 129.2C57.3 130 57 130.1 56.2 129.5C54.8 128.5 54 127 53.3 125.5C51.8 122 51.1 118.4 50.7 114.7C50.5 113.1 50.4 111.5 50.2 109.9C50.1 109.4 50.1 108.8 50.1 108.2C50.2 108.2 50.3 108.1 50.5 108.1C50.7 108.6 51 109.2 51.1 109.7C51.5 112.1 51.8 114.5 52.3 116.9C52.5 118 52.8 119.2 53.1 120.3C53.3 121.2 53.7 121.8 54.8 121.9C55.2 121.9 55.7 122.1 56.1 122.2C56 122.2 55.9 122.3 55.9 122.4Z" fill="black"/>
<path d="M59.7 147.9C75.4 146.9 91.1 145.9 106.9 144.9C91.3 147.1 75.5 147.6 59.8 148.1C59.7 148.1 59.7 148 59.7 147.9Z" fill="black"/>
<path d="M93.8 117.9C92.6 120.1 91.4 122.3 90 124.7C91.4 124.1 92.8 124 93.8 122.8C95.9 120.4 97.8 117.9 99.1 115C98 118.1 96.2 120.7 94.1 123.4C96.6 123.2 98.7 122.3 100.2 120.2C98.9 122.1 97.8 124.1 95.2 124.4C94.2 124.5 93 124.6 92.4 125.6C92.4 125.7 92.2 125.7 92.2 125.7C92.1 125.7 92.1 125.7 91.9 125.7C91.9 125.5 91.9 125.3 91.9 125.1C90.7 125.4 89.3 125.2 88.8 126.7C87.8 126 86.1 126.5 84.8 127.7C85.1 127.1 85.5 126.5 85.8 125.9C86.6 124.6 87.4 123.3 88.1 121.9C88.4 121.3 88.6 121.3 89.2 121.8C88.3 123.1 87.5 124.5 86.6 125.9C88 125.5 89.3 125.3 90 123.7C90.9 121.8 92.2 120.1 93.3 118.2C93.4 118 93.6 117.9 93.7 117.7C93.8 117.8 93.8 117.8 93.8 117.9Z" fill="black"/>
<path d="M63.1 26.1C62.9 27.2 63.3 27.9 63.9 28.7C64.1 29 64.2 29.5 64 29.7C63.7 30.3 63.3 29.9 62.9 29.6C62.2 29 61.5 28.4 60.8 27.9C60.4 27.7 59.8 27.5 59.4 27.7C58.8 28 59.1 28.6 59.3 29.1C59.7 29.8 60.3 30.5 60.7 31.2C60.8 31.4 60.7 31.8 60.7 32.2C60.4 32.2 60 32.3 59.8 32.1C59.4 31.9 59 31.5 58.6 31.2C57.4 30.2 56.4 29 54.7 29.1C56.2 28.2 57.4 28.9 58.6 29.9C57.6 28.8 58.7 27.9 58.8 26.8C60.1 26.5 61.1 27.3 62 28C62.1 27.4 62.2 26.8 62.3 26.2C62.5 25.4 63.1 25.2 63.7 25.5C64.3 25.8 64.8 26.2 65.3 26.6C65.8 27.1 66.2 27.7 66.8 28.5C67.4 27.1 67.9 26 68.4 24.8C68.5 24.8 68.6 24.9 68.7 24.9C68.3 26.3 68 27.7 67.6 29C67.6 29.1 66.9 29.3 66.8 29.2C66.1 28.6 65.4 28.1 64.9 27.3C64.5 26.6 64 26.2 63.1 26.1Z" fill="black"/>
<path d="M120.3 113.4C119.7 113.1 120.1 112.7 120.4 112.3C121.7 110.7 123.1 109.2 124.4 107.6C127.8 103.7 129.9 99 131.8 94.2C133.5 90 135.1 85.7 136.8 81.5C136.9 81.4 136.9 81.2 137 81C137 82.3 132.8 94.5 130.9 98.3C128.2 104 124.7 109 120.3 113.4Z" fill="black"/>
<path d="M35.7 60.7C34.7 60.7 33.9 60.5 33.6 59.6C33.3 58.7 33.8 58.1 34.5 57.6C36.7 56.1 39.1 55.2 41.8 54.7C42.5 54.6 43.2 54.6 43.5 55.4C43.8 56.1 43.4 56.8 42.8 57.1C40.7 58.3 38.5 59.5 36.4 60.6C36.2 60.7 35.8 60.7 35.7 60.7ZM43.2 55.9C43 55.8 43 55.7 42.9 55.7C42.8 55.7 42.6 55.6 42.5 55.7C40 56.2 37.6 57.1 35.5 58.5C35.3 58.6 35.2 59.1 35.1 59.3C35.4 59.4 35.8 59.7 36.1 59.6C38.8 59 41 57.5 43.2 55.9Z" fill="black"/>
<path d="M79 64.6C81 65 83.2 66 84.9 67.9C85.8 69 85.4 70.4 84.2 71.1C81.4 72.8 77.2 71.3 76.1 68.3C75.2 66.1 76.3 64.6 79 64.6ZM81.8 70.7C82.5 70.5 83.2 70.3 83.9 70C84.6 69.6 84.8 69.1 84.2 68.4C83 67 81.6 65.9 79.8 65.6C79.1 65.5 78.2 65.6 77.5 65.9C76.4 66.3 76.3 67.2 76.9 68.1C78.1 69.7 79.7 70.6 81.8 70.7Z" fill="black"/>
<path d="M125.2 141.2C111.8 143.2 98.4 144.5 85 145.8C85 145.6 85 145.4 84.9 145.3C98.3 143.7 111.8 142.7 125.2 141.2Z" fill="black"/>
<path d="M76 42C77 42.1 78 42 78.4 43.1C78.8 44.1 78 44.8 77.3 45.4C75.6 46.6 73.6 47.3 71.5 47.5C70.6 47.6 69.7 47.3 69.3 46.4C69 45.6 69.3 44.6 70.3 43.9C72 42.6 74 42.2 76 42ZM71.7 46.2C74 46 75.9 45.4 77.5 44.1C77.7 43.9 77.9 43.6 78.1 43.3C77.8 43.1 77.5 42.9 77.2 42.8C77 42.7 76.7 42.7 76.5 42.7C74.8 43.2 73.2 43.6 71.5 44.2C71 44.4 70.5 44.8 70.8 45.4C70.9 45.9 71.5 46.1 71.7 46.2Z" fill="black"/>
<path d="M111.5 55.1C112.9 54.8 114.1 54.2 115.3 54.9C117.2 56 119 57.2 120.7 58.4C121.7 59.2 122 60.1 121.6 60.8C121.3 61.5 120.3 61.8 119.1 61.5C117.5 61.1 116.2 60.3 115.1 59.1C113.9 58 112.8 56.6 111.5 55.1ZM120 60.3C120.1 60.3 120.6 60.2 120.6 60C120.7 59.7 120.5 59.3 120.3 59.1C120 58.7 119.5 58.3 119.1 57.9C117.8 56.8 116.4 55.8 114.7 55.5C114.4 55.5 114 55.6 113.8 55.8C113.7 55.9 113.7 56.4 113.9 56.6C115.5 58.6 117.2 60.1 120 60.3Z" fill="black"/>
<path d="M104.9 118.2C105.1 117.7 105.1 117.1 105.4 116.7C107.1 113.2 108.8 109.6 110.5 106.1C110.9 105.4 111.2 104.6 111.5 103.8C109.8 105 108 106.1 105.6 105.8C108.5 104.3 111.5 103.1 113.8 100.7C111 106.6 108.2 112.5 105.4 118.4C105.2 118.3 105 118.2 104.9 118.2Z" fill="black"/>
<path d="M56.7 44.7C55.8 44.7 55 44.7 54.8 43.9C54.6 43.1 55.1 42.5 55.7 42.2C58.4 40.7 61.2 39.6 64.3 39.2C64.7 39.2 65.2 39.3 65.5 39.5C66.2 39.9 66.2 40.4 65.6 40.9C63.9 42.6 58.9 44.6 56.7 44.7ZM65.7 40.2C65.7 40.1 65.6 39.9 65.6 39.8C64.7 39.9 63.9 39.9 63 40.1C60.7 40.5 58.5 41.3 56.7 42.7C56.5 42.8 56.5 43.2 56.4 43.5C56.7 43.5 56.9 43.7 57.2 43.6C59.4 42.9 61.6 42.3 63.7 41.5C64.3 41.2 65 40.7 65.7 40.2Z" fill="black"/>
<path d="M48.9 59.6C48.7 59.8 48.5 60.1 48.3 60.3C47.9 60.6 47.5 60.9 47.2 61.3C47 61.5 47 61.8 47 62C47.2 62.1 47.5 62.3 47.7 62.2C49.1 61.7 50.6 61.4 51.9 60.7C53.2 59.9 54.4 58.8 55.6 57.8C55.8 57.6 55.8 57.2 55.9 57C55.6 57 55.3 56.9 55 57C53.8 57.5 52.6 58.1 51.4 58.6C51.3 58.7 51.1 58.8 51.1 58.9C50.9 59.1 50.8 59.4 50.7 59.6C50.4 59.4 50.1 59.2 49.6 58.8C51.5 57.6 53.2 56.8 55.1 56.3C55.8 56.1 56.6 57.2 56.2 57.9C56 58.3 55.6 58.7 55.3 59.1C53.4 60.9 51.3 62.4 48.9 63.4C47.5 64 46.5 63.8 46 62.9C45.5 62 45.9 61 47.2 60.2C47.7 59.9 48.2 59.7 48.7 59.4C48.7 59.4 48.8 59.5 48.9 59.6Z" fill="black"/>
<path d="M38.4 72C37.7 72 37 71.8 36.7 71.1C36.4 70.4 36.6 69.7 37.1 69.1C38.8 67.3 41 66.2 43.3 65.5C44 65.3 44.6 65.7 44.7 66.5C44.7 66.8 44.7 67.1 44.6 67.3C44.1 69.4 40.7 72 38.4 72ZM44.1 66C41.9 66.9 39.8 67.7 38.2 69.3C38.1 69.4 38 69.5 37.9 69.7C37.8 70 37.7 70.3 37.8 70.5C37.9 70.7 38.3 70.8 38.5 70.8C40.3 70.8 43.5 68.3 44.1 66.5C44.1 66.4 44.1 66.3 44.1 66Z" fill="black"/>
<path d="M62.1 62.3C61.4 62.3 60.5 62.2 60.2 61.3C59.9 60.4 60.4 59.7 61.1 59.2C63 57.7 65.3 56.8 67.6 56.1C68.6 55.8 69.5 56.7 69.2 57.7C69.1 57.9 69 58.2 68.9 58.4C67.7 60.4 64.5 62.3 62.1 62.3ZM61.9 61.4C64.7 61 66.9 59.8 68.6 57.8C68.8 57.6 68.7 57.3 68.8 57C68.5 56.9 68.2 56.8 67.9 56.9C65.6 57.6 63.5 58.6 61.6 60.1C61.4 60.3 61.2 60.7 61.2 60.9C61.3 61.2 61.7 61.3 61.9 61.4Z" fill="black"/>
<path d="M106.3 49.1C104.4 48.6 102.5 48.2 100.7 47.7C100 47.5 99.6 47 99.6 46.2C99.6 45.4 100.1 45 100.8 44.8C101.2 44.7 101.7 44.5 102.2 44.6C104.1 44.8 105.9 45 107.8 45.3C108.6 45.4 109.3 45.8 109.3 46.7C109.3 47.6 108.7 48.4 107.8 48.6C107.4 48.7 106.9 48.8 106.4 48.9C106.3 49 106.3 49.1 106.3 49.1ZM103.9 45.2C102.9 45.4 102 45.5 101.1 45.7C100.8 45.8 100.6 46.1 100.4 46.4C100.6 46.6 100.9 46.9 101.1 46.9C102.7 47.2 104.4 47.5 106 47.6C106.5 47.7 107.1 47.4 107.7 47.1C107.9 47 108.1 46.7 108.3 46.4C108.1 46.2 107.8 45.8 107.6 45.8C106.3 45.6 105.1 45.4 103.9 45.2Z" fill="black"/>
<path d="M123.4 106.5C123.5 106.2 123.4 105.7 123.6 105.5C124.9 103.5 126.4 101.7 127.5 99.6C129.2 96.1 130.7 92.4 132.2 88.8C132.8 87.5 133.3 86.2 134 84.9C133 88.8 131.6 92.5 130.1 96.3C128.6 100.1 126 103.2 123.7 106.6C123.6 106.5 123.5 106.5 123.4 106.5Z" fill="black"/>
<path d="M113 137C114.8 136.2 141.2 132.2 142.3 132.6C141.3 133.2 120.1 136.4 113 137Z" fill="black"/>
<path d="M46.1 143.7C57.3 142.8 68.5 142.3 79.7 142.5C68.6 143.4 57.3 143.2 46.1 143.7Z" fill="black"/>
<path d="M86.7 57.9C86.4 57.6 85.7 57.3 85.6 56.9C85.5 56.5 85.7 55.6 86.1 55.4C88.1 54 90.2 52.9 92.6 52.4C93.3 52.2 94 52.5 94.2 53.2C94.3 53.6 94 54.3 93.7 54.6C91.8 56.1 89.5 57.3 86.7 57.9ZM93.9 53.3C93.9 53.2 93.9 53.1 93.8 53C93.3 53.1 92.7 53.1 92.2 53.3C90.7 53.9 89.2 54.6 87.7 55.2C87.3 55.4 87 55.7 86.6 56C86.5 56.1 86.4 56.4 86.4 56.6C86.4 56.7 86.7 56.8 86.9 56.7C89.7 56.2 92.1 55.2 93.9 53.3Z" fill="black"/>
<path d="M64.8 71.6C64.3 71.5 63.6 71.5 63 71.2C62 70.9 61.8 70.1 62.6 69.3C62.9 69 63.2 68.8 63.6 68.6C65.5 67.7 67.5 67.1 69.5 67C70.2 67 70.8 67 71.1 67.7C71.4 68.4 71.2 69.1 70.7 69.6C69.7 70.7 68.3 71.1 66.9 71.3C66.2 71.5 65.6 71.5 64.8 71.6ZM63.2 70.2C63.4 70.4 63.5 70.4 63.5 70.5C63.6 70.6 63.7 70.6 63.8 70.6C65.9 70.8 67.9 70.5 69.8 69.4C70 69.3 70.2 69.2 70.3 69C70.4 68.8 70.6 68.4 70.6 68.2C70.5 68 70.1 67.8 69.8 67.8C69.3 67.8 68.7 67.8 68.2 68C66.5 68.5 64.7 69 63.2 70.2Z" fill="black"/>
<path d="M69.4 23.7C70.7 24.1 70.7 24.1 70.6 27.8C71.5 27.4 71.9 26.3 73 26.4C73 26 73.1 25.5 73.1 25C73.2 25 73.3 25 73.4 25C73.6 25.4 73.8 25.9 74 26.2C74.6 26.9 75.2 27.6 75.8 28.3C76 28.5 76.1 28.7 76.3 28.9C76 29 75.8 29.3 75.5 29.3C74.4 29.3 73.4 29.3 72.3 29.3C72.4 28.7 72.4 28 72.5 27.2C72.4 27.2 72.3 27.1 72.2 27.1C71.5 28 70.8 28.8 70 29.9C69.8 29.2 69.6 28.8 69.5 28.3C69.5 27.6 69.5 26.9 69.6 26.1C69.7 25.5 69.8 24.9 69.3 24.3C69.4 24.3 69.5 24 69.4 23.7Z" fill="black"/>
<path d="M51.4 73.4C50.2 73.4 49.7 72.7 50.1 71.9C50.2 71.7 50.3 71.5 50.4 71.4C52 70 53.5 68.5 55.2 67.2C56.2 66.4 57.3 66.4 57.9 66.9C58.5 67.4 58.4 68.4 57.7 69.6C56.2 72 53.8 72.9 51.4 73.4ZM51 72.4C51.1 72.5 51.1 72.6 51.2 72.6C52.7 72.3 54.1 71.9 55.2 70.9C56.1 70.1 56.9 69.1 57.6 68.1C58 67.6 57.6 67.1 57 67.2C56.7 67.3 56.4 67.4 56.1 67.5C54.7 68.6 53.2 69.8 51.8 71C51.4 71.5 51.2 72 51 72.4Z" fill="black"/>
<path d="M102.6 63.4C102.4 64.7 101.6 65.9 100.4 66.7C99.3 67.3 98.1 67.7 96.8 67.9C95.8 68.1 95.2 67.2 95.6 66.2C95.7 65.8 95.9 65.4 96.2 65.2C97.5 63.7 99.1 62.7 101 62C102 61.5 102.6 61.9 102.6 63.4ZM96.3 66.9C96.6 67 96.7 67.1 96.8 67C98.9 66.5 100.7 65.6 101.8 63.7C102 63.4 101.9 63 101.9 62.7C101.6 62.7 101.1 62.6 100.9 62.8C99.5 63.8 98.2 64.8 96.9 65.9C96.6 66.1 96.5 66.5 96.3 66.9Z" fill="black"/>
<path d="M79.1 81.9C77.3 81.9 76.7 81 77.4 80C78.8 78 80.8 76.6 83.2 75.9C84.4 75.5 85.4 76.6 84.9 77.9C84.4 79.3 83.6 80.5 82.1 81C81 81.5 79.8 81.7 79.1 81.9ZM78.8 81.1C81.3 80.8 83.1 79.7 84.4 77.8C84.6 77.6 84.6 77 84.5 76.9C84.3 76.7 83.8 76.6 83.5 76.7C81.5 77.4 80 78.8 78.5 80.2C78.4 80.3 78.3 80.7 78.3 80.9C78.4 81 78.7 81 78.8 81.1Z" fill="black"/>
<path d="M104.8 39.7C106.5 40 108 40.2 109.6 40.5C110 40.6 110.5 40.8 110.9 41.1C111.9 41.7 111.8 42.6 110.8 43.1C109.5 43.8 108.1 43.7 106.7 43.6C105.7 43.5 104.8 43.4 103.8 43.2C103.4 43.1 102.9 43 102.6 42.8C101.6 42.1 101.6 40.7 102.8 40.2C103.4 39.9 104.2 39.9 104.8 39.7ZM108.1 43.2C108.9 43 109.6 42.9 110.2 42.6C110.5 42.5 110.7 42.2 110.9 42.1C110.7 41.9 110.5 41.5 110.2 41.4C108.2 40.7 106.1 40.4 103.9 40.9C103.5 41 103.2 41.4 102.9 41.6C103.2 41.9 103.5 42.3 103.9 42.4C105.4 42.7 106.8 42.9 108.1 43.2Z" fill="black"/>
<path d="M77.1 76.7C75.2 76.4 73.2 75.7 71.6 74.3C71.2 74 71 73.1 71.1 72.5C71.2 72.1 71.9 71.8 72.4 71.6C72.7 71.5 73.2 71.5 73.5 71.6C75 72.1 76.6 72.6 78.1 73.2C79 73.6 79.3 74.6 79 75.4C78.9 76.2 78.2 76.7 77.1 76.7ZM73.7 71.9C73.7 72 73.6 72 73.6 72.1C73.2 72.2 72.8 72.2 72.4 72.4C71.6 72.8 71.6 73.5 72.3 73.9C73.7 74.8 75.3 75.4 77 75.3C77.4 75.3 78.1 75 78.1 74.7C78.2 74.3 77.9 73.7 77.5 73.5C76.2 72.9 74.9 72.4 73.7 71.9Z" fill="black"/>
<path d="M130 69.7C129.9 70.6 129.7 71.3 128.9 71.7C128.1 72.1 127.4 71.7 126.9 71.1C125.7 69.6 124.8 67.9 124.6 66C124.4 64.5 125.5 63.8 126.8 64.5C128.8 65.6 129.5 67.6 130 69.7ZM125.1 65.7C125.4 66.5 125.5 67.3 125.9 67.9C126.4 68.8 127 69.6 127.8 70.3C128.3 70.8 129 70.5 129 69.8C128.8 68 128.2 66.3 126.8 65C126.6 64.8 126.1 64.7 125.8 64.9C125.5 65 125.3 65.4 125.1 65.7Z" fill="black"/>
<path d="M105.1 56.7C105.6 56.8 106 56.8 106.2 57C107.6 57.8 109 58.7 110.3 59.6C110.6 59.8 110.8 60.1 111 60.4C111.4 61.1 111.4 61.7 110.9 62.3C110.4 62.9 109.7 62.9 109.1 62.5C107.7 61.4 106.3 60.2 104.9 59.1C104.7 58.9 104.5 58.7 104.4 58.5C104.2 58.1 104 57.6 103.7 57.2C104.2 57 104.7 56.8 105.1 56.7ZM109.6 61.3C110.2 61.3 110.4 61 110 60.5C108.9 59 107.5 58 105.7 57.4C105.2 57.2 104.8 57.7 105 58.2C105.5 59.3 108.5 61.3 109.6 61.3Z" fill="black"/>
<path d="M33.8 10.4C34 10.6 34.3 10.7 34.5 11C36.3 13.7 38.1 16.4 39.8 19.2C40.5 20.2 41 21.3 41.6 22.4C41.7 22.6 41.6 22.9 41.7 23.2C41.5 23.1 41.1 23 41 22.8C39 19.7 37.1 16.5 35.1 13.4C34.6 12.5 34.1 11.6 33.6 10.8C33.6 10.6 33.7 10.5 33.8 10.4Z" fill="black"/>
<path d="M18.3 74.1C16.6 74.1 15.9 72.8 16.7 71.4C17.9 69.4 19.8 68.5 22 68.2C23.2 68 23.8 68.9 23.5 70.1C22.9 72 20.1 74.2 18.3 74.1ZM18.2 73.1C20.1 72.7 21.9 71.8 23 69.9C23.4 69.3 23.1 68.9 22.4 68.9C21.9 68.9 21.4 69 20.9 69.2C19.6 69.7 18.4 70.5 17.6 71.7C17 72.5 17.3 73.1 18.2 73.1Z" fill="black"/>
<path d="M80.5 17.1C81.7 12.3 81.6 7.20001 83.6 2.60001C83.5 3.40001 83.5 4.20001 83.4 5.00001C82.9 8.80001 82.3 12.6 81.7 16.4C81.6 17 81.4 17.6 80.5 17.1Z" fill="black"/>
<path d="M30.2 70.6C30.2 70.7 30.1 71 30 71.3C29.1 73.2 27.7 74.6 25.5 74.9C25.1 75 24.5 74.9 24.1 74.7C23.4 74.4 23.1 73.9 23.4 73.2C23.6 72.8 23.8 72.3 24.1 72.1C25.5 71.1 27 70.1 28.5 69.3C29.6 68.8 30.2 69.3 30.2 70.6ZM29.7 70.1C29.6 70 29.5 69.9 29.4 69.9C27.7 70.6 26 71.4 24.8 72.9C24.6 73.1 24.6 73.6 24.8 73.8C24.9 74 25.3 74.1 25.6 74C27.1 73.6 28.3 72.9 29.2 71.6C29.4 71.1 29.5 70.6 29.7 70.1Z" fill="black"/>
<path d="M46.2 73.1C45.8 75 44.9 76.7 43.1 77.7C42.7 77.9 42.1 78 41.6 77.9C40.7 77.8 40.2 77 40.6 76.2C41 75.4 41.5 74.7 42.1 74.1C42.9 73.3 43.8 72.7 44.7 72.1C45.5 71.5 46.2 72 46.2 73.1ZM45.6 72.3C43.9 73.2 42.7 74.3 41.7 75.7C41.6 75.9 41.6 76.3 41.7 76.5C41.9 76.7 42.3 76.8 42.5 76.7C42.9 76.6 43.4 76.3 43.7 76C44.7 75.1 45.3 74 45.6 72.3Z" fill="black"/>
<path d="M35.5 78.6C35.3 78.6 34.9 78.5 34.6 78.3C33.5 77.5 32.4 76.8 31.4 75.9C30.8 75.3 30.8 74.5 31.3 73.8C31.7 73.2 32.4 73.1 33.1 73.4C34.2 73.8 35.3 74.2 36.4 74.8C37.3 75.3 37.7 76.1 37.5 77.2C37.2 78.1 36.6 78.6 35.5 78.6ZM32.5 73.9C32.3 74 31.9 74.2 31.9 74.4C31.8 74.8 31.9 75.3 32.1 75.6C32.9 76.7 34 77.2 35.3 77.3C35.6 77.3 36.2 77.1 36.3 76.9C36.4 76.6 36.3 76.1 36.1 75.8C35.2 74.7 34 74.2 32.5 73.9Z" fill="black"/>
<path d="M87.4 71.6C87.8 71.6 88.3 71.5 88.7 71.6C89.1 71.8 89.6 72.2 89.7 72.7C89.8 73 89.3 73.7 89 73.8C87 74.2 85.1 74.5 83.1 74.7C82.8 74.7 82.3 74.3 82.2 74C82.1 73.6 82.3 72.9 82.6 72.7C83.2 72.3 83.9 72 84.6 71.8C85.5 71.6 86.5 71.7 87.4 71.6ZM89.2 73C89.2 72.9 89.3 72.8 89.3 72.7C89.1 72.6 88.8 72.3 88.6 72.3C87 72.5 85.5 72.8 83.9 73.1C83.7 73.1 83.6 73.4 83.5 73.5C83.6 73.6 83.8 73.8 83.9 73.8C85.7 73.9 87.5 73.7 89.2 73Z" fill="black"/>
<path d="M60.7 52.2C60.4 52.1 59.8 51.9 59.4 51.6C58.7 50.9 58 50.2 57.4 49.4C56.9 48.8 56.7 47.9 57.3 47.4C57.8 47 58.8 46.6 59.3 46.8C60.5 47.2 61.6 48 62.6 48.7C63.3 49.2 63.5 50.1 63.2 51C62.7 51.9 61.9 52.2 60.7 52.2ZM61.5 51C62.3 51 62.6 50.6 62.3 49.8C61.7 48.5 60.5 47.7 59.2 47.3C58.9 47.2 58.3 47.5 58 47.8C57.8 48 57.8 48.6 58 48.9C58.8 50.2 60 50.9 61.5 51Z" fill="black"/>
<path d="M80.2 63C80 62.9 79.2 62.7 79.1 62.3C79 61.8 79.2 61.1 79.6 60.7C81.1 59.3 83 58.8 85.1 58.8C85.5 58.8 86.2 59.3 86.3 59.7C86.4 60.1 86.1 60.8 85.7 61.1C84.2 62.4 82.4 62.8 80.2 63ZM86.2 60.1C85.8 59.8 85.7 59.6 85.5 59.6C84.5 59.3 81 60.3 80.3 61.2C80.2 61.3 80.1 61.7 80.2 61.8C80.3 62 80.6 62.1 80.8 62.1C81.8 61.9 82.9 61.7 83.9 61.4C84.6 61 85.3 60.5 86.2 60.1Z" fill="black"/>
<path d="M97.6 61.9C97 61.5 96.3 61.3 95.9 60.8C95.5 60.1 95.9 59.3 96.5 58.7C97.7 57.7 99 56.9 100.6 56.9C101.9 56.9 102.5 57.8 102 59.1C101.4 60.6 99.6 61.7 97.7 61.7C97.7 61.7 97.6 61.8 97.6 61.9ZM97.4 60.7C99.1 60.5 100.4 60 101.4 58.9C101.6 58.7 101.7 58.2 101.6 58C101.5 57.8 101.1 57.6 100.9 57.6C99.3 57.7 98 58.3 97 59.5C96.8 59.7 96.7 60.2 96.8 60.4C96.8 60.6 97.3 60.6 97.4 60.7Z" fill="black"/>
<path d="M97.1 40.9C97.8 41 98.7 41.1 99.5 41.4C99.9 41.5 100.3 42.1 100.3 42.5C100.3 42.8 99.8 43.4 99.4 43.5C97.5 44.2 95.6 44.3 93.7 43.6C93.3 43.5 92.6 42.8 92.7 42.5C92.8 42 93.3 41.4 93.8 41.3C94.8 41.1 95.8 41.1 97.1 40.9ZM93.9 42.1C94.7 43.4 98.3 43.6 99.9 42.5C99.2 41.5 96.1 41.2 93.9 42.1Z" fill="black"/>
<path d="M37.8 46.5C37.5 46.5 37.2 46.5 37 46.5C36.3 46.4 35.6 46.3 35.3 45.6C35 44.8 35.5 44.1 36.2 43.7C37.7 42.7 39.3 42.5 41 42.8C41.2 42.8 41.4 42.9 41.6 43C42.2 43.2 42.9 43.5 43 44.3C43 45.1 42.5 45.7 41.8 45.9C40.5 46.2 39.2 46.4 38 46.7C37.8 46.6 37.8 46.6 37.8 46.5ZM38.7 45.9C39.5 45.7 40.5 45.5 41.5 45.2C41.8 45.1 42.2 44.6 42.2 44.4C42.2 44.1 41.8 43.7 41.4 43.6C39.8 42.9 37.5 43.4 36.3 44.7C35.9 45.2 36.1 45.5 36.5 45.6C37.2 45.7 37.8 45.7 38.7 45.9Z" fill="black"/>
<path d="M62.9 77.5C62.1 77.5 61.4 77.4 61.2 76.6C61.1 76.1 61.4 75.3 61.8 74.9C63 73.7 64.5 73.1 66.1 73C67.2 72.9 67.9 73.9 67.4 74.9C66.5 76.8 64.8 77.3 62.9 77.5ZM62.9 76.7C64.6 76.4 66 75.9 67 74.6C67.3 74.2 67.4 73.6 66.7 73.7C65.1 73.8 63.6 74.4 62.5 75.6C62.3 75.8 62.3 76.2 62.4 76.4C62.3 76.6 62.7 76.6 62.9 76.7Z" fill="black"/>
<path d="M88.8 38.6C87.3 38.6 86.7 37.8 87.4 36.8C88.4 35.2 89.8 34.3 91.7 34C93 33.8 93.7 34.9 93.1 36.1C92.1 37.9 90.3 38.3 88.8 38.6ZM88.7 38C89.7 37.5 90.7 37.1 91.7 36.6C92.1 36.4 92.4 35.9 92.6 35.5C92.9 34.9 92.7 34.5 92 34.6C90.4 34.9 89.1 35.7 88.2 37C87.8 37.4 88 37.8 88.7 38Z" fill="black"/>
<path d="M49.4 95.4C49.4 97.2 49.4 99 49.4 100.7C50.3 101.1 51.5 100.7 52.4 102C51.4 101.9 50.6 101.7 49.7 101.6C49.3 102.8 50.3 103 51.1 103.3C50.6 103.9 50.3 104.2 49.6 103.7C49.1 103.3 48.4 103.2 47.7 102.8C48.2 102.8 48.6 102.8 49.2 102.8C49.1 102.4 49.1 102 49 101.6C47.4 101.7 45.8 102 44 101.1C45.8 100.9 47.3 100.8 49 100.6C49.1 99 49.2 97.2 49.4 95.4Z" fill="black"/>
<path d="M147.8 36.3C146.2 36.6 144.6 36.9 143.1 37.2C141.2 37.6 139.2 37.9 137.3 38.2C137.1 38.2 136.8 38.1 136.6 37.8C140.4 37.1 143.9 35.1 147.8 36C147.8 36.1 147.8 36.2 147.8 36.3Z" fill="black"/>
<path d="M29.1 124.2C24 124.6 19 125 14 125.4C14 125.3 14 125.3 14 125.2C14.8 125.1 15.6 125 16.4 124.9C19.8 124.4 23.3 123.9 26.7 123.3C27.6 123.2 28.4 123.2 29.1 124.2Z" fill="black"/>
<path d="M6.40001 24.7C7.80001 25.6 9.20001 26.4 10.5 27.3C12.5 28.6 14.4 30.1 16.3 31.5C16.5 31.7 16.6 32 16.7 32.3C12.7 30.5 9.60001 27.5 6.20001 25C6.30001 24.9 6.30001 24.8 6.40001 24.7Z" fill="black"/>
<path d="M108.6 97.1C108.1 98.3 107.6 99.6 107.1 100.9C107.5 100.8 107.8 100.8 108 100.7C108 100.8 108.1 100.8 108.1 100.9C107.9 101.1 107.7 101.3 107.5 101.5C107 102 106.5 102.4 106.2 103C105.1 105.1 104.1 107.3 103.1 109.4C103 109.6 102.8 109.8 102.7 110C102.6 110 102.5 109.9 102.4 109.9C102.5 109.5 102.5 109.1 102.7 108.7C103.7 106.6 104.7 104.5 105.8 102.3C105.4 102.3 105.1 102.4 104.6 102.5C104.7 102.3 104.8 102.1 104.8 102.1C106.5 101.7 106.9 100.1 107.6 98.8C107.9 98.3 108.1 97.7 108.4 97.1C108.5 97 108.6 97 108.6 97.1Z" fill="black"/>
<path d="M5.39999 21C8.59999 23.5 11.8 26 15 28.4C15 28.5 15 28.6 15 28.7C14.6 28.7 14.1 28.8 13.8 28.7C13.2 28.4 12.6 28 12.1 27.6C9.89999 25.6 7.79999 23.7 5.69999 21.7C5.59999 21.6 5.39999 21.4 5.29999 21.2C5.29999 21.1 5.39999 21 5.39999 21Z" fill="black"/>
<path d="M30.3 115.7C29.1 114.7 27.7 113.8 26.8 112.6C23.5 108.4 22.1 103.3 21 98.2C22.9 104.7 25 111 30.6 115.5C30.5 115.5 30.4 115.6 30.3 115.7Z" fill="black"/>
<path d="M69 79.9C68.9 79.9 68.7 79.9 68.6 79.9C68.1 79.6 67.6 79.3 67.1 78.9C67.5 78.5 67.7 77.9 68.2 77.6C68.9 77.2 69.8 76.9 70.6 76.8C71 76.7 71.7 77.1 71.9 77.4C72.1 77.8 71.9 78.6 71.6 78.9C70.9 79.4 70 79.7 69.1 80.1C69.1 80 69 80 69 79.9ZM71.4 77.6C70 77.5 69.1 78.1 68 78.7C69.2 79.3 70.5 78.9 71.4 77.6Z" fill="black"/>
<path d="M85.6 116.9C84.2 121.5 82.2 126.1 79.7 130.4C79.6 130.4 79.5 130.4 79.4 130.4C79.4 130.1 79.3 129.8 79.4 129.6C81.4 125.3 83.6 121 85.6 116.9Z" fill="black"/>
<path d="M47.8 4.20001C49.4 8.00001 51.1 11.9 52.7 15.7C52.6 15.7 52.5 15.8 52.4 15.8C49.9 12.4 48.9 8.30001 47.5 4.40001C47.6 4.30001 47.7 4.30001 47.8 4.20001Z" fill="black"/>
<path d="M125.5 84.5C123.3 85.5 121.2 86.5 118.9 87.3C118.1 87.6 117.1 87.2 116.2 87.1C116.2 87 116.2 86.9 116.2 86.8C119.2 85.9 122.3 85 125.3 84.1C125.4 84.3 125.4 84.4 125.5 84.5Z" fill="black"/>
<path d="M19.9 65.3C19.2 65.2 18.5 65 18.3 64.2C18.1 63.4 18.7 63 19.3 62.8C20 62.5 20.7 62.2 21.4 62.1C21.8 62 22.5 62.2 22.7 62.4C22.9 62.7 22.9 63.4 22.7 63.8C22.2 64.9 21.1 65.2 19.9 65.3ZM22.2 62.9C21.4 62.7 19.6 63.5 19 64.3C20.2 64.9 21.8 64.2 22.2 62.9Z" fill="black"/>
<path d="M120.6 63.1C122.1 63.2 122.7 63.5 122.6 64.6C122.6 64.9 122.4 65.4 122.2 65.6C121.2 66.3 119.9 66.6 118.7 66.2C118.3 66.1 117.8 65.5 117.8 65.2C117.8 64.7 118.1 64 118.5 63.7C119 63.3 119.8 63.3 120.6 63.1ZM120.8 63.7C120 63.9 119.4 64.1 118.8 64.3C118.6 64.4 118.5 64.8 118.4 65.1C118.6 65.2 118.9 65.4 119.1 65.4C119.7 65.4 120.2 65.4 120.8 65.2C121.3 65 121.7 64.7 122.1 64.4C121.7 64.1 121.3 63.9 120.8 63.7Z" fill="black"/>
<path d="M105.4 93.8C105.4 94 105.5 94.2 105.5 94.4C104.5 98.1 102.8 101.5 101 104.9C100.9 104.9 100.8 104.9 100.8 104.9C100.9 104.5 100.8 104.1 101 103.8C101.6 102.3 102.4 100.8 103 99.2C103.8 97.4 104.5 95.6 105.2 93.8C105.3 93.8 105.4 93.8 105.4 93.8Z" fill="black"/>
<path d="M119.4 12.2C120.1 12.7 120 13.1 119.5 13.6C117.9 15.1 116.4 16.6 114.9 18.1C114.7 18.3 114.5 18.4 114.2 18.5C115.4 16 117.3 14 119.4 12.2Z" fill="black"/>
<path d="M80.5 33.6C79.8 33.4 79 33.4 78.9 32.6C78.7 31.8 79.4 31.4 80 31.2C80.7 31 81.5 30.8 82.2 30.8C82.6 30.8 83.2 31.1 83.2 31.4C83.3 31.8 83.1 32.5 82.8 32.7C82.2 33.1 81.3 33.3 80.5 33.6ZM82.9 31.8C82.9 31.7 82.8 31.6 82.8 31.4C82 31.7 81.2 31.9 80.4 32.2C80.4 32.3 80.5 32.4 80.5 32.6C81.4 32.7 82.2 32.3 82.9 31.8Z" fill="black"/>
<path d="M35.7 122.2C39 126.6 43.8 129 48.6 131.7C46 132.1 37 125.3 35.7 122.2Z" fill="black"/>
<path d="M141.9 11.5C140.2 12.6 138.5 13.7 136.7 14.9C136.5 14.6 136.3 14.3 136.1 13.9C137.7 12.8 139.3 11.7 141 10.7C141.2 10.6 141.7 11 142.1 11.1C142 11.3 141.9 11.4 141.9 11.5Z" fill="black"/>
<path d="M125.1 27C125.9 26.7 126.8 26.5 127.5 26.1C129.1 25.2 130.7 24.1 132.3 23.1C132.6 22.9 132.9 22.8 133.3 22.8C131.5 24.3 129.7 25.9 127.8 27.3C126.8 27.9 126 27.7 125.1 27Z" fill="black"/>
<path d="M74.4 133.8C73.8 133 74.7 123.8 75.5 122.9C74.7 126.5 75.5 130.2 74.4 133.8Z" fill="black"/>
<path d="M9.09998 136.6C9.69998 136 24.2 133.4 25.6 133.5C20.4 134.5 14.8 135.7 9.19998 136.8C9.09998 136.8 9.09998 136.7 9.09998 136.6Z" fill="black"/>
<path d="M31.6 17.3C31.3 17.3 30.9 17.4 30.8 17.3C29.2 15.5 27.6 13.7 26.1 11.7C28 13.4 30.3 14.8 31.7 17C31.6 17.1 31.6 17.2 31.6 17.3Z" fill="black"/>
<path d="M31.9 140C28.7 140.7 21.4 141.3 19.6 140.5C23.8 140.3 27.9 140.1 31.9 140Z" fill="black"/>
<path d="M22.2 125.5C24 125.3 25.7 125 27.5 124.8C27.9 124.7 28.3 124.7 28.7 124.6C29.7 124.2 30.4 124.7 31.4 125.5C28.2 125.6 25.2 125.7 22.3 125.8C22.2 125.7 22.2 125.6 22.2 125.5Z" fill="black"/>
<path d="M26.5 54.2C26.8 54.2 27 54 27.3 54.1C29.6 54.6 31 54 32.3 52C32.9 51.1 33.6 50.2 35 49.8C33.6 51.3 32.4 52.7 31.1 54C30.1 55 28.8 55.3 27.5 54.7C27.2 54.6 26.9 54.5 26.6 54.5C26.5 54.4 26.5 54.3 26.5 54.2Z" fill="black"/>
<path d="M77.6 101.8C77.6 102 77.5 102.3 77.5 102.5C76.8 105 76 107.6 76.2 110.2C76.2 110.4 76 110.6 75.8 110.7C75.6 110.6 75.3 110.4 75.3 110.3C75.2 109.7 75.2 109.1 75.3 108.5C75.9 106.3 76.5 104.1 77.1 102C77.1 101.9 77.3 101.7 77.4 101.6C77.5 101.8 77.6 101.8 77.6 101.8Z" fill="black"/>
<path d="M105.4 70.3C104 72 101.1 72.4 99.2 71.3C101.1 70.4 103.2 70.8 105.4 70.3Z" fill="black"/>
<path d="M38.2 145.2C40.3 144.9 42.3 144.5 44.4 144.3C44.9 144.2 45.5 143.9 45.8 144.8C43.3 145.6 40.7 145.8 38.2 145.2Z" fill="black"/>
<path d="M50.2 1.10001C50.4 1.30001 50.6 1.40001 50.7 1.60001C51 3.10001 51.4 4.50001 51.7 6.00001C50.9 6.20001 50.4 6.20001 50.3 5.20001C50.2 3.80001 50 2.50001 49.9 1.10001C50 1.20001 50.1 1.10001 50.2 1.10001Z" fill="black"/>
<path d="M83.9 49C84.5 49.1 84.7 49.4 84.4 50C84 50.8 83.4 51.2 82.6 51.2C82 51.2 81.4 51 80.8 51.1C79.9 51.1 79.1 51.3 78.2 51.4C77.9 51.4 77.7 51.3 77.4 51.3C77.6 51.1 77.7 50.7 77.9 50.7C78.4 50.6 79 50.6 79.6 50.6C80.2 50.6 80.8 50.7 81.4 50.7C83.1 50.7 83.2 50.6 83.9 49Z" fill="black"/>
<path d="M78.8 91.2C80 93.6 79.1 94.6 77.8 99.2C78.2 96.6 78.5 94 78.8 91.2Z" fill="black"/>
<path d="M91.4 49.9C92 49.7 92.7 49.3 93.3 49.2C94.9 49.1 96 48.5 96.6 46.9C96.7 46.6 97.2 46.4 97.5 46.2C97.6 46.3 97.7 46.4 97.7 46.4C97.3 47.2 96.9 48 96.4 48.8C95.9 49.6 95.1 49.6 94.3 49.7C93.4 49.8 92.5 49.9 91.6 50C91.5 49.9 91.5 49.9 91.4 49.9Z" fill="black"/>
<path d="M32.8 88C33 90 33.3 92 33.5 94C32.3 93.6 31.8 89.8 32.5 88C32.7 88 32.7 88 32.8 88Z" fill="black"/>
<path d="M106.1 85.5C109.6 84.4 111.6 84.3 112.6 85.1C112.2 85.6 107.1 85.9 106.1 85.5Z" fill="black"/>
<path d="M77.1 149C77 149.8 76.6 150 76 150C74.7 149.9 73.3 149.8 72 149.7C71.8 149.7 71.6 149.5 71.4 149.4C71.5 149.3 71.6 149.1 71.7 149.1C73.6 149 75.3 149 77.1 149Z" fill="black"/>
<path d="M84.6 53.7C84.3 54.8 83.6 55.2 82.6 55.4C81.9 55.5 81.2 55.4 80.5 55.6C79.6 55.8 78.6 56.1 77.6 56.4C77.6 56.3 77.7 55.9 77.9 55.8C78.8 55.5 79.6 55.1 80.6 55C81.8 54.8 83.1 55 83.8 53.7C83.8 53.6 84.2 53.7 84.6 53.7Z" fill="black"/>
<path d="M54.2 95.4C54.2 98.3 54.2 101.2 54.2 104.3C52.8 101.4 53.8 98.4 53.7 95.5C53.9 95.4 54.1 95.4 54.2 95.4Z" fill="black"/>
<path d="M55.3 74.4C55.3 75.6 54.9 76.1 54.2 76.4C53.5 76.7 52.8 76.8 52.2 77.1C51.5 77.4 50.9 77.8 50.2 78.1C50 78.2 49.7 78.2 49.4 78.2C49.5 77.9 49.5 77.5 49.7 77.4C50.1 77.1 50.7 77 51.2 76.8C52 76.5 52.8 76.4 53.5 76C53.9 75.8 54.2 75.3 54.5 74.9C54.7 74.8 54.9 74.7 55.3 74.4Z" fill="black"/>
<path d="M115.3 64.8C113.8 66 112.1 66 110.3 65.8C111.9 65 113.5 64.3 115.3 64.8Z" fill="black"/>
<path d="M54.8 79.9C55.1 79.6 55.4 79.2 55.8 79C56.4 78.7 57.1 78.5 57.7 78.4C58.6 78.2 59.3 77.7 59.5 76.7C59.6 76.5 59.9 76.3 60.2 75.9C60.3 77.7 59.6 78.6 58.2 78.9C57.6 79 57 79.1 56.5 79.3C56 79.5 55.5 79.8 55 80.1C54.9 80 54.9 79.9 54.8 79.9Z" fill="black"/>
<path d="M60.4 93C60.4 95.4 60.4 97.9 60.4 100.3C59.3 97.9 59.9 95.5 60.4 93Z" fill="black"/>
<path d="M90 66.8C90.1 66.6 90.1 66.2 90.3 66.1C90.5 65.9 90.9 65.7 91.2 65.6C92.3 65.3 92.9 64.7 93.1 63.6C93.1 63.4 93.4 63.3 93.6 63.2C93.7 63.4 93.9 63.7 93.9 63.9C93.7 64.8 93.1 65.4 92.3 65.8C91.6 66.1 90.9 66.5 90.2 66.8C90.2 66.8 90.1 66.8 90 66.8Z" fill="black"/>
<path d="M40.8 102.8C40 100.8 39.9 98.3 40.8 95.5C40.8 96.7 40.8 97.9 40.8 99C40.8 100.1 40.8 101.3 40.8 102.8Z" fill="black"/>
<path d="M50 68C50.6 67.7 51.1 67.4 51.8 67C51.8 67.3 51.8 67.4 51.8 67.5C50 69.5 49.9 69.5 48.5 67.1C48.4 66.9 48.2 66.6 48 66.3C49.5 66 49.3 67.6 50 68Z" fill="black"/>
<path d="M87.4 68.6C86.9 68.7 86.6 68.3 86.7 67.7C86.8 66.7 87 65.7 87.2 64.8C87.2 64.7 87.6 64.6 87.7 64.5C87.8 64.7 88 65 87.9 65.2C87.7 66.3 87.6 67.4 87.4 68.6Z" fill="black"/>
<path d="M91.6 59.5C91.7 60.8 91.5 61.1 90.5 61.5C89.9 61.7 89.4 62.1 88.8 62.4C88.6 62.5 88.4 62.4 88.2 62.5C88.2 62.3 88.2 62.1 88.3 61.9C88.4 61.7 88.6 61.6 88.8 61.5C89.5 61 90.1 60.4 90.8 59.9C91 59.7 91.3 59.6 91.6 59.5Z" fill="black"/>
<path d="M97.5 12.1C98.6 9.4 99.8 6.7 100.9 4C101 4.1 101.2 4.1 101.3 4.2C100.1 6.9 99 9.6 97.8 12.2C97.7 12.2 97.6 12.2 97.5 12.1Z" fill="black"/>
<path d="M64.1 117.8C64.1 118.6 64 119.4 64.1 120.3C64.2 121.1 64.4 122 64.5 122.8C64.5 123.1 64.5 123.4 64.3 123.7C62.5 121.8 63.9 119.8 63.8 117.8C63.9 117.8 64 117.8 64.1 117.8Z" fill="black"/>
<path d="M30.5 64.1C29.9 65 29.5 66.2 28.7 66.6C27.9 67 26.7 66.7 25.7 66.7C25.7 66.5 25.7 66.3 25.7 66.2C26.2 66.2 26.7 66 27.1 66.1C28.6 66.4 28.9 66.3 29.5 64.8C29.6 64.5 29.7 64.2 29.8 64C29.9 63.9 30.1 63.8 30.3 63.7C30.3 63.9 30.4 64 30.5 64.1Z" fill="black"/>
<path d="M122.2 66.4C122.8 67.1 122.7 68.3 122 69.1C121.4 69.8 120.2 70 119 69.5C119.7 69.3 120.7 69.2 121.2 68.7C121.7 68.2 121.8 67.3 122.2 66.4Z" fill="black"/>
<path d="M95.1 107.6C95.4 108.2 94.4 111.6 93.3 113C93.2 112.6 92.9 112.3 93 112.2C93.7 110.6 94.4 109.1 95.1 107.6Z" fill="black"/>
<path d="M57 35.7C55.7 36 54.3 36 53.9 37.6C53.3 36.7 53.5 36.2 54.2 35.6C55.2 34.9 56.4 34.9 57 35.7Z" fill="black"/>
<path d="M56.9 63.9C56.3 64.3 55.7 64.7 55.1 65.1C54.4 65.6 53.8 65.7 53 65.4C52.5 65.2 51.9 65.2 51.2 65C51.7 64.9 52.3 64.6 52.6 64.7C53.7 65.1 54.5 64.7 55.3 64.2C55.7 63.9 56.2 63.8 56.7 63.6C56.9 63.7 56.9 63.8 56.9 63.9Z" fill="black"/>
<path d="M69.3 93.6C69.2 95.6 69 97.6 68.9 99.5C68.9 99.7 68.6 99.9 68.5 100.2C68.3 100 68.2 99.8 68 99.5C68 99.5 68 99.4 68 99.3C68.3 97.4 68.8 95.5 69.3 93.6Z" fill="black"/>
<path d="M66.7 51.7C67.2 52.5 66.9 53 66.5 53.3C66.1 53.6 65.5 53.8 65 53.9C63.6 54.2 62.2 54.3 60.8 54.5C61.4 54.3 62.1 54 62.7 53.8C63.3 53.6 63.9 53.5 64.5 53.5C65.5 53.4 66.4 53.1 66.7 51.7Z" fill="black"/>
<path d="M85 42.9C86.5 42.4 87.8 41 89.7 41.7C89.9 41.8 90.1 42.1 90.3 42.2C90 42.2 89.8 42.3 89.5 42.3C88.7 42.4 87.8 42.4 87 42.5C86.3 42.6 85.7 42.8 85 43C85.1 43 85.1 42.9 85 42.9Z" fill="black"/>
<path d="M27 122.9C24.2 123.1 21.3 123.3 18.6 123.5C19.4 122.9 23.1 122.5 27 122.6C27 122.7 27 122.8 27 122.9Z" fill="black"/>
<path d="M98.6 98.9C99.1 97.1 99.7 95.3 100.2 93.4C100.8 94.5 100.3 96.5 98.8 98.9C98.7 98.9 98.6 98.9 98.6 98.9Z" fill="black"/>
<path d="M128.3 59.1C128.8 59.6 129.2 61.8 128.9 62.2C128.8 62.4 128.6 62.6 128.4 62.5C128.2 62.5 127.9 62.3 127.9 62.1C127.6 61.1 127.7 60.1 128.3 59.1Z" fill="black"/>
<path d="M44.7 38.5C46.5 37.4 48.6 36.3 49.7 37.8C48 38 46.3 38.2 44.7 38.5Z" fill="black"/>
<path d="M123.4 62C124.2 61.5 125 61 125.9 60.5C126.2 60.9 126.1 61.7 125.5 62.3C124.8 62.9 124.1 62.8 123.4 62Z" fill="black"/>
<path d="M20.1 132.8C19.1 133.2 18.2 133.7 17.1 133.9C15.6 134.3 14.1 134.4 12.6 134.6C12.3 134.6 11.9 134.5 11.6 134.3C12.8 134.2 14.1 134.1 15.3 133.9C16.9 133.7 18.5 133.3 20.1 132.8Z" fill="black"/>
<path d="M132.3 68.2C132.9 68 133.5 67.7 134.1 67.7C134.4 67.7 134.7 68 135.1 68.2C134.9 68.5 134.8 68.9 134.5 69.1C133.7 69.5 132.9 69.1 132.3 68.2Z" fill="black"/>
<path d="M31.5 113.6C30.6 112.2 29.6 110.7 29.2 108.9C29.1 108.6 29.3 108.3 29.4 108C29.6 108.2 29.8 108.5 29.9 108.7C30.5 110.4 31 112 31.5 113.6Z" fill="black"/>
<path d="M93.6 19.9C93 18 94.9 17.1 95.5 15.7C95.6 15.7 95.7 15.8 95.8 15.8C95.2 17.2 94.6 18.6 94 20C93.8 20.1 93.7 20 93.6 19.9Z" fill="black"/>
<path d="M71.3 54.8C71.4 53.3 73.5 51.8 75 52.2C73.8 53 72.6 53.9 71.3 54.8Z" fill="black"/>
<path d="M61.1 149.6C63.6 149.4 66.1 149.3 68.6 149.1C68.7 149.2 68.7 149.4 68.8 149.5C68.5 149.7 68.2 150.1 68 150C65.9 149.3 63.8 149.6 61.7 149.9C61.6 149.9 61.4 149.9 61.2 149.9C61.1 149.8 61.1 149.7 61.1 149.6Z" fill="black"/>
<path d="M103.9 65.8C105.6 65.8 107 65.2 107.8 63.5C108.4 64.3 107.9 64.8 107.5 65.2C106.5 66.3 105.2 66.2 103.9 65.8Z" fill="black"/>
<path d="M107.1 73.8C106.9 74.7 106.1 75.1 105.3 74.6C104.6 74.1 104 73.9 103.2 74.4C103 74.5 102.8 74.4 102.6 74.3C103.5 73.8 104.3 73.3 105.4 73.9C105.7 74 106.4 73.8 107.1 73.8Z" fill="black"/>
<path d="M130.2 64.7C130.9 65.1 131.6 65.4 132.3 65.8C132.6 66 132.9 66.2 133.1 66.5C133.1 66.6 132.9 67 132.8 67C132.4 67 131.9 67 131.7 66.8C131.1 66.2 130.6 65.4 130 64.7C130.1 64.7 130.2 64.7 130.2 64.7Z" fill="black"/>
<path d="M112.4 48.9C113.9 48.7 115.2 48.3 115.5 46.6C116.1 47 116.2 47.3 115.9 47.8C115.5 48.7 114.8 49.1 113.8 49.1C113.3 49.1 112.9 49.1 112.4 49.1C112.4 49.1 112.4 49 112.4 48.9Z" fill="black"/>
<path d="M7.70001 57.9C7.30001 59.4 6.90001 61 6.40001 62.6C5.60001 61.3 6.20001 59.5 7.70001 57.9Z" fill="black"/>
<path d="M52.3 8.60001C52.6 9.70001 53 10.8 53.4 11.9C53.1 12 52.7 12.1 52.2 12.2C52.1 11 52 9.80001 51.9 8.70001C52.1 8.70001 52.2 8.60001 52.3 8.60001Z" fill="black"/>
<path d="M44.4 113.3C44.2 111.6 44 110 43.8 108.3C43.9 108.3 44 108.3 44.2 108.3C44.9 109.9 44.7 111.6 44.9 113.3C44.7 113.3 44.6 113.3 44.4 113.3Z" fill="black"/>
<path d="M86.1 35.4C84.7 35.7 83.2 36 81.9 36.2C83.1 34.7 85.6 34.2 86.1 35.4Z" fill="black"/>
<path d="M99.5 147.6C97.9 147.9 96.2 148.2 94.6 148.5C94.5 148.5 94.3 148.3 94.2 148.2C94.3 148.1 94.5 147.8 94.6 147.8C96.2 147.6 97.9 147.4 99.5 147.3C99.5 147.4 99.5 147.5 99.5 147.6Z" fill="black"/>
<path d="M27.3 106.8C26.1 105.3 25.9 103.4 25.9 101.5C26 101.9 26.1 102.4 26.2 102.8C26.6 103.8 27.1 104.8 27.5 105.9C27.6 106.2 27.6 106.5 27.7 106.8C27.5 106.8 27.4 106.8 27.3 106.8Z" fill="black"/>
<path d="M61.8 66.2C63.4 66.2 64.2 65.5 64.6 64C64.6 63.9 64.9 63.8 65 63.6C65.1 63.8 65.2 64 65.2 64.2C64.8 66.2 63.7 66.8 61.8 66.2Z" fill="black"/>
<path d="M111.1 58.3C110.7 58.3 110.4 58.4 110.2 58.3C109.4 57.8 108.7 57.1 107.9 56.6C109 56.2 110.4 56.9 111.1 58.3Z" fill="black"/>
<path d="M85.9 98.8C85.4 101.2 84.8 103.5 84.3 105.9C84.1 103.4 85.2 101.1 85.7 98.8C85.7 98.7 85.8 98.7 85.9 98.8Z" fill="black"/>
<path d="M26.5 62.9C27.8 62.4 29.3 61.8 30.6 61.3C28.6 63.5 27.6 63.8 26.5 62.9Z" fill="black"/>
<path d="M39.9 113.8C38.4 112.1 37.2 107.8 37.3 105.2C37.6 106.5 37.9 108 38.3 109.5C38.7 110.9 39.3 112.3 39.9 113.8Z" fill="black"/>
<path d="M124.6 55.2C124.7 54.9 124.7 54.7 124.8 54.4C125.1 54.5 125.3 54.6 125.6 54.8C124.9 55.5 124.3 56.1 123.7 56.7C123.3 57 123.1 56.8 123 56.4C122.8 55.6 123.3 55.2 124.6 55.2Z" fill="black"/>
<path d="M106.1 76.3C107.4 75.9 108.7 75.5 110 75C110 75.1 110.1 75.2 110.1 75.4C109 76.5 107.5 76.6 106.1 76.3Z" fill="black"/>
<path d="M67.7 102.9C67.2 106.1 66.6 109.3 66.1 112.3C65.8 111.1 66.6 106.5 67.7 102.9Z" fill="black"/>
<path d="M91.7 108.2C92.3 106.4 92.8 104.7 93.5 102.9C93.7 102.4 94 102.1 94.5 102.7C92.8 104.2 92.6 106.3 92.1 108.3C91.9 108.3 91.8 108.2 91.7 108.2Z" fill="black"/>
<path d="M80.9 38.5C81.5 39.4 82.1 40.3 82.7 41.3C81.4 41.3 80.6 40.1 80.9 38.5Z" fill="black"/>
<path d="M74.7 62.4C73.3 62.7 71.9 62.7 71.3 64.2C71.2 64.1 71.1 64.1 71 64C71.1 63.6 71.2 63 71.5 62.7C72 62.1 73.4 61.9 74.7 62.4Z" fill="black"/>
<path d="M50.2 51.7C51.2 52 52.1 52.2 53 52.5C53.1 52.5 53.2 52.8 53.3 53C53.1 53.1 52.8 53.3 52.7 53.3C51.8 52.9 50.9 52.5 50 52.1C50.1 51.9 50.2 51.8 50.2 51.7Z" fill="black"/>
<path d="M95.7 57C96.3 56.2 96.8 55.4 97.3 54.6C98.2 55.8 97.6 56.6 95.7 57Z" fill="black"/>
<path d="M96.8 39.8C95.3 39.8 94 39.8 92.7 39.8C92.7 39.7 92.7 39.6 92.7 39.6C93.8 39.4 94.9 38.6 96.2 39.2C96.4 39.3 96.6 39.6 96.8 39.8Z" fill="black"/>
<path d="M103.7 54.3C104.6 54 105.6 53.6 106.5 53.3C106.7 53.2 107.1 53.6 107.3 53.8C107 53.9 106.7 54 106.4 54C105.5 54.2 104.6 54.3 103.7 54.5C103.8 54.4 103.8 54.4 103.7 54.3Z" fill="black"/>
<path d="M68.4 33.2C69.8 32.6 70.9 32.8 71.8 33.8C70.5 34 69.5 33.6 68.4 33.2Z" fill="black"/>
<path d="M52.8 126.3C52.3 126.3 51.9 126.4 51.9 126.3C51.4 125.4 51 124.5 50.6 123.6C50.7 123.5 50.9 123.5 51 123.4C51.5 124.3 52 125.2 52.8 126.3Z" fill="black"/>
<path d="M115.5 144.6C113.5 144.6 111.6 144.6 109.7 144.6C111.6 144.5 113.5 144.3 115.5 144.2C115.5 144.3 115.5 144.5 115.5 144.6Z" fill="black"/>
<path d="M43.2 115.2C44 116.9 44.7 118.5 45.5 120.2C44.5 119.6 43.3 116.8 43.2 115.2Z" fill="black"/>
<path d="M91.9 72.2C91.7 72.1 91.3 72 91.3 71.9C91.3 71.1 91.3 70.3 91.3 69.6C91.3 69.5 91.6 69.5 91.7 69.4C91.8 69.6 91.9 69.7 91.9 69.9C92 70.6 91.9 71.3 91.9 72.2Z" fill="black"/>
<path d="M46.1 74.7C47.1 74.6 48.2 74.6 49.2 74.5C49.4 74.5 49.6 74.7 49.8 74.8C49.6 74.9 49.4 75.2 49.2 75.2C48.2 75.2 47.1 75.1 46.1 75C46.1 74.8 46.1 74.7 46.1 74.7Z" fill="black"/>
<path d="M77.4 34.7C76.5 34.8 75.6 34.9 74.8 35C73.9 35.1 73.1 35.4 72.2 35.4C73.8 34.8 75.5 34.1 77.4 34.7Z" fill="black"/>
<path d="M115.9 50.2C117.1 50.4 117.9 50.9 118.5 51.7C118.6 51.8 118.6 52.1 118.6 52.3C118.4 52.3 118.1 52.3 118 52.1C117.3 51.6 116.7 51 115.9 50.2Z" fill="black"/>
<path d="M46.8 45.5C48.2 44.4 49.5 44.4 50.8 45.2C49.6 45.3 48.3 45.4 46.8 45.5Z" fill="black"/>
<path d="M109.3 69.6C110.7 69.6 112 69.6 113.5 69.6C112.7 70.1 110.4 70.2 109.3 69.6Z" fill="black"/>
<path d="M49.5 125.5C48.8 126.3 48.2 125.8 47.4 124C47.9 123.8 48.2 124 49.5 125.5Z" fill="black"/>
<path d="M49 56.1C49.1 55.9 49.1 55.6 49.2 55.4C49.6 54.8 50 54.2 50.4 53.6C50.5 53.5 50.7 53.5 50.9 53.4C50.9 53.6 51 53.8 50.9 53.9C50.4 54.7 49.8 55.4 49.3 56.1C49.2 56.2 49.1 56.2 49 56.1Z" fill="black"/>
<path d="M126.8 123.9C129.3 123.7 131.8 123.4 134.2 123.2C134.2 123.3 134.2 123.4 134.2 123.5C131.7 123.7 129.2 123.9 126.7 124.1C126.9 124 126.8 124 126.8 123.9Z" fill="black"/>
<path d="M94.1 68.9C94.4 69.7 94.6 70.2 94.8 70.7C94.8 70.9 94.7 71.1 94.6 71.3C94.4 71.2 94.1 71.2 94 71C93.4 70.4 93.5 69.8 94.1 68.9Z" fill="black"/>
<path d="M33 48.8C31.6 49 30.3 49.3 28.9 49.5C29.9 48.5 31.6 48.2 33 48.8Z" fill="black"/>
<path d="M50.2 41.3C48.5 41.7 47 42.1 45.5 42.5C45.8 41.6 47.7 41.1 50.2 41.3Z" fill="black"/>
<path d="M94.6 97.4C94.4 98.6 94.1 99.7 93.9 100.8C93 100.6 93.2 99.1 94.6 97.4Z" fill="black"/>
<path d="M15.1 63.1C14.9 61.4 15.9 60.7 18 61.2C16.8 61.4 15.6 61.7 15.1 63.1Z" fill="black"/>
<path d="M108.8 50.3C109.9 50.9 110.8 51.4 111.8 51.9C110.5 52.3 109.5 51.7 108.8 50.3Z" fill="black"/>
<path d="M37 52.6C35.8 53.4 34.5 54.2 33.3 55C33.3 54.1 35.4 52.7 37 52.6Z" fill="black"/>
<path d="M90 46.2C88.5 46.6 87 46.9 85.6 47.3C85.9 46.4 88 45.8 90 46.2Z" fill="black"/>
<path d="M35.3 64.4C36.4 64 37.7 63.5 38.9 63.1C37.4 64.6 36.2 65 35.3 64.4Z" fill="black"/>
<path d="M101.1 77.3C99.8 77.3 99.1 76.4 98.4 75.4C99.4 75.9 100.3 76.5 101.3 77C101.2 77.1 101.1 77.2 101.1 77.3Z" fill="black"/>
<path d="M95 73.8C94.6 73.4 94.1 73.1 93.8 72.6C93.7 72.4 93.9 72 93.9 71.7C94.1 71.8 94.5 71.9 94.6 72.1C94.9 72.5 95 73 95.2 73.5C95.1 73.6 95 73.7 95 73.8Z" fill="black"/>
<path d="M91.2 112.1C90.7 113.2 90.4 114.1 90 115C89.1 114.4 89.4 113.6 91.2 112.1Z" fill="black"/>
<path d="M108.9 146.7C106.9 146.9 104.9 147.1 102.9 147.3C102.9 147.2 102.9 147.1 102.9 147C104.9 146.8 106.9 146.7 108.9 146.5C109 146.5 109 146.6 108.9 146.7Z" fill="black"/>
<path d="M113.2 92.5C113.2 91.9 113.1 91.3 113.1 90.6C113.1 90.4 113.4 90.2 113.5 90C113.6 90.2 113.8 90.4 113.8 90.6C113.8 91.2 113.6 91.8 113.5 92.3C113.5 92.5 113.4 92.5 113.2 92.5Z" fill="black"/>
<path d="M67.6 34.5C66.1 34.6 64.6 34.8 63.1 34.9C63.1 34.8 63.1 34.7 63.1 34.6C64.6 34.5 66.1 34.3 67.6 34.2C67.6 34.3 67.6 34.4 67.6 34.5Z" fill="black"/>
<path d="M19 66.9C18.1 67.8 16.7 67.8 16 66.9C17 66.9 18 66.9 19 66.9Z" fill="black"/>
<path d="M59.9 36.9C59.3 37.2 58.8 37.5 58.3 37.7C58.1 37.8 57.8 37.8 57.7 37.7C57.6 37.6 57.6 37.3 57.7 37.2C58.2 36.6 59.3 36.5 59.9 36.9Z" fill="black"/>
<path d="M66.3 45.6C65 45.7 63.8 45.8 62.6 45.8C63.7 45 65.1 44.9 66.3 45.6Z" fill="black"/>
<path d="M66.8 117.9C67.3 119.2 66.9 120.4 66.4 121.6C66.4 121 66.4 120.4 66.4 119.7C66.4 119.1 66.5 118.5 66.5 117.9C66.7 117.9 66.7 117.9 66.8 117.9Z" fill="black"/>
<path d="M98.9 81.4C99.9 80.4 100.9 80.5 101.3 81.6C100.5 81.5 99.8 81.5 98.9 81.4Z" fill="black"/>
<path d="M99.5 37.6C100.5 37.8 101.5 38 102.6 38.2C102.1 38.9 100.6 38.6 99.5 37.6Z" fill="black"/>
<path d="M50 122.2C49.8 122.1 49.6 122 49.5 121.9C49.2 121.3 49 120.6 48.7 120C48.7 119.9 48.8 119.7 48.8 119.5C48.9 119.6 49.1 119.6 49.2 119.8C49.5 120.5 49.8 121.3 50.1 122C50.1 122.1 50.1 122.2 50 122.2Z" fill="black"/>
<path d="M114.3 84C115.2 83.7 115.8 83.5 116.4 83.3C116.5 83.3 116.7 83.4 116.7 83.5C116.8 83.6 116.7 83.7 116.7 83.8C116.5 84.2 114.9 84.4 114.3 84Z" fill="black"/>
<path d="M96.6 92.1C96.4 93.2 96.2 94.2 96 95.3C95.9 95.3 95.7 95.3 95.3 95.3C95.7 94.1 96.1 93.1 96.4 92C96.4 92.1 96.5 92.1 96.6 92.1Z" fill="black"/>
<path d="M74.1 38.2C75.1 38.3 76.1 38.4 76.9 39.1C76.9 39.2 76.8 39.4 76.8 39.5C75.9 39.2 75 38.9 74 38.5C74.1 38.4 74.1 38.3 74.1 38.2Z" fill="black"/>
<path d="M56.4 72.9C57.6 72.8 58.8 72.7 59.9 72.6C59.9 72.7 59.9 72.9 59.9 73C58.7 73.1 57.5 73.2 56.4 73.3C56.4 73.2 56.4 73.1 56.4 72.9Z" fill="black"/>
<path d="M55.4 48.3C54.4 48.6 53.5 48.4 52.8 47.6C53.6 47.3 54.8 47.7 55.4 48.3Z" fill="black"/>
<path d="M124.2 72.1C125 72.6 125.8 73.1 126.7 73.6C126.6 73.7 126.5 73.9 126.4 74C125.4 73.7 124.8 72.9 124 72.3C124.1 72.3 124.2 72.2 124.2 72.1Z" fill="black"/>
<path d="M65.3 37.1C66.6 37 67.8 36.9 69.1 36.8C69.1 36.9 69.1 37 69.1 37.1C67.8 37.2 66.6 37.3 65.3 37.4C65.3 37.4 65.3 37.2 65.3 37.1Z" fill="black"/>
<path d="M79 40.4C78.5 39.6 77.9 38.8 77.3 37.9C78.5 38.2 79.2 39.2 79 40.4Z" fill="black"/>
<path d="M11.2 70.2C11.2 69.1 12.2 68.4 13.6 68.6C12.8 69.1 12 69.7 11.2 70.2Z" fill="black"/>
<path d="M55.8 116.4C56.1 117.6 56.5 119.1 56.9 120.7C55.5 119.4 55.7 117.7 55.8 116.4Z" fill="black"/>
<path d="M72.5 59.3C73.6 58.3 75 58.2 76.4 58.3C75.1 58.6 73.8 59 72.5 59.3Z" fill="black"/>
<path d="M95.4 72.1C96 72.9 96.4 73.4 96.9 74.1C96.6 74.2 96.4 74.3 96.2 74.3C95.4 73.9 95.1 73.2 95.4 72.1Z" fill="black"/>
<path d="M68.2 61.7C69.3 61.2 70.4 60.8 71.4 60.3C71.4 60.4 71.5 60.5 71.5 60.7C70.4 61.2 69.3 61.6 68.3 62.1C68.4 61.9 68.3 61.8 68.2 61.7Z" fill="black"/>
<path d="M34.5 113.9C33.7 112.1 32.8 110.4 32 108.6C32.1 108.6 32.1 108.5 32.2 108.5C33 110.3 33.9 112 34.7 113.8C34.6 113.8 34.6 113.8 34.5 113.9Z" fill="black"/>
<path d="M27.4 17.7C28.5 17.8 29.4 18.1 29.8 19.2C29.7 19.3 29.7 19.4 29.6 19.4C28.9 18.8 28.1 18.3 27.4 17.7Z" fill="black"/>
<path d="M106.8 49.9C105.5 50.1 104.3 50.4 103 50.6C103 50.5 103 50.4 102.9 50.3C104.2 50 105.4 49.8 106.7 49.5C106.8 49.7 106.8 49.8 106.8 49.9Z" fill="black"/>
<path d="M54.5 39.2C55.3 38.9 56 38.5 56.8 39.4C55.9 39.5 55.2 40 54.5 39.2Z" fill="black"/>
<path d="M121 56C120.3 55.5 119.7 55 118.9 54.5C120.4 54.5 121.2 55 121 56Z" fill="black"/>
<path d="M71 40.4C70 40.6 69 40.7 67.9 40.9C68.6 40 70.1 39.8 71 40.4Z" fill="black"/>
<path d="M17.4 126.5C15.9 126.7 14.3 126.8 12.8 127C12.8 126.9 12.8 126.8 12.8 126.8C14.3 126.6 15.9 126.4 17.4 126.2C17.4 126.3 17.4 126.4 17.4 126.5Z" fill="black"/>
<path d="M17.6 127.9C15.8 128.6 14 129.3 12.3 129.1C13.8 128.7 15.4 128.3 17.1 127.8C17.3 127.8 17.4 127.9 17.6 127.9Z" fill="black"/>
<path d="M15.8 140.1C16.7 140.3 17.4 140.4 18.2 140.6C17 141.3 16 141.2 15.8 140.1Z" fill="black"/>
<path d="M61.1 123.4C60.8 123.5 60.5 123.7 60.5 123.6C60 123 59.6 122.4 59.2 121.9C59.3 121.8 59.4 121.7 59.5 121.6C59.9 122.1 60.4 122.6 61.1 123.4Z" fill="black"/>
<path d="M133 13.5C132.7 13.9 132.4 14.1 132.1 14.4C131.9 14.2 131.6 13.9 131.6 13.8C131.7 13.5 132 13.2 132.2 12.9C132.5 13.1 132.7 13.3 133 13.5Z" fill="black"/>
<path d="M124 70C124.9 70.1 125.6 70.5 126 71.2C125.9 71.3 125.9 71.4 125.8 71.5C125.1 71.1 124.5 70.6 123.8 70.2C123.9 70.1 124 70.1 124 70Z" fill="black"/>
<path d="M16.2 72.1C15.5 72.1 14.9 72.1 14.2 72.1C14.9 71.1 15.5 71.2 16.2 72.1Z" fill="black"/>
<path d="M44.4 51.6C45.4 51 46.4 50.5 47.7 51.1C46.5 51.3 45.4 51.5 44.4 51.6Z" fill="black"/>
<path d="M30.4 55.7C31.4 55.7 32.4 55.7 33.4 55.7C33.4 55.8 33.4 55.9 33.4 55.9C32.4 55.9 31.4 55.9 30.4 55.9C30.4 55.9 30.4 55.8 30.4 55.7Z" fill="black"/>
<path d="M100.3 54.3C99.3 54 98.4 53.7 97.5 53.4C98.4 53 99.5 53.3 100.3 54.3Z" fill="black"/>
<path d="M76 112.3C75.2 113.7 74.3 115.1 73.5 116.5C73.4 116.5 73.4 116.4 73.3 116.4C74.2 115 75 113.6 75.9 112.2L76 112.3Z" fill="black"/>
<path d="M36.9 111.5C37.4 112.7 37.9 113.9 38.4 115.1C38.3 115.1 38.2 115.2 38.1 115.2C37.6 114 37.1 112.8 36.5 111.6C36.7 111.5 36.8 111.5 36.9 111.5Z" fill="black"/>
<path d="M86.2 78.7C86.7 78.7 87.3 78.7 87.8 78.7C88 78.7 88.1 79 88.3 79.1C88.1 79.2 87.9 79.5 87.8 79.5C87.2 79.4 86.7 79.1 86.2 78.9C86.2 78.8 86.2 78.7 86.2 78.7Z" fill="black"/>
<path d="M28.1 102.3C28.3 103.4 28.5 104.5 28.8 105.9C28.1 104.6 27.7 103.5 28.1 102.3Z" fill="black"/>
<path d="M104.4 61.3C105.1 61.7 105.8 62 106.7 62.5C105.7 62.9 105.1 62.5 104.4 61.3Z" fill="black"/>
<path d="M22 125.9C21.2 126 20.6 126.1 19.9 126.2C20.6 125 20.9 125 22 125.9Z" fill="black"/>
<path d="M100.2 50.9C99.1 51 97.9 51.1 96.8 51.2C96.8 51.1 96.8 51 96.8 50.9C97.9 50.8 99.1 50.7 100.2 50.6C100.2 50.7 100.2 50.8 100.2 50.9Z" fill="black"/>
<path d="M30.3 102C30.2 100.6 30 99.1 29.9 97.7C30 97.7 30 97.7 30.1 97.7C30.2 99.1 30.4 100.6 30.5 102C30.5 102 30.4 102 30.3 102Z" fill="black"/>
<path d="M87.2 91.2C87.2 91.8 87.1 92.5 87.1 93.1C87 93.1 86.8 93.1 86.7 93.1C86.7 92.5 86.7 91.8 86.7 91.2C86.9 91.2 87.1 91.2 87.2 91.2Z" fill="black"/>
<path d="M20.1 59.2C21.1 59.1 22.1 59.1 23.1 59C23.1 59.1 23.1 59.2 23.1 59.3C22.1 59.4 21.1 59.5 20.1 59.6C20.1 59.5 20.1 59.3 20.1 59.2Z" fill="black"/>
<path d="M14 66.4C14.8 66.2 15.4 66 16.2 65.9C15.3 67 14.9 67.1 14 66.4Z" fill="black"/>
<path d="M19.8 48.1C19.1 48.9 18.4 49.8 17.7 50.6C17.6 50.5 17.5 50.5 17.4 50.4C18.1 49.6 18.9 48.8 19.6 48C19.7 48 19.8 48.1 19.8 48.1Z" fill="black"/>
<path d="M143 127.5C142.1 127.7 141.3 127.9 140.6 128C141 127.2 141.7 127 143 127.5Z" fill="black"/>
<path d="M47.5 113.5C47.6 113.7 47.6 113.8 47.7 114C47.8 114.7 47.8 115.4 47.9 116.1C47.8 116.1 47.7 116.1 47.6 116.1C47.5 115.2 47.4 114.4 47.3 113.5C47.3 113.5 47.4 113.5 47.5 113.5Z" fill="black"/>
<path d="M120.5 49.5C121.1 49.9 121.6 50.4 122.2 50.8C122.1 50.9 122 51.1 121.9 51.2C121.4 50.7 120.9 50.3 120.3 49.8C120.3 49.7 120.4 49.6 120.5 49.5Z" fill="black"/>
<path d="M24.8 95.3C24.9 96.4 25 97.6 25.1 98.7C25 98.7 25 98.7 24.9 98.7C24.8 97.6 24.7 96.4 24.6 95.3C24.7 95.3 24.8 95.3 24.8 95.3Z" fill="black"/>
<path d="M18.8 96C18.5 95.5 18.1 94.9 17.8 94.4C17.9 94.3 18.1 94.2 18.2 94.2C18.5 94.8 18.8 95.3 19.1 95.9C19 95.9 18.9 96 18.8 96Z" fill="black"/>
<path d="M7.99999 132.4C7.39999 132.4 6.89999 132.5 6.29999 132.5C6.79999 131.9 7.29999 131.9 7.99999 132.4Z" fill="black"/>
<path d="M97.6 124.9C97.2 125.5 96.8 126.2 96.4 126.8C96.3 126.8 96.3 126.7 96.2 126.7C96.5 126 96.9 125.4 97.2 124.7C97.3 124.7 97.4 124.8 97.6 124.9Z" fill="black"/>
<path d="M46.9 79.3C46.5 79.3 46.1 79.2 45.7 79.2C45.7 79 45.8 78.7 45.8 78.7C46.2 78.7 46.6 78.8 47 78.9C47 79 47 79.1 46.9 79.3Z" fill="black"/>
<path d="M47.1 0C47.3 0.6 47.4 1.2 47.6 1.8C46.8 1.6 46.7 1.2 47.1 0Z" fill="black"/>
<path d="M20.5 120.8C19.8 120.9 19.2 121 18.5 121.1C18.5 121 18.5 120.9 18.5 120.8C19.2 120.7 19.8 120.6 20.5 120.5C20.5 120.5 20.5 120.7 20.5 120.8Z" fill="black"/>
<path d="M82.7 68.2C82.9 68.5 83.2 68.8 83.2 69.2C83.2 69.4 82.8 69.6 82.6 69.8C82.4 69.5 82.2 69.2 82.1 68.9C82.1 68.7 82.3 68.4 82.4 68.2C82.5 68.2 82.6 68.2 82.7 68.2Z" fill="black"/>
</svg>
